<mxfile host="Electron" agent="Mozilla/5.0 (Windows NT 10.0; Win64; x64) AppleWebKit/537.36 (KHTML, like Gecko) draw.io/27.0.9 Chrome/134.0.6998.205 Electron/35.4.0 Safari/537.36" version="27.0.9">
  <diagram name="PÃ¡gina-1" id="IKVGy_DopQR0RWY-qbrC">
    <mxGraphModel dx="119" dy="1830" grid="1" gridSize="10" guides="1" tooltips="1" connect="1" arrows="1" fold="1" page="1" pageScale="1" pageWidth="827" pageHeight="1169" math="0" shadow="0">
      <root>
        <mxCell id="0" />
        <mxCell id="1" parent="0" />
        <mxCell id="ixubTMQ6r5XC_kmO0G5D-28" value="" style="endArrow=none;html=1;rounded=0;exitX=0.5;exitY=1;exitDx=0;exitDy=0;" edge="1" target="ixubTMQ6r5XC_kmO0G5D-29" parent="1" source="vLlzIB-tp__e5FBe9is8-34">
          <mxGeometry relative="1" as="geometry">
            <mxPoint x="1772" y="415" as="sourcePoint" />
            <mxPoint x="1832" y="415" as="targetPoint" />
          </mxGeometry>
        </mxCell>
        <mxCell id="vLlzIB-tp__e5FBe9is8-32" value="" style="shape=image;verticalLabelPosition=bottom;labelBackgroundColor=default;verticalAlign=top;aspect=fixed;imageAspect=0;image=data:image/png,iVBORw0KGgoAAAANSUhEUgAAAuIAAAFVCAYAAACqxIpvAAAAAXNSR0IArs4c6QAAAARnQU1BAACxjwv8YQUAAAAJcEhZcwAADsMAAA7DAcdvqGQAAP+lSURBVHhe7J13XFX1/8dfd7CH4CARFVS8prkIMvci42c5sFIMUzFHNHDk1nKgRtpXLc0UzZUrKTMnuBIQWaIgSzBEhuxxLzJk3HPevz8u83IHKGbj83w8fBTnnM94z/O+534+5wqIiMBgMBgMBoPBYDD+UoTKBxgMBoPBYDAYDMbzhxXiDAaDwWAwGAzGC4AV4gwGg8FgMBgMxguAFeIMBoPBYDAYDMYLgBXiDAaDwWAwGAzGC4AV4gwGg8FgMBgMxguAFeIMBoPBYDAYDMYLgBXiDAaDwWAwGAzGC4AV4v8lyjMQcy8HvPLxp6YUqZF3kV5e71CLj9EYvjgZMUmy5zqGKkpTo5GQ99eNWp4Rg3s5f914DAaDwWAw/lpathCXZ+DW73vw+aThGDpkCIYMm4DZS1dgxbLF+MzNGaOHDsXwaT8gXl59fVkQ1g5+Ca2snbEngVPqrAXh0/HzrB4wb2OHRb6FymeV4JH+8yz0MG8Du0W+0Ha1dnjknJ6FrsZO2JNbV1Rx6b5Y/97beH/BfEwZOxmeful4Vg1U3voB2y5KlQ8DvAyRRz+Ho60tRm4MQqXy+aeET9mLGYMGY+7hbPDPaYwGcOn4Y6sbBnR5BS57E1DjRs8bPjcU+z1GwLbHm9gSql6yot8/Rr+eY7EptFj5VLPgZZE4+rkjbG1HYmOQ+vEYDAaDwWD8s2nZQlxshdecZ2FCpwyEBgcj+JYcg1Z9ja+3bMX3h37GjwtfhjQ+DcU19Wh5BhKT8lGclYgHBc9ahmqAl+LPuHQUSZMR//CxloKXh/TPOKQXSZEc/xCPNV+sFS7tGD797AgeVtU7WBkFr8lT8FXWCGzYtg3LXk3ExslT4BX5LEWXDOd3bsL6bceQojxnoRnsXBdhooRASqeeBaHNPPwUEox9M9tD+JzGaICoE0Z7zMWINs9xDBUILQbCbeE4dFM+0YASXP/9Bizdt2DxQBPlk81CaGYH10UTIaG/UkoGg8FgMBh/NS1biAMABNDREUPQ4FgFcrLLYPPOV1g+1rTuXGsXHLh9GzejAuA1RLdBixZF3BerL0UiOCwSv35iA5Hy+QaI0Xf1JUQGhyHy109go/lizcjvY+/8lbiQ1bAyLru6C3siSiFu3xEdRGJ0tekIYckt7Nl1BWUNrmw6fOoJHLpchLLA/TgYreJZsdAUJkYNrfLsGMHarh866Vf/+VzGUEJkBjPT5zyGCkQmJtAoWmU8Cl79Dkc8+qBGHc+C0FTLeAwGg8FgMP7xPIdCXAWVt3DkyB1UCS0w0WMWeooB8EVIDPJDQGwWZGkJ+LOw/lrYYty7uBdfb9iMvRfiUQQAKENK2CX4+vrC1y8AcQUcShPP43uvXbiaVlPoFiHRbz+2rF+LjTtPIbKAB8Ah8/YlXApNhjT/T9xLq6gbpigRfvu3YP3ajdh5KhIFPMBl3salS6FIlubjz3tpqLuaR8Hd37Hbaz08vzkAv8RiLWuUKxD97RcItnsX/cT1j1ci8logcjhAV1fx4UNXVwyAQ86NP1DzUJzPC8XhzZtxODRPyzgAIMfdA+fQdv0GvGkYi5+8r6NU+RIIIVBT2JVmRCMoMAT3citQmZOMlGIeWVFX4OfrC78bCZDV6MXXF76XQvGw3qeF8oxoxGfXzFDdGGXIjLkJ/8DbSK39OkRxPC0mAXlcOTLvhiOhUPlRfh3ywiSEBwQiMv2J8ikAQFlmDG76B+J2qmq78IX3EOjnW+0/QUgs4gEUI+nmJfj6+iEoUVZ7rcq+BIK6D5CV2Yi9GYz43HofeHQHYPa8l5GdqLQ+vjIXCSH+8A9LgpQDgCbqVlhvvHpw0mRE3AhEaEJuo+U/vOwBwgJuICqtCAWZWSp8gMFgMBgMxt+J51+IE4ecc/vxW7KiaDGxtISJEICwFazbxWDzO2/jrXGzsDu6eu0Glwqf2QMwfFMWRrsNwL3lQzBs/gXk8oZobx6Lb959G2+Nm45tR7/BhGHOmL9qERbviwb4DPw2bzCGrEvD0HfM4b9yCgYPXYQrRSK81LkEP88dj7femoCVZwvAA+AzfsO8wUOwLm0o3jH3x8opgzF00RWUvNQZJT/Pxfi33sKElWdRwAOAHPcPusB+0EKE2rphVo9gfPZqH7znHVevUG9IaejXWP/nZHw1tYOSkstw/34aOAggEosgBCAQKK7g0pOQ9AQAKnB9rQtmr1iB2ZO/xDV1g9RQchl7Q/pgjtsszJnQDo9+3YPT9dajq6UsDofc38b0zZcQlxCIbVPt0KXXJOxN4NG6c0fk/DQPE+fuR7wcELXuBIvEHZg24XP4ZHLgpZE4sexN2HYbjvWB9XdrNoTP8sOGuYvhHRCNWycXY6hkOFZfzUN26AEsGGULyZh12LP5PQwdPAgDZh1BgXIHKEPM3ulwmrMfURlJOLfKA9736xXsfBb8NszFYu8ARN86icVDJRi++mq13eoQGrWBXsIPmD1+IjbdMUMHIyEAQ7xkHI7tWyMgbm3YpL4qH/6MRVOmwX3eRNj1mYR9DziAlyLyxDK8adsNI2rXx/PI89+EGW7/w9XUXETvnACJgwfOZEGrblUjQ+i3bnBZ4YOYtEScXTwMvZw8cb1682hl9A64eRxHurwc8QemYeB7PyJFxRcjDAaDwWAw/kZQi1NBQZ9LSAwQxLb05vQx1M1QTFZzfalc+dLSE/SesYAg6koe18uJiKPcE1PIQqhLI7anEEdP6MJsSxLpDqCNsXKiJ6dpehshQWBA1u/spFt3jtHCSS7kdeMxSU/PJCuRDr22IY7k8nu0eYgBCXQH0KZ4OVFVNK2z1yFAl0bvzCCOpHR6phWJdF6jDXFykt/bTEMMBKQ7YBPFy6soep096QCkO3onZXBEXNZhmtRGSIJWU+hkCSnm0VZIglZjyTuNU5aKSPoHLZu0gC7kcyT/82sapAOC7pu0O4cj4lJo23BdAoTUdvppekJEpT9NJD2AoDuKdjziiEhOKUenk6RVK5J8cIQeypUHqA9HmQem0LhvEkhOROWBi0giNqThW/+khs0e08Hx+mTu+is9ISKiYvpjYW+yW3qTSquvqAheQi/r9aaV4VVEJKf4jQNIv8cSullRff7mEuphMIi+/lPRM5e1ixz1TGnKyZoelMbgcujEtFG0IrS6Ay6Vto/QJR27NRRZxVHq9pGka9CHFlzOJWncVfK7W0DK2iwNWkp9u86iM9LqAyXnabaVDr28NIQqiKOcE9No1IpQUozAUer2EaSrY0drIqsa9ENERFUxtOE1A7KadYZkRArdHfyUlvoWE2nrK3cPOemb0KDVAZTLEVHx7zTTUp9GbEtRzJnLol2OerWyc1nHycXWiXalKiSqiv2GRrTuQDNPlzRJt/T4II3XNyfXXxXWkl78iCQ9F1KA4k+i0iBa3FOXLKf+TNlcBQUv6U39l4dW6z2bjm3cSXEqVMBgMBgMBuPvw/N9Ii7qjsnfXsQf3u+ig8qRlDfdlePGuavI53lkXd+JVSvW4ET0E1BVLG7drr96WoT+E6bBwc4V23/7GSuGiuD/2wVkcQIYmRhDIHoZi09H4GbYb1jcU8Ui7zJ//HYhC5zACCbGAoheXozTETcR9ttiqLq8+I8zuFbIQ9iqDVqLAQhMYWosAD2+AV//xw0v5vNwfs1OiBasx1ttVAgtNIBB9SJiQfU6Dp6vfuQq0IO+vhCACNbTfkKiTIbEIx9oXqfO3cMhHwEmT+8OEQC9QbMx41UOIQd+RITy2oX6FF3AnqPFeP1NexhWHxK1agVjFVNWh9DEBMaq1k/UUOaP034ZuH9+K7y8vOC1+RieOK2D5wx7GEAIAwNdCE0d4DisHcx6OcKpb2ulbw9K4Lf7EJL7jMQos+pD+l1gY1mjkDL4n/ZDxv3z2OrlBS+vzTj2xAnrPGfA3qBeNzWIe2G2+xsoO+0Nnwwe4O7jRNhLmDLauIl9GeLl1wegnRCAfmd0tgBkUqliKYrQBCb1lCf1PQE/PTs4tFccE7+yBP4FGTjkbFR7TdMpxLl9PyPdth/sahagG74OF2cJ8s8fh69MDCuJNVK3TcDwmV/hVJwOXFZ/hl4NlkQxGAwGg8H4u9GMsuspEYjRecqnmNy1piooQ0pyltJFNZQgN78EPARoM3geNn29BUfCpeD4Uvw+o96bKISt8FL7mvIRAEqRk1MMHjzysrMhByBq1wuD+ltBr95VtZTmIKeYB/g8ZGfLAYjQrtcg9LdSdTWPx3mFKCdAoKsLXQGAmtW7VAlZwWOlNcE34XP8DLxGmkEgEEDcfQVCqgBUXsbHnZ1xqLgVrDu3g6heAc5xiv+K2nZCJ+P6nWmn7MY+nC8W4ubaT+Du7g73z3Yi1aIbdBKPYu8l9a/R4zIfIKVEDF0dTZW0FgQCNWvCFfDFeSh4ooeezkuxcuXK2n8rFk5ADzHq9KgOLh0Jf8oAkVi1o/LFyCt4Ar2ezlhar/+VKxZigmIAJYSwnOKOd02uw3t/LErDf8aD3tNgp/s0fYkgFAGcvOZ1OPV1waEgNx/lskJIW+LFJ1wO0h6Vga+sRN0iIDFsrK0grJRB+hjoPPsIruxxgUnAJkx5tQcGLziN2q0TDAaDwWAw/paorG9aHN0BmDHjVegA4DNP4eCZHOUrqjFCuzZGEIJDQkRE9SZNVQghbPCU2Ajt25tCCA5Jgf6NX9+njFF7tDcVAlwSAv1TtLzOUIjWnTuilRAgngdPAFCOiirFU9AOndo0VKJYgrfnL8Py5cuxfPlyLHN3REcRAHE3vPXZO+ijqwP7IfYwFhAqKyoV69V5HoAAxq8NxWs1nwV4GZLCw/GgSMNabz4PZ368B6ddP8F7zx7sqf6398hGvNsuB7/t+wVZapoLzMzRCo8QEfpQrfwisQggXulbCwKpa6CE0LQDLA0T4LP/Gurebs4h2fcCVL3YpRGC1mjbWozy2NuIUlonTzwPCE3RwdIQCT77ca3e69O5ZF9cUDeA8Ztwd5Mg7uA2eJ4owoipXRVv0XmavtQiwkudrWCQ44uTl+reRM8X+ML7WCK45upW1AHdu5mCi4tA3RdDPCorKiHs2A92loT02Efo5LYD1xLicG5VX6Tt9sCmq9o2FzAYDAaDwXiRPJdCvHapBclRVckD0MNL7VtDWBKDPZ944q65dfWVym+GMMDwCWPQVshDdmErvPwLwINH5sUdOBxZCaCmEOZR+yASAGCI0S7O6CQCKsJ+wIbfMsABKLt3Ab5xlQAItVPiOcBwNFycO0GECoT9sAG/ZXAAynDvgi/iKquLPMXF4AAYjZmJyV3EoMIc5FQBKM9HQREPUUdnvP+G0lIDcS+4rPHC119/ja+//hpfLR6DTkIAwm4Yv2wG7PWEsHCei/c6i1BRkAcZz0Eqewxe1AnvzZ6ANgAAOW6tH42+Aweir6MnItTUgfK4vdj3eCJm9VF6Ymv2Fma92xkll3+Ad3TN+hQOHFf9YQKA0OL/8M5IA4R9PQ2f7L6E8Nt/4NDBP1D3pkURLKzaQzcjFJfv5CD33gXsPnQTBfI8pD/MR3E5AJ4DT3W6VR4DRmMwy7ULUrxdMHKaJ370OYXDXnOwPNgIii9ICJBXqf9hHmE7jJ8+Dm2T92PRqvNIqwQqUu8gNpeDNCMV2UUCjJnlii4p3nAZOQ2eP/rg1GEvzFkeDKPab2CUEcNu9jwMKziOUzQe4xQKB2CksS+e58GDqv2vDsVxAODB8QDxBB5Aq7GzMKVTNo589A4W/uCD345txaduPhAPtoWoKbrlOHCg6lhqhXHz3dFHegrbDyQqNoPy2bjin44h8z/BMD0O6T5b4H2nDNC3wVurvsRkG0Po6Wv5xoHBYDAYDMaLRXnR+DNR9YjCf99Ns/vokwAgCFtR33fm07LlS2j+7Ek0qLMRCcTdaL5/9Q610pM0pVX9zZpEJE+lXz/uT2YiAQn021GPAWPow53h9JhKKfHXOfSKjoAg0KM+c45SVEG9rX1cLl39cgS11xGQQMecutmPoslrzlMaJ6eUKytphLmQABF1GLeFbmZxxOVepS9HtCcdgYB0zLuR/ajJtOZ8GlWmXKGVI8xJCJCowzjacjOLiDgqvLGJ3uxsScOXHaSDS4ZR+85OtDGg8eZCZRpt1iQiIo4K/NfQSNvh9PmhA/TZwG7kuN6f6sSpoLDV/UhfICADuy8pvNGmO46ybvxAs+1bkcEr02jL6ejqzYeKc4WRJ2nVGEsSQUDGvd+nr85FU/T5NeTUXkQia2fadCaWiIjkmZdp7fie1M7YlGxGLSIf37XkYFCzWZOIHgfRxjGdydTUiuwmb6HrF5eSffcRNHPdUbqVGkvn1o6lDiIx2ThvoguJMkpQMQaVxtNRj9Fka65Huqadaci8QxRbylHBnRO08g1LEomsyGn1CYrIV6NJTkrhu9xooLU5mdk40PjP1tHsgV1okOsXdDAki4hKKf6oB422NSc9XVPqPGQeHYqt2TyqDin9Nnsced5VVqyavmR36Zflo8hCpEMSl2/ofGwCBe5fQEPMRGRk/xEdCH1A8efW0tgOIhJ3mURfXUxU9BZ/jDxGS6idSSuycnClrTdy6/xFk24fxdP5NU7UXiQia+dNdCb2MRFVUcrZ1TTB3o5GTp1LH384ndy3BZDCpSro5qrB1K3/G+S2bB15rphH87yuUbYalTIYDAaDwfh7ICB6gT/fV/4bPrCajGOPu2LhH3HYPqzmR304FD2MxN00OSx62uFlC1Vrt1VTmh6FOw9KYS6xQ+8O9deRq6IU6VF38KDUHBK73tB6eUUO4m/HI0fQHq/Y94TFM/4GEV+cijuRqRDZ2MOus9KTdV6K+7fuQ9jjNdiaPZcvLhrBxW/EQIeTGBMQia9eU/dEmcFgMBgMBoPREryYQrwsHNvmfQ+d+a64N2UcdmfawTMyFF++oun1IIznDSvEGQwGg8FgMP46WrQQr3kdH+PZaEGTNIuKwIXo88YZvOF7Dz84tsQPtTMYDAaDwWAw1PHXrHlg/O3hMm7iRJgp3v18KtpGHIG/1lfPMBgMBoPBYDCehRZ9Is5gMBgMBoPBYDCaBnsizmAwGAwGg8FgvABYIc5gMBgMBoPBYLwAWCHOYDAYDAaDwWC8AFghzmAwGAwGg8FgvABYIc5gMBgMBoPBYLwAWCHOYDAYDAaDwWC8AFghzmAwGAwGg8FgvABYIc5gMBgMBoPBYLwAWCHOYDAYDAaDwWC8AFghzmAwGAwGg8FgvABYIc5gMBgMBoPBYLwAWCHOYDAYDAaDwWC8AFghzmAwGAwGg8FgvABYIc5gMBgMBoPBYLwAWCHOYDAYDAaDwWC8AFghzmAwGAwGg8FgvABYIc5gMBgMBoPBYLwAWCHOYDAYDAaDwWC8AFghzmAwGAwGg8FgvABYIc5gMBgMBoPBYLwAWCH+j4dHcXIMkmS88olnpjwjBvdyWrDf0lRE3k1Heb1DLT5GI56ffjRTitToBOT9ZcOWIyPmHp6rKqvhi5MRkyTDXzAU428Cs/nz5fnnwebS0nmzpft7NviiFEQEhSA2u/wvzZ2M54iK+uKfQosW4nxWKE5+txDvjBiKocPG45P/HcWNVK76bAWS/jiAjXP+D8Mcp+GLfdeQVKHUAaNZcOl/YKvbAHR5xQV7E+TKp58aXhaJo587wtZ2JDYGVSqffkp4pOydgUGD5+JwNv+cxmjI89KPZnjkhu6Hxwhb9HhzC0LVilaE3z/uh55jNyG0WPlcc+AhizyKzx1tYTtyI56TKhVw6fhjqxsGdHkFLnsT8FdplPECYTZ/rvwVebC5tHTebOn+ng0OD32WwX3zOYScWY0x3WzQs5fN88+dqqhMxvVDX2HuW8MwZOhwTPj4a+y/GIdnuh38Z2lYX/zTaNFCXGg5EC6fzYP9k3CE5Uowbf4HGGYtqj6rB9vRH2LJpE4o6+qKVXMdYaun1AGjWYg6jYbH3BFoQ6R86pkQmtnBddFESFq0XyFs5v2EkOB9mNle+JzGaMjz0o9mhLAY6IaF47opn2hIyXX8fsMS7lsWY6CJ8snmIISZnSsWTZTguYsp6oTRHnMxog3heQ/FaEl45N2OwIOaZyLNgdkcAMDn3UbEUylQM88zDz7tnFs6b7Z0f88Cn3McixfF4bUlHvDY/AuOrngDDv2tm5k7nyGe6qPbFaPcFuP9LukIuyXAyOXLMPutV/BMt4P/EA39u2F98U+j5WcsaIs25gIITMxgpqJ3YStzdGzbBmLlE4ynQmRmBlOB8tFnR2hqAqOW7tfIGnb9OkG/+s/nMoYSz0s/mhHBxMQImoatjC/Aq98dgUefGm08C0KYahmvxRCZweyvVyjjWSgNw3drDuH+0z6M/M/bvBRh363BoadWoGaeTx58tjm3dN5s6f6elsrQqwgqNYKpPgBhGzh+eRTfj7FoXu581nhqgAim5qYQCkzRuo2KgomhBhX+rVRf/JP4G1i+FGkxiSjggcqcOAQHxyNXycHlBfcRdv0a/G8lQ6b1U2gZMmNuwj/wNlKL639FUYb0aMU6ME6WjIjgSKSVVp+qzEF8cBDuZtZfXcSj+GEckot5cNIkhAaGIUlp8LK0GCTkcSjPvIvwhELUni3LRMxNfwTeTkWDKfAyPAgLwI2oNBQVZCKrZvxmyyhHYVI4AgIjkf5E+Rw06KAxascVCtQkp1JkRAchMOQecisqkZOcgmI+C1FX/ODr64cbCTLw4JB5+xJ8fX1xKfQhymrbliMjOh613xypGaMsMwY3/QNxO7W44ZrUsjTEJOSBK8/E3fAEFKrV07Pqh0fhvUD4+frC19cXfkGJKOIBFCfh5iVf+PoFIbF2raPqvgSCOskqs2NxU8mvdQfMxryXs5GotDCxMjcBIf7+CEuSKvypiboV1huvDg7S5AjcCAxFQq7y9648ZA/CEHAjCmlFBcis74wqkBcmITwgEJEqFapaBwDAyx4gLOAGotKKUJCZhfqjqLWzvAD3w67jmv8tJGsPBqAyFwkh/vAPS4JU+XJOiuSIGwgMTUAjFZSmISaxADwqkRMXjOD43MZLLzS1h5ax1eWBJvuxOr1qz5k18Hmh2DHzA2wNT0HUZT9cj82r1TUnTUbEjUCEJuRClWiaba69fX3K0qMVa6A5GZIjghFZl3yREx+MoLuZKtZ2avLf5uZzBep8rjQtBokKhSIuOBjxNQrl8xC6YyY+2BqOlKjL8LseW2/fh6b5qUKNPdXkQWXUzb1RjGmYs9p8rzirJW82V15t/anRRyMa5yo+KwpX/Hzh63cDCTIe4DJx+5IvfH0vIfRh3R2njgqkhV/C5dAHKOLyEX/VF5eCk1DczNypNp6am7MaoWoOSjRzDHX+0txY5IsfIi65GDwnRVJoIMKSZHW1DjTlM3X2bWzPWpoio1r/VqovqlGnB7UxXw91bVuaF1iI88gLP4yFo2whGeuFE/vnweltV0x/uz/6OHsjiQMADslHZ2Lgu9/hbn42gr2cIBm6HiGq4gwAn+WHDXMXwzsgGrdOLsZQyXCsvpqH/IijWPyGBN1HrIPPqbWYNtUNH747CD0HLoZfxBF8Mm4SZn00GQN7DsPakDJw6YHYOWcArHu5Yuex9Xjz1dcx5o1B6CkZDc+bReBzQ3FgwSjYSsZg3Z7NeG/oYAwaMAtHCnhk+W3A3MXeCIi+hZOLh0IyfDWuFvBAZTR2uHngeLoc5fEHMG3ge/gxRd5sGVEWg73TnTBnfxQyks5hlYc37tfzV9U6KFDhRM0cF0BZ3CG4vz0dmy/FISFwG6badUGvSXuRwLdG5445+GneRMzdHw85RGjdyQKJO6Zhwuc+yOR4SCNPYNmbtug2fD0CG98fFfBZ8NswF4u9AxB96yQWD5Vg+OqrKJDnIvTAAoyylWDMuj3Y/N5QDB40ALOOFCj30EL6EcKojR4SfpiN8RM34Y5ZBxgJARi+BOPw7dgaIUZrQ2ET+qrEw58XYco0d8ybaIc+k/bhAQfw0kicWPYmbLuNqFsXyufBf9MMuP3vKlJzo7FzggQOHmeQBW26rZt1A2Sh+NbNBSt8YpCWeBaLh/WCk+f16oRViegdbvA4ng55eTwOTBuI935MaVyEAgDKELN3Opzm7EdURhLOrfKAdz2FatJBZfQOuHkcR7q8HPEHpmHgez8iRa7BzjzAJR/FzIHv4ru7+cgO9oKTZCjWq3VKHnn+mzDD7X+4mpqL6J0TIHHwwJkshQVkod/CzWUFfGLSkHh2MYb1coLn9TzwfB7CDy/EKFsJxnqdwP55TnjbdTre7t8Hzt5JtTcZte21jq0mD+RlN9mPVes1Dzlac2aDXiDLLICBuTF4vgKlMhmKyuQAZAj91g0uK3wQk5aIs4uHoZeTJ67XVpiaba69fR18YQSOLn4Dku4jsM7nFNZOmwq3D9/FoJ4DsdgvAkc+GYdJsz7C5IE9MWxtSN2HdrX+y6OwmflcMRHVPpeXE47DC0fBVjIWXif2Y57T23Cd/jb693GGdxIHXpaJAgNzGPM8KkplkBWVKeJE7fzqZK+Pansq5x01qJm74rbSOMaS81XNWUu+15I3myuvtv6arg/VuYpv3Rkdc37CvIlzsT9eDohao5NFInZMm4DPfTIbFooAAEJlaRFkpVUAVaG0SAbZ43JwjQfUIKvqeGpezno6mjWGGn/Jy29mLHLpCNw5BwOse8F15zGsf/NVvD7mDQzqKcFoz5so4tXfl9XbV7U95c2QsXFMliBfVX2hTg9aYl5T2wJV/tISUEvD5dDuN3VJx96TYquUTxJV3FhKE1aEUAUREcnpwTdDSNfUgRacSaYKIpL9Oo0s9IbSNw/kRPJ79NXrhmS/PoaqiKgqfCX11u9PayJVdMzl0Ilpo2hFqKJn4lJp+whd0rFbQ5FVHGV+70h6hgNpZUAWyYmo4s6X1F+nFQ1afpkeVRFRVSR92V+Punpcp3IiqgheQj10LGn0Wj96VEVUGr+PJlmJSNd+Hd2tIuJSt9NIXQPqs+Ay5Urj6KrfXcrLOkHTRq2guilspxG6OmS3JpJKg5dQ7/7LKfQJERFH2cc20s64qubJSKUUtLQvdZ11hqTVR0rOzyYrnZdpaUiFFh3U74e0j/v4II3XNyfXX58o/i7+gxb2tqOlN0urO6ig4CUvk17vlRReRUTyeNo4QJ96LLlZbdsKurmkBxkM+pr+lBMRcZS1y5H0TKfQyZouGozBUc6JaTRqRWh1e45St48gXR07xZy4VNo+UpcM+iygy7lSirvqR3cLuOqOamhB/RBRVcwGes3AimadkSkOcJl08NOl5Fuszd+Icvc4kb7JIFodkEscERX/PpMs9UfQthTFnLmsXeSoVyd71nEXsnXaRakcEVEVxX4zglp3mEmnS5qiW6LHB8eTvrkrKcwlpYsfSajnwgCqth6VBi2mnrqWNPXnbOIqgmlJ7/60XOGMxGUfo40740iFCqg0aCn17TqLztQplGZb6dDLS0OoQqMOKih4SW/qvzxUMQcum45t3ElxVZrsXE73vnqdDO3XU4zCKWllb33qvyZS5dy4rOPkYutEuxRKo6rYb2hE6w4083QJkfQifSTpSQsDajVAQYt7kq7lVPo5myOSP6BvhuiSqcMCOpNcQUQy+nWaBekN/YYeyElre01jcznq80BVU/xYo1615MxGKHKfvtUculiuOCK9+BFJei6kOtGCaHFPXbKc+jNlc1ps3oT2ynCZ35OjniENXBlAWYrkS1/216FWg5bTZUXypcgv+5NeVw+6Xk7a/bdapqbnc00+V0XyB9/QEF1TclhwhhSu8CtNs9Cjod88IHnN/PWtaE6NArXOTwmN9lTOg8pomnupmhhTMWeN+V5L3myuvNr606aP+mjIVfL4jTRAvwctuVndT8VNWtLDgAZ9/SepigQiotKfJpK+mQv51NyDmps7G8WTvFk5qzFVdGt1H9LRG08HHyufq6E5Y2jyl6rmx2JFMC3poUOWo9eSn6IQon2TrEika0/rFIVQ43yWl6XevqXq7NkcGVX4d6P6QrMeNMe85rbPg5Z/Ii4UVH8tr2ZzD88BopphRTA2NoLIpD+cnLpAF4CRpDs6CYsgKyRAJIH74UAc87BBuv8BbD4YCilfgSflKj6WlPnjtF8G7p/fCi8vL3htPoYnTuvgOcMeBhDC2MgQAt0ueNWhPUQAdCW2sBYDnV4dAisxALENrDsIUCSVggAIDQygL2qHwRMdYSUGDHu6Yf3c/qCYAATk8BAaGEBXaAoHx2FoZ9YLjk59oR94Gn4Z93F+qxe8vLyw+dgTOK3zxAx7A4itJLBO3YYJw2fiq1Nx0HFZjc96iZsnY4kfdh9KRp+Ro2BWfUi/iw0sa/bDatSBEs0ZF0DRhT04Wvw63rQ3rD4iQqtWxs34SkUIExNjDV/AlcH/tB8y7p/HVi8veHltxrEnTljnOQP2BgCEBjDQFcLUwRHD2pmhl6MT+rZWGr0l9QNA3Gs23N8ow2lvH2TwAHf/BMJemoLRxk3sy/BlvD6gHYQA9Dt3hgVkkEoV+hWamMC4dvpS+J7wg56dAxT7TMR4ZYk/CjIOwdmo5ppmUHgO+35Oh20/u9r1coavu8BZko/zx30hE1tBYp2KbROGY+ZXpxCn44LVn/VSsW+jBH67DyG5z0iMqlMobGoUqlEHYlhJrJG6bQKGz/wKp+J04LL6M/QSa7KzCBL3wwg85gGbdH8c2HwQoVIeFU/KVTwpA6S+J+CnZweH6s054leWwL8gA4ecjVB4bh9+TrdFP7taDeB1F2dI8s/juK8MEBnD2EgEk/5OcOqiC8AIku6dICySoZCgtb2mscv81eeBJvmxRr1qyZlaKcS5fT8j3bYf6kR7HS7OEuSfPw5fmRaba21ffaweQmMjGAp00eVVB7RXJF/YKpIvhiiSL2ysO0BQJIWUmuC/zc7nmnwOEBkbw0hkgv5OTlC4ggTdOwlRJCtUfQ/TOj8lNNpTG5rmri7GlPvQku+15c3myqutv+boo8m5qoVorqxoXs56OpozhiZ/eYpYFBrAQF+EdoMnwlFRCMFt/Vz0pxgEBOSAV5XP9APV21etPZsjoyqU6wvNetAc85rbPg+egz8bwFBfCCorRakKDfLFJYCRCWpisv5aWgAQiEQQgMATAAghfhKFHXO3o/U7i/CJeyZ+P3iswfU18MV5KHiih4HOS7HSvrFYJcrrwARCCBqkWQGEQmjYPS1Gt1e6wwiPUFFBgK7yqi4exXkFeKI3EM5LV6LxFLrjyBUR1i7zxKYpx7Hd4RPs/WUbJnUWNVlGLj0Bf8qAjmLV5a82HTSk6boFOGQ+SEGJuD101FfSWhEINKyF5IuRV/AEegOdsXSlvWrHVNtYQcvqB4DQElPc38W697yxP9YVY357gN4zFkC3CX3lKR8QCSECB3lV9d/1dcEVIDe/HLJCxYfAZ4XLScOjMh6tK8uBmj34YhtYWwlRKZPiMTpj9pErEK1dBs9NU3B8uwM+2fsLtk3qXBuXio7SkaBQqMoPXNp0gNlHcEW0Fss8N2HK8e1w+GQvfvnfQM12Ln6CqB1zsb31O1j0iTsyfz8I1V7JoSA3H+WyQsUNQ+lcTtojlPGt0VAF1rASVkImfQweRmiYEgQQiQQA8SCt7aXIq1Q3trY8kKfVj7XpNU9jztQCl4O0R2XgW1eiTjQxbKytIKyUQSpNRaYGm2tt/5gHlD9YNIp7AYQCNMy+9ZKvVv/lgbbNyefackue0vwEIihcQbVCmzK/+irQZk+NaJt7dxUxtm0SOipfpyHfa8ubzZVXW3/N0odQfa56HjRFVuWXvQnFTc1ZT0+Tx9DmLyXNi0VViLu9gu5GwKOKClDjQkirfbursaeoqTKqoUF9oU0PmmJeW9vngOpIeSZ00aVrJwgy7iOxRPkch5ToR2jdQ+mGr46Si1g0cRUKJn+PDa72sKjRiAofEZp2gKVhAnz2X4O09iiHZN8LiFa9+LUJEKjeh4mqsnLwFj3Ru4Oq2Qth2sEShgk+2H+tbgbgkuF7IRoV6bF41MkNO64lIO7cKvRN2w2PTVdR0QwZBa3borW4HLG3o9DwFewEnm+mDpoxLiCAmXkr4FEEQh82Xn2nQASxSMXNi0jFej0VCE3RwdIQCT770VB9vrjQaPKqaVH9VGP8pjvcJHE4uM0TJ4pGYGpXhe2fpi+1iF5CZysD5PiexKXCmoM8Cny9cSyRa7ZuRR26o5sph7iI23VrbvlKVFQK0bGfHSwpHbGPOsFtxzUkxJ3Dqr5p2O2xCVeV3+svaI22rcUoj72NKKVzxPNadMAhPfYROrntwLWEOJxb1Rdpuz2w6Q89DXaW4eKiiVhVMBnfb3CFvUanFOGlzlYwyPHFyTqlgS/whfexJLzUvRtMuThE3K5bY8hXVqBS2BH97Cy1JD4ROmhs3xGWasf+E0Ya8kBTXEOzXhtc2nxEHdC9mym4uAjUicajsqISwo79YNehrUaba21vqVmzTUGr/zZ3iBbILfVp7vyeyZ4a516hOsYaBbLmfK8tbzZXXm39NUsfnIZcJRJDpOIDKJGqrNg0misrUNKMnNVcODw4fghXS5sxhkZ/UVZu06GGhRDKeQv07N1BZR2n0b4V6uzZDBmbwrPo4VnaPiWN3OrZ0cXA2R9hiPAqdnx1DTm1MVGJzOteWHatN9zerPm+nQfHyUF8vWAiAogHz/Pgix4gOacEaYkPUVKejoBzIcjiylCUFYWwWKUq32gMZrl2QYq3C0ZO88SPPqdw2GsOlgcboasY4Hhe0W9tAwJA9T74Kf6f5+vvKMlDakr1OHwmzp6NRm/3TzC6+jsrghxV9exiNGYWXLukwNtlJKZ5/gifU4fhNWc5go26QpDugy3ed1AGfdi8tQpfTraBoZ4+qBkyCtuNx/RxbZG8fxFWnU9DJSqQeicWuZwUGanZKBJo1kF9tOqW48CBwPM8ACEs/u8djDQIw9fTPsHuS+G4/cchHPwjq64QFFnAqr0uMkIv405OLu5d2I1DNwsgz0vHw/xilAPgOR5U3wYNxjDCmFmu6JLiDZeR0+D5ow9OHfbCnOXBMKqZPAHy+gpXoiX1U4vYDrPnDUPB8VOg8ePQpua4Rn9T+K/i6Wp9qo8DAM+BB4EnHkArjJ01BZ2yj+CjdxbiB5/fcGzrp3DzEWOwrahJuuU4rjpuALQah/nufSA9tR0HEhWbQfnsK/BPH4L5nwyDHpcOny3euFMG6Nu8hVVfToaNoR70lZ/UCtth/PRxaJu8H4tWnUdaJVCRegexuRykGanIlg/RoAMO6T5b4K0YBG+t+hKTbQyhp2+s3s42pXiQnIOStEQ8LClHesA5hGRxKCvKQlRYrNLkgFZjZ2FKp2wc+egdLPzBB78d24pP3XwgHmyL1uPmw72PFKe2H4BCBTyyr/gjfch8fDJMD+A5cHKF/humHoUOW2lpr2lsUw15QAztfqzNtzTlzMYIoa+vBzzOQmZhHsKCUjF6vjv6SE9h+4FExdtO+Gxc8U/HkPmfYJiBFpsX6WCcpvbKjwsBgOMVvl5vegSA6j11I0XyVeQTbf6L5uZzzbmF5zjIia/3QZdA1XmJByDU14ceHiMrsxB5YUGI1tE+vwZotKdyHlRG09wFamJM0GjOUdnq8/2tnNGa82Yz5W3RPKwhV4ksrNBeNwOhl+8gJ/ceLuw+hJsFcuSlP0R+seo3AlRWVoEqK1FRT9XNyp3K8RQYgnuachZfgCvrXfD+xuv1itL68KgsrwTREzwpa2j/stg9WBdiAHuDombkRU3+Im5+LAIAeOSlpkBRjfDIPHsW0b3d8UldIdQwn2nyd4Eae1JzZFQRk2XK9YVmPWiOec1tnwvKi8ZbBo7yb35P897oRz37DyHHN8eQ44hh9Mb0r+hyWt1id1n0KVrlaEEiHQlN3XqR4hJv0IH5g8lMaEh2c/ZRUHo6nZ4/gNqbmFO34XNo9/WfyM3ajLqO20Ih1fvnGlAaT0c9RpOtuR7pmnamIfMOUWwpUUn8WVo71opE4q707uZzFJMaRb9tmECdRWLqOsmLfr/7kCJ81tBbViISd5lEXr5JVBr5JfXTtaSBU+bQp4s+p08/mEQuX5yjVDkRV3CHTqx8gyxFIrJyWk0nIvJrN6yUxh8lj9G2ZK6nS6adh9C8Q7FUSkQVN1fR4G796Q23ZbTOcwXNm+dF17I5Ii6jWTJy0nDa5TaQrM3NyMZhPH22bjYN7DKIXL84SCFZnFodNELTuNkJdH6NE7UXicjaeROdiX1MRHLKvLyWxvdsR8amNjRqkQ/5rnUgg5rNmkT0OGgjjelsSqZWdjR5y3W6uNSeuo+YSeuO3qLU2HO0dmwHEoltyHnTBUqUqRqjlOKPetBoW3PS0zWlzkPm0aHYUiKugO6cWElvWIpIZOVEq09EUH7jHUJELamf+kh/o9njPOmu8j4NNX3J7v5Cy0cp/Nrlm/MUmxBI+xcMITOREdl/dIBCH8TSubVjqYNITF0mfUUXE8sVsh/zoNGSdmTSyoocXLfSjdw6ITXp9lH8eVrj1J5EImty3nSGYh8TUVUKnV09geztRtLUuR/Th9PdaVtAjsJPK27SqsHdqP8bbrRsnSetmDePvK6p2nRFRJyUwne50UBrczKzcaDxn62j2QO70CDXL+hgSJZaHRBV0M1Vg6lb/zfIbdk68lwxj+Z5XavezKfGzsRRxun5NKC9CZl3G05zdl+nn9ysyazrONqiKhiIqDT+GHmMllA7k1Zk5eBKW28oNscSEVWlnKXVE+zJbuRUmvvxhzTdfRsF5HBEJKPoU6vI0UJEOpKptPViHCXeOEDzB5uR0NCO5uwLogxOU3vtY6vMA83wY3V61ZozMxp3KE86SO9LzKmNxJm2hhYTURWlnF1NE+ztaOTUufTxh9PJfVsA1Yqmzeba2tenJJ7Orh1LViIxdX13M52LSaWo3zbQhM4iEnedRF6/36WHET605i0rEom70CQvX0qq0Oy/T5PPK9T5nCyaTq1yJAuRDkmmbqWLcYl048B8GmwmJEO7ObQvKINInkQH35eQeRsJOW8NpWLSPD+VqLEnPVGVB5VRM3dNMaY8Z035XtaEvNlMebX2p04fymjMVY8paOMY6mxqSlZ2k2nL9Yu01L47jZi5jo7eylfqqIqSr/1A84e2IaHQgkYt9aZfQh5RSUIzc2ejeCrSnLPkSbRr7EvUftweSlbeQVrxgK4f9qLJEh0SCHTJst8ocho7lsaOdSLHoX2pg6EZOR/KfYq8qMZfniYWSyPpy366ZDlwCs35dBF9/ukHNMnlCzqnKITU5zN19lVrz2bKqOTf2fFK9UU5qddDU2JeXdvnhIDqfxRi1CKPWgOHQWcwPvg2Ntg9p09B/2g4xG8cCIeTYxAQ+RVeYypiMBgMBuPfgzwKaxwG4cz4YNzeYPeXrJf+L/Iclqb8y1D1bSGDwWAwGAzGfwJWCD1PWCGuBnlhIR5zRSiQNuUXxP6LyJGfXwR5iQyPNSx3ZTAYDAaD8Q9EXojCxxyKCqRafz2X8fSI1q1bt0754H+diqQrOHw5Fx1ffQXGhWmgDn3R1VzV/uD/Khwybh6D3yML9O9lAmm6AB3728CMfaxjMBgMBuOfT0USrhy+jNyOr+IV40KkUQf07Wqu8k0pjGeDrRFnMBgMBoPBYDBeAOwZJoPBYDAYDAaD8QL4SwpxvjgZMUmy2uX+pamRuJuu+j2f/yr4IqREBCEkNhvlKEVq5F00Vez/jI6aQmkqIu+mQ702eBQnxyBJ9l/cUPJ8ZS/PiMG9nOfTt0a02vxpaV4c/jsoR0bMPbwIMzIYDAZDM8+3EOfS8cdWNwzo8gpc9iYoflWOT8HeGYMweO5hZP+LbwzcQx8sc9+McyFn8IWTBL2d52HywMGYezhb+/7j/4iOmgaPlL0zMGjwXBxWoQwu/Q9sdRuALq+4YG/Cf2vX6POUnZdF4ujnjrC1HYmNQX/1Nh3NNn8W+JS9mDGoiXH4d6EyGee+/hyLPI/gVh4PcBmIjMxU+auqDeEhizyKzx1tYTtyI/5yMzIYDAZDK8+3EBd1wmiPuRjRhup+YVBog3k/hSB430y0f76jvzj4HBxfvAhxry2Bh8dm+Py0FIMsh8HrZjD2zWyvXen/BR1pgM+7jYgHNWWGEDbzfkJI8D7MVKEMUafR8Jg7Am3+qVsd+DzcjnjQhKKqMc9TdqGZHVwXTYREW9/PMH/1qLI5j7zbEah1i6dEaDMPP4U0MQ7/FvDIO3MUf8h1kXbSA8P6DcH7c5fhVLphEzZNCWFm54pFEyX1fnGSwWAwGH8nnv+9SGQGM9OGv51tZG2Hfp2qfx7130hlKK4GlcLIVB+AEG0cv8SR3e5wdOiHpor9r9eRWkoR9t0aHLpf/ydzrWHXrxPUaUNkZgYlF/vHUBr2HdYcuq/4tugpeJ6yC01NYKSl72edv1qUbV4ahu/WHEJ9t3g6jGBt1/Q4/Ftg54ovVn2NU3eicWWzK4aNW47F48yUr1KDEKYmRtBiRgaDwWC8IJ5bIS4vTEJ4QCAi058onwLKMxAdnw0ePArvBcLP1xe+vr7wC0pEEQ+gOAk3L/nC1y8IibVrX8uQGXMT/oG3kVpc/0vlMqTFJCCPK0fm3XAkFCoemfGyBwgLuIGotCIUZGahtOZyeQHuh13HNf9bSJY1fLymto0qOCmSI24gMDQBufW+8q1IC8ely6F4UMQhP/4qfC8FI6lYca48IxrxSl+1V+YmIMTfH2FJ0oZPFWt1VEMp0mISUcADlTlxCA6OR65SUSIvuI+w69fgfysZDUXjIXsQhoAbUUgrKkBmlnrJytJikJDHoTzzLsITCuvmVJaJmJv+CLydivrq54sfIi65GDwnRVJoIMKSZEpPR+UouB+G69f8cStZ+ZyS7fKzEbpjJj7YGo6UqMvwux6LPB6KNa7R8UrLdOQoTApHQGAkVLnYs+uCR/HDOCQX8+CkSQgNDEOSkr8AACdNRsSNQIQm5DZ6z6paXQKKJ52hOzDzg60IT4nCZb/riFUIC4CDNDkCNwJDkVDfuWrRLLv29sqoiS2hQEMBp2n+avpTtnd1rKrWU53N+bxQ7Jj5AbaGpyDqsh+ux+bVxYWaOAQAlKUhJiEPXHkm7oYnoHo4lXGoyY6qKMuMwU3/QNxOLW6wxEVdDnn6OBGinaUuMv8sAK/XHpJX7dH/5fYwUc7cGvQgFKi3IoPBYDBeLMrpvAUoQ8ze6XCasx9RGUk4t8oD3verbyu8FJEnluFN224Yvj4Q5RDCqI0eEn6YjfETN+GOWQcYCQEYvgTj8O3YGiFGa0Mh+Cw/bJi7GN4B0bh1cjGGSoZj9dU8ZIcewIJRtpCMWYc9m9/D0MGDMGDWEWRF74Cbx3Gky8sRf2AaBr73I1LkAJd8FDMHvovv7uYjO9gLTpKhWB9SBgCoVNNGFbLQb+HmsgI+MWlIPLsYw3o5wfO6ojigylIUyUpRBUJVaRFksscoK7iNE8vehG234VgfWL1LjM+D/6YZcPvfVaTmRmPnBAkcPM4gS66sIx554YexcJQtJGO9cGL/PDi97Yrpb/dHH2dvJHEAwCH56EwMfPc73M3PRrCXEyRD10MhWiWid7jB43g65OXxODBtIN77MaXRE0w+NxQHFoyCrWQM1u3ZjPeGDsagAbNwpIBHlt8GzF3sjYDoWzi5eCgkw1fjam4qAnfOwQDrXnDdeQzr33wVr495A4N6SjDa8yaKAIBLxtGZA/Hud3eRnx0MLycJhq4PQRl45Kqw3WvT9+KhgTmMeR4VpTLIikqQH3kCy960Rbfh61GjOpTFYO90J8zZH4WMpHNY5eGNGhdrCV1w6YHYOWcArHu5Yuex9Xjz1dcx5o1B6CkZDc+bRdVXyRD6rRtcVvggJi0RZxcPQy8nT1zP4zXost4gvAyZBQYwN+bBV5RCJitCmRyALBTfurlghU8M0hLPYvGwXnDyvF79gUSb7E1or4Tq2CrQvn5azfxV96c6Vl9zXYcdjfTkhj3X69uchyyzAAbmxuD5CpTKZCgqU1hMbRzyuQg9sACjbCUYs24PNr83FIMHDYDbnuuN41CDHVXCZ8Fvw1ws9g5A9K2TWDxUguGrryo+IKvKIRXpTx8nfB7CDy/EKFsJxnqdwP55TnjbdTre7t8Hzt5JtcW6Wj00nDmDwWAw/o5QC1MatJT6dp1FZ6TVB0rO02wrHXp5aQhVEBFxWbTLUY9Mp5yk0upLqmI20GsGVjTrjExxgMukg58uJd9iIuJy6MS0UbQitKL6XCptH6FLOnZrKLKKo9TtI0nXoA8tuJxL0rir5Hc3i4KW9Kb+y0PpCRERl03HNu6kuCo53fvqdTK0X08xVURUFU4re+tT/zWRVEUVFKyyTfUE6yO9SB9JetLCgCfVB0opaHFP0rWcSj9nc9WHfqKJ+mbk4lMjIRGXtYsc9UxpyslSIuIo67gL2TrtolSOiKiKYr8ZQa07zKTTJap0JKcH3wwhXVMHWnAmmSqISPbrNLLQG0rfPJATye/RV68bkv36GFKItpJ66/enNZFVRBXBtKR3f1oeqpgvl32MNu6MI1WicanbaaSuAfVZcJlypXF01e8u5WWdoGmjVlCd+rfTCF0dslsTSVUVwbSkhw5Zjl5Lfo+qiErjad8kKxLp2tO6u1Ukv/cVvW5oT+sVCqfwlb1Jv/8aiqwiIlJluwKqyvyeHPWtaM7F8ppZUdYuR9IznUInS0mh76V9qeusM1TnYrPJSudlWhpS0WK6qAheQj10LGn0Wj9SiLaPJlmJSNd+Hd2tIpJe/IgkPRdSnRsE0eKeumQ59WfK5lTrsqDaPWrhMul7R32ymnORFNJK6eJHEuq5MEDhh0RUGrSYeupa0tSfs4nTJrvW9kpojC0ienyQxuubk+uvNb0poTx/jf2psbdKPSnbnKPM7x1J32oO1bqFtjjkUmn7SF0y6LOALudKKe6qH90t4JTiULsdG8JRzolpNGpFqCKXEUep20eQro4drYksVZ9DniVO5A/omyG6ZOqwgM4kVxCRjH6dZkF6Q7+hB/Im6IGIHh8cT/rmrqTOjAwGg8F4cbTwE/ES+O0+hOQ+IzGqZgmjfhfYWNbbViQ0gYlxw69Kxb1mw/2NMpz29kEGD3D3TyDspSkYbQygzB+n/TJw//xWeHl5wWvzMTxxWgfPGfYwgBAGBroQmjrAcVg7mPVyhFNfC3SSWCN12wQMn/kVTsXpwGX1Z+glFkHifhiBxzxgk+6PA5sPIlTKo+JJOXiIYaWyTYNpAgAKz+3Dz+m26GdXs8jUEK+7OEOSfx7HfWVKV9chNDFBndhS+J7wg56dQ/VmTDFeWeKPgoxDcDZSpSMRjI2NIDLpDyenLtAFYCTpjk7CIsgKCRBJ4H44EMc8bJDufwCbD4ZCylfgSTkPiK0gsU7FtgnDMfOrU4jTccHqz3pBhWgQGhhAV2gKB8dhaGfWC45OfaEfeBp+GfdxfqsXvLy8sPnYEzit88QMewNAaAADfRHaDZ4IRysxYNgTbuvnoj/FICAgBwKJOw4HHoOHTTr8D2zGwVAp+IonKOcBqLRdaxVf0QhhYmJct0SixA+7DyWjz8hRqHMxG9S6WAvqQl/UDoMnOkIhmhvWz+0PiglAQE4+zu37Gem2/VDnBq/DxVmC/PPH4StTrcvWjYVrSOE57Ps5Hbb97GrXRhu+7gJnST7OH/eFTJvs2tpXH6tFY2w9BRr7U21vsUo9KdlcBVrjUGgAA10hTB0cMaydGXo5OqFva6FSHBZqtWNDyuB/2g8Z989jq5cXvLw249gTJ6zznAF7Aw055FniRGQMYyMRTPo7wamLLgAjSLp3grBIhkJqgh4YDAaD8bdGW2nQPLh0JPwpA0RiDR0LIFBesyi0xBT3d2Fy3Rv7Y0sR/vMD9J5mB10AfHEeCp7ooafzUqxcubL234qFE9BDrOhPqTN0nn0EV/a4wCRgE6a82gODF5xGGgcIxU8QtWMu3A9kot+H7hhtKax+m4v6Ng3hkJP2CGV8JSrrvYdYbGMNK2ElZNLH6r8OFghQKzZXgNz8csgKpXVvk2lAYx01+lskggAEngBACPGTKOyY644Dmf3woftoWAqrexZ2xuwjV7DHxQQBm6bg1R6DseB0mtq3XDQchUdxXgGe6PWE89I63a9cuQILJ/RQWcCKu72C7kZAVUUFSCjGk6gdmOt+AJn9PoT7aEvUTEuBsu1UIxDUrVXm0hOgcDF1HtZyumiIGN1e6Q4jVKGiLBtpj8rAV1bWe8+1GDbWVhBWyiB9rPCCpklXB5eThkdlPCobOhesrYSolEkhTdUsu7b21dOqRXtsNQ/t/anWiKqj9W3emCbGoaoOGsRhTpPsWAtfjLyCJ9Dr6Yyl9eRbuWIhJvTQbWIOUdD0OKk33+q/RSIBQDyoqXpgMBgMxt8W1Xf0p0XQGm1bi1EeextRFQ1PEa/5lmD8pjvcJHE4uM0TJ4pGYGpXxWM+oWkHWBomwGf/NUhrr+aQ7HsB0cqLewEAHNJjH6GT2w5cS4jDuVV9kbbbA5uuFuDioolYVTAZ329whb1FTaVBGtooCQEROnTvBlMuDhG3FWvLAYCvrEClsCP62Vk2TaGil9DZygA5vidxqbDmII8CX28cS1Rz59ZEyUUsmrgKBZO/xwZXezQULR2xjzrBbcc1JMSdw6q+adjtsQmNRFOJEKYdLGGY4IP91+q0Dy4Zvheia9dWE9WzbVUZynkL9OzdAU8uLsLEVQWY/P0GuNpb1Bbuqj98NA1B67ZoLS5H7O0oNBSBwPMtrQtCQ9HKwVv0RO9OndC9mym4uAjUuQGPyopKCDv2g51lk7ygEaIO3dHNlENcxG3UdVuJikohOvazQ4e2mmXX1l55Ws2PLc20dH/qaak47NA8OwpN0cHSEAk++9EwHHxxIbpCaw5p+ThpIT0wGAwG44XRsnla2A7jp49D2+T9WLTqPNIqgYrUO4jN5SDNSEV2URkAHhxPjQtzsR1mzxuGguOnQOPHoU3NcaMxmOXaBSneLhg5zRM/+pzCYa85WB5shK5iKG5X8qp6G+44pPtsgfedMkDfBm+t+hKTbQyhp/sYD5JzUJKWiIcl5UgPOIeQLA5lRVmICotW3Ua/8SO1VuPmw72PFKe2H0BiJQDwyL7ij/Qh8/HJMD3FRZWVqKJKVFbUk5HnwFN1sYhWGDtrCjplH8FH7yzEDz6/4djWT+HmI8ZgW5EKHfHgODmIr3kCDoAIIB48z4MveoDknBKkJT5ESXk6As6FIIsrQ1FWFMKiE+GzxRsK0d7Cqi8nw8ZQDypEAwAQ5KiqVzQZjZkF1y4p8HYZiWmeP8Ln1GF4zVmOYKOu1QUDj7zUFJRU/3/m2bOI7u2OT0brouhBMnJK0pD4sATl6QE4F5IFrqwIWVFhiC1RjNbQdoBQXx96eIyszELkhQUhugzgOR5EPHgAwnbjMX1cWyTvX4RV59NQiQqk3olFLidFRmo2pNktpwvweUhNUUgGPhNnz0ajt/snGK3fCuPmu6OP9BS2H0hUvGWDz8YV/3QMmf8JatxAWZeNEOpDXw94nJWJwrwwBKWOxnz3PpCe2o4DCucCn30F/ulDMP+TYTDQInuRzjiN7aunVYe22OI4cCDwyrFag/L8HwzR3J8KeyuONtZTfZsDQugrBkJmYR7CgqKh05Q4JEDeuOMGcdgUO9ZhhDGzXNElxRsuI6fB80cfnDrshTnLg2HUVaAlhzxlnDzmwMkJPPG1hbki9HnwfNPyEcdx1blCcb7gynq4vL8R1+t9mGAwGAzGC0J50fgzw0kpfJcbDbQ2JzMbBxr/2TqaPbALDXL9gg6GPKD4c2tpbAcRiW2cadOFxIZtpb/R7HGedFd591xpPB31GE225nqka9qZhsw7RLGlHBXcOUEr37AkkciKnFafoIh8jogq6OaqwdSt/xvktmwdea6YR/O8rlE2x1HG6fk0oL0JmXcbTnN2X6ef3KzJrOs42hKSq6aN0jyqqUo5S6sn2JPdyKk09+MPabr7NgrIUVxclXyNfpg/lNoIhWQxail5/xJCj4ri6dzasdRBJCYb5010IbGciEop/pgHjZa0I5NWVuTgupVu5HJEVNJIR7LoU7TK0YJEOhKauvUixSXeoAPzB5OZ0JDs5uyjoPR0Oj1/ALU3Maduw+fQ7us/kZu1GXUdt4VCcm/SqsHdqP8bbrRsnSetmDePvK413rjHFdyhEyvfIEuRiKycVtOJiPzaa0rjj5LHaFsy19Ml085DaN6hWMUm0qpI+rKfLlkOnEJzPl1En3/6AU1y+YLOpcoVfWacpvkD2pOJeTcaPmc3Xf/JjazNutK4LTfpoUrbEZE8iQ6+LyHzNhJy3hpK2fHnaO3YDiQS25DzpguUWE7EScNpl9tAsjY3IxuH8fTZutk0sMsgcv3iIIVkPLsuiIiqIr+kfrqWNHDKHPp00ef06QeTyOWLc1QtGhFVUcrZ1TTB3o5GTp1LH384ndy3BVAOp1mXDZFT0sH3SWLehiTOWym0mIiqUujs6glkbzeSps79mD6c7k7bAnJq22uUPYvT2r4RKmOLiJ4k0Pk1TtReJCJr5010JvaxckvV81fZn+pYVaenEhU2lycdpPcl5tRG4kxbQ4uJNMUhV0B3TqykNyxFJLJyotUnIihf0bGKOFRvR9WUUvxRDxpta056uqbUecg8OhRbqiHvPEucXKGbp1aRo4WIdCRTaevFOEq8cYDmDzYjoaEdzdkXRBmcBj0Q0ZOE87TGqT2JRNbkvOkMxT6WU9KusfRS+3G0J7nWmRkMBoPxghAQsd9cYzwl8iiscRiEM+ODcXuDnco14/9U5FFr4DDoDMYH38YGu3+TZIy/nH9xnDAYDAbj2WjZpSmM/yhqli78G/gXi8b4q2HOxGAwGIyGsEKc8fTIC1H4mENRgbRJv0b4T0JeWIjHXBEKpP82yRh/Of/iOGEwGAzGsyFat27dOuWDDIZWKpJw5fBl5HZ8Fa8YFyKNOqBvV3PUe2P8P5aKpCs4fDkXHV99BcaFaaAOfdHV/N8gGeMv518cJwwGg8F4dtgacQaDwWAwGAwG4wXAlqYwGAwGg8FgMBgvAFaIMxgMBoPBYDAYL4B/VCHOFycjJkn2F7x7gEdRSgSCQmKRXQ6Upkbibnq935DWRGkqIu+m1/vJ7L8/WuXji5EckwTZc1K82vH5IqREBCEkNhvlKEVq5F2ouozxfFCON7V2+rvxD4zB/zr/GN9qEuXIiLmHnOeUL9ES+nqmnM6jODkGSU/X+Nkoz0DMvZy/oAZgMP46nl8hzhUi9sx2LJ03G3M++gwLP1+JLSdC8fDuYRy+rvY3xVXDpeOPrW4Y0OUVuOxNaPTLfC0K9xA+y9yx+VwIznzhBElvZ8ybPBCD5x5Gttbo55GydwYGDZ6Lw9ov/nvAp2DvjEFq5OOQ/sdWuA3ogldc9iLheShezfjcQx8sc9+McyFn8IWTBL2d52HywMGYezibJeFnogI3Vg9Gj+FL4JerRpOq4k2NnZ4fPFL3TkaPflOxN6E57xr5B8bgf52/3LeeFzxkkUfxuaMtbEduRFBz3LY5PJO+ni2nc+l/YKvbAHR5xQV7m9v4WeBliDz6ORxtbTFyYxB7+xDj34XyL/y0BFzWZVo9sgv1fn8HBaSVVx8toT/PfkGjXjKgN3fnKLVoAhVB9LlEj15eGkIVyudaDI6yf5pEHd7aSwVExOVfJc8P3Gn31VsUlfZE+WLVlKTQnag0auLVfwtKUu5okK+Cgj6XkN7LSymkJRTP5VLErSSq/5t+jcbnsumnSR3orb0FRMRR/lVP+sB9N129FUVqp8loGhU3aYnDIFodKFM+0xAV8dbITs8TLoN2v92LXI+lNPCVJvEPjMF/MlxuBN1KaraVGvCX+tZzhaO070aRnrkr/focxXk2fT1bTq8I+pwkei/T0qdp/CxwafTdKD0yd/2VxfY/Do5yI27RM6aJfy0t/0RcHo8d01zwXcVcHD/kgeGd9KpPGMF2/Hqc9P4AZo+lSo2agMgMZqYC5aMtTCVCrwah1MgU+gCEbRzx5ZHdcHd0QL9O+soXq8bIGnb9OqGJV/8tMLK20yCfCGZmpmgpzZeGfYc1h+43+Faj0fiVobgaVAojU30AQrRx/BJHdrvD0aEf1E6T0SS4tFR0XHYc64e1Uj7VEBXx1shOz5OyOPBvH4K3q3XzX/X3D4zBfy6lCPtuDQ7df7ano3+pbz1XhDA1MWqxfKmOZ9PXs+V0kZkZnvutWBVCU5gYvYiBGc9MaRi+W3MIz5gm/rW0+HvEpacXwfV/iRjmeQgL7I2UzgpgZNsdJqUC2Nq2BQDIC+7jVlgUkvIBs/bm0Ff6aCAvTEJEeCxyBQLc/+UgYrq44eMxHRU3Z3kB7t8KQ5SiMcyVG6uEgzT5DiJi0vDEwAJtjapv8xVpCL92E1d/P4Kwih6ws6hEgeAldGqtB5RnIPp+Gdq1M65LXpW5SAi/hdhMOVpZtoZB7dDlyIi+j7J27WAsAIBSpMU8hLxdW4hz4xAWnQ89y3Ywqj/VZsvBQ/YgHGFx+RCa6aBUSjAx0a09W5YZg/DbicgTtEZ7Mz3tCVeVfPJCJEWEIzZXAMH9X3AwpgvcPh6DjjVVUVkmYsJvIzFPgNbtzaBX07A0DTEP5WjXVozcuDBE5+vBsp0RhOCRF7oTcz7wRLBOD/RuLUdVK2tYGAkajF+ZFo5rN6/i9yNhqOhhB4vKAghe6gSFGaJxv6wd2ikUCwCozE1A+K1YZMpbwbK1Qb21VnIU3L+FsKgk5MMM7c31tazD4lH8MB4Z4rYwLXuA8Ft/oryVJVor2YKTJuNORAzSnhjAoq1RgyKxLC0GDyrbwrgoBncydNG+bf35VMNnIerqTUTeT0I21xad2uog6/YVBN39E8kFYnToaA4daNKjdtTrBCCBEXTK0vFIxfyhLd5U+Ul5FmLD7uB+oQCtLMygr+xsnBTJdyIQk/YEBhZtURNuKqmvG9HreGesDQqeSjfKMQgAlchNCMet2EzIW1midV3Aqs8JKuFREBeAwNv38GdSEpILddChoxl0ylIQ9kcIYpIyUGneGRaGyoqohpfhQXgY4vKFMNMphZRMUBe6ZciMCcftxDwIWreHWW1QaUK9XOpzaxnSYh6gsq0ximLuIEO3PdoaCLXmoUZ+xechdOccfOAZDJ0evdFaXoVW1hZQ1ErqZFEzdgPfKsL9mwEIj/sTSUlJdf8e5IBv2xFt9QUaZFMNX/wQ8RlitDUtw4PwW/izvBUsWyvlBE2+WpaGmAeVaGtchJg7GdBt37Zezm9I1d2f8c0lPbyz+F30Elcf1KJbdTTSec2JWn0ZIjvqKm5G3kdSNoe2ndpCJ+s2rgTdxZ/JBRB36Ahzneo2GnO6tnwpR2FSBMJjcyEQ3McvB2PQxe1jjKm9Iaih2fcJTVTh7s/f4JLeO1j8bi/UqbZ5vqCgFBnR4YhKLoWBRSuUpKWDWj3BvabkZkCDf6uhpeP+mfSqnDOArKb6kNq5qq9z+LxQ7JzzATyDddCjd2vIq1rB2sIIAjUx1WR78gWICwjE7Xt/IikpGYU6HdDRTAdlKWH4IyQGSRmVMO9sAfWp+AHCw+KQLzSDTqkUZFSC+Cbbv2VRJ+JTUobAs5eRK5TA4bXWyicViF/G//1fDwAcko/OxMB3v8Pd/GwEezlBMnQ9QspqLixDzN7pcJqzH1EZSTi3ygPe97nabrjko5g58F18dzcf2cFecJIMxfq6xqqRheJbNxes8IlBWuJZLB7WC06e15HHA6BKlBbJUFoFUFUpimQyPC4rwO0Ty/CmbTcMXx9YvfmLR57/Jsxw+x+upuYieucESBw8cCZLDmnkCSx70xbdhq9HYDmPvPDDWDjKFpKxXjixfx6c3nbF9Lf7o4+zN5KqRWm+HJWI3uEGj+PpkJfH48C0gXjvx5TqdbxZ8NswF4u9AxB96yQWD5Vg+OqrKFC3jpCXIrKRfEBZzF5Md5qD/VEZSDq3Ch7e91GneR5Zfhswd7E3AqJv4eTioZAMX42reTkIP7wQo2wlGOt1AvvnOeFt1+l4u38fOHsngeNlyCwwgLkxD76iFDJZEcoqG49PlaUokpWiCoSq0iLIZI9RVnAbJ5a9Cdtuw7E+sHqWfB78N82A2/+uIjU3GjsnSODgcQZZPAAuGUdnDsS7391FfnYwvJwkGLo+BOq0yqUHYuecAbDu5Yqdx9bjzVdfx5g3BqGnZDQ8bxZVXyVD6LducFnhg5i0RJxdPAy9nDxxPY8HnxuKAwtGwVYyBuv2bMZ7Qwdj0IBZOFKgNBAACFujc8cc/DRvIubuj4ccIrTuZIHEHdMw4XMfZFbladajcn/10aQTDfNXoCHe1PhJUcgWOI9fi9AqPRRd+BQDe76GUW++jXc3XkcZAFnot3BzWQGfmDQknl2MYb2c4Hk9T/0a/2fWDa8Ug4pu+Tx/bJrhhv9dTUVu9E5MkDjA40yWYh6acoJKhDAwLsWVL6dgnOtupFi0Uzx5128D0c2NWHW+FGbGatJqZTR2uHngeLoc5fEHMG3ge/gxRfGIiM/yw4a5i+EdEI1bJxdjqGQ4Vl8tUK8rjXKpy608ckMPYMEoW0jGrMOeze9h6OBBGDDrCHI15SE1fpVRmIkCA3MY8zwqSmWQFZVBrlaWPGSrGtttD64r+1blPRze5I2wjELIZDLI8iOwZ+4EvLvyPHJFpEY2JeXUwKUjcOccDLDuBdedx7D+zVfx+pg3MKinBKM9b6I2utX5Kp+L0AMLMMpWgjHr9mDze0MxeNAAzFIZ3Kppfo5Xr/MsuXIsCtG6c0fk/DQPE+fuR7wcELXuBIvEHZg24XP4ZCpiWGNO15Yvy2Kwd7oT5uyPQkbSOazy8Ea9W7EanvI+odyNRtT5ufJ1DSmLOwT3t6dj86U4JARuw1S7Lug1aS8SeC35pyYdqvRvDbHaonH/bHpVnTNyYNYEH1I91zzkaKxzeMgyC2Bgbgyer0CpTIaikmw1MZXbPHsKDWBcegVfThkH190psGin+IZIv40INzeuwvlSM6hPxTvg5nEc6fJyxB+YhoHv/YiUJtr/uaC8VuWZ4NLo21G6BL03aU+u8kkl5Pfoq9cNyX59DFURUVX4Suqt35/WRFYREVFp0FLq23UWnZFWX19ynmZb6VSvWZXTva9eJ0P79RSjaEwre+tT/zWRpGitCild/EhCPRcG1K4vKw1aTD11LWnqz9nEKY7QTxP1yczFh0prmnFZtMtRj0ynnKRSIuKyjpOLrRPtSlW0qIr9hka07kAzT5cQEUdZuxxJz3QKnSwlIpLTg2+GkK6pAy04k0wVRCT7dRpZ6A2lbx7IiZ5GjopgWtK7Py0PVUjBZR+jjTvjqIo4yjkxjUatCK1e08tR6vYRpKtjV6tTlSjJR6VBtLRvV5pVp3g6P9uKdKrXE3I5J2jaqBUUWr08kEvdTiN0dchuTSRVyR/QN0N0ydRhAZ1JriAiGf06zYL0hn5DD+RExGXS9476ZDXnItXsHGg0PhFR6U80Ud+MXHxqjxCXtYsc9UxpyslShZ6Pu5Ct0y5SmKGKYr8ZQa07zKTTJUTye1/R64b2tF6hVApf2Zv0+68hTWqoCF5CPXQsafRaP3pURVQav48mWYlI134d3a0ikl78iCQ9F1JAnfPQ4p66ZDn1Z8rmFHoYqWtAfRZcplxpHF31u0sFChdpjDyeNg7Qpx5LblbbqoJuLulBBoO+pj/lRKRNjyrRrBNt89ccbyrsVBVDG14zJocNcYo13FV36Iu+etRtvr/ieulF+kjSkxbWDUhBi3uSruVU+jlbnWJaQjdKMchl0XEXW3LalaqI8apY+mZEa+ow8zSVNCknqKY0YCFJ9HrS0uBqT+ay6fD0qbQnTX2riuAl1Lv/clKELkfZxzbSzrgqIi6HTkwbRSvqgoq2j9AlHTsNPqtJLo25laPU7SNJ16APLbicS9K4q+R3N5fi1OYhzX7FZX5PjvpWNOdijR40yaJq7ALiGvlWLJ0/n1CdA4sp+At7MjYbRl9Hlmu9b6ikIpiW9NAhy9FryU8R3LRvkhWJdO1pnSK4Nfsql0rbR+qSQZ8FdDlXSnFX/eiu2uAmenxwPOnXrhF/ihyvReeNYpHkFL9xAOn3WEI3q9VecXMJ9TAYRF//Kdea0zXny1IKWtqXus46Q3WpYTZZ6WheI/5M9wm1PKaD4/Xr1og/jS8U/0ELe9vR0ps195YKCl7yMun1XknhVU3IPxr9u26Y+rRk3D+TXjXlDG0+pHGu2uocjjK/dyR9qzlUkyZUxlRuXPPtSaUUsFBCej2XUl0qPkzTp+4h9am4goKX9Kb+y0MVfsRl07GNOymuKfZ/Tqj5vPCUCA1hqCeEgKpQXq7+Mx0AQCSB++FAHPOwQbr/AWw+GAopX4En5TyAEvjtPoTkPiMxyqz6ev0usLGs+RpMBIn7YQQe84BNuj8ObD6IUCmPiifl6j9JFp7Dvp/TYdvPrnbtqOHrLnCW5OP8cV/IlC6vRWgCk3pLIaS+J+CnZweH9grViV9ZAv+CDBxyNgIghIlJva/tIYKxsRFEJv3h5NQFugCMJN3RSVgEWSE9nRxiK0isU7FtwnDM/OoU4nRcsPqzXhCjDP6n/ZBx/zy2ennBy2szjj1xwjrPGbA3UO6kHkrylfjtxqHkPhhZp3h0sbGsXcJQ5n8afhn3cX6rF7y8vLD52BM4rfPEDHsDQGQMYyMRTPo7wamLLgAjSLp3grBIhkJ1v9+qNL46hCYm9ZYZSOF7wg96dg5QmEGMV5b4oyDjEJyNAJHEHYcDj8HDJh3+BzbjYKgUfMUTaHJJoYEB9EXtMHiiI6zEgGFPN6yf2x8UE4CAnHyc2/cz0m37wa7OeeDiLEH++ePwlSna6wpN4eA4DO3MesHRqS9aP210PY0eNeqkUMv8tcWbCjvJU5CcXgmhoPqYuAu6dAIyU1LwBEDhuX34Od0W/eoGxOsuzpDkn8dxX7XRph2tulGKQakvTvjpwc6hveLrP/ErWOJfgIxDzjB62pwAwHCIBz4bmoHD204hhwe4VB9c0JmEyZ3UG11sJYF16jZMGD4TX52Kg47LanzWSwyU+eO0Xwbun98KLy8veG0+hidO6+A5wx5qQ1eTXBpzqxAGBroQmjrAcVg7mPVyhFPfdnhZbR7S5FfKk4IWWVSN3RpCZd8Sv4K33+4BMXgU+C3HrP89wqgtB7Gkv56W+4YahAYw0Beh3eCJcFQEN9zWz0V/ikFAQA7ytfmq0AAGukKYOjhiWDsz9HJ0Qt8mB/dT5HhtOlfWlxa05XSN+bLED7sPJaPPyFGoSw02qJ8aVNHi9wlVPIUvFF3Yg6PFr+NNe8PqIyK0amXc9KUBGv1bNS0Z98+kV005Q3kgZTTOVVudowJVMdXu5WbbEzDEEI/PMDTjMLadygEPDqk+F6AzaTLUp2IxrCTWSN02AcNnfoVTcTpwWf1Z3TKyF4DaqT4drfCqvQRi7j5iY7W9YEgI8ZMo7JjrjgOZ/fCh+2hYCquNxqUj4U8ZIBKrnaBQ/ARRO+bC/UAm+n3ojtGWQqgxOQCAy0nDozIelZX13r0qtoG1lRCVMikeq7W1AIKaYgMcCnLzUS4rhFTNYAKBoMGa7Lq21X+LRBCAwFe3b64cEHbG7CNXsMfFBAGbpuDVHoOx4HQaOL4YeQVPoNfTGUtXrsTKmn8rFmJCD00e1lC+9IQ/IYMIYpWK51GcV4Anej3hvLTeGCtXYOGEHhBDgIbiCiASCQDiNchUf3wNCOr1zRUgN78cskKp6n6FYjyJ2oG57geQ2e9DuI+2RI1rNR0xur3SHUaoQkVZNtIelYGvrKz3bmoxbKytIKyUQVrtPE2Qook8hR416YTL0Tx/aarWeGtkJ93XMe7Nl5B47RIecgAq7iEh1RyO40fAGBxy0h6hjK9Ew3CzhpWwEjLpYw1FiDa066Z+DHIFucgvl6FQRcA+fU4AIOqKGYsmQ//CNuyJKUfc0et4aeo4qFmQBwAQdp6NI1f2wMUkAJumvIoegxfgdBoHvjgPBU/00NN5ab2YWokVCydAXehqkktjbgVUeqraPKTJr1SgXZbGYzfyrWr4DB94zNuPiim74D27W3XhqE22piHu9gq6GwFVFWXIboqvNp5ek1GrW3Vo1blqfalGW07XnC+59AQoUoO6xqp4HvcJVTTXFzhkPkhBiVgXOk1VnxLa/bsxLRf3z6ZXzTlDM9rmquyPynWOShrZoLn2VCDqOgOLJuvjwrY9iCmPw9HrL2HqOI2ZGJ1nH8GVPS4wCdiEKa/2wOAFp5H2PJeeaKE50dUExOjvNgcjTHJw7sCp6rWpSlTex8UL0UDJRSyauAoFk7/HBld7WNQ4HgEQtEbb1mKUx95GlNIrx4lXPDG/uGgiVhVMxvcbXGHfoLFqRB26o5sph7iI23Vr3/hKVFQK0bGfHSybpAkRXupsBYMcX5y8VFh7lC/whfexxGaub8NTyQEuHbGPOsFtxzUkxJ3Dqr5p2O2xCVerTNHB0hAJPvtxrd5LabhkX1yIbupWZQFat20NcXksbjdWPHgIYdrBEoYJPtjfcBD4Xoh+vu93r4/oJXS2MkCO70nUmYFHga83jiVyKLm4CBNXFWDy9xvgam9Ru6lHg1arIVA9n60qKwdv0RO9O3VC926m4OIicLvOeVBZUQlhx36wa5rz1EMEsQgg5SxF9BQ+VI0mnSS9pHn+HdpqiTcVCNvBeftuuOldw7cbtmPrV6dhsMwXR+bYQAQROnTvBlMuDhF1A4KvrEClsCP62VlqSDwtqxvRS51hZZAD35OXUKeWAvh6H0PSS8+WE1o5LcRHfe9h39ee2HXnFXwwquYpm2q49Fg86uSGHdcSEHduFfqm7YbHpquoMu0AS8ME+Oy/hrqo4pDsewHqQleTXIlFGnKrSjTkIU1+ldjYIsKnkEUl8kR4z52P300/xo/fvgtLIcBLc1Ega65sdVDD4EY5b4GevTuh01P7alPQoFt1NFPnACBSBI1SrwTitOV0aMyXgtZt0VpcjtjbUWjYmqAuNeCvuk9oqiFUIoCZeSvgUQRCH6rWo7b88zT+3XJx/2x61ZgzOE0+9HRyN5tm27OGVnBa+BH63tuHrz134c4rH0BzKuaQHvsIndx24FpCHM6t6ou03R7YdLVCq/2fF8+WY1Qgsv0Y3junwPj8QkxZ+Tvul9Sd46UROPzVGZBdb/BFD5CcU4K0xIcoKU9HwLkQZHFlKMqKQli8AcZPH4e2yfuxaNV5pFUCFal3EJvLQZqRimxpNh4k56AkLREPS8qRHnAOIVkcyoqyEBUWW386dbQah/nufSA9tR0HEhVP6/nsK/BPH4L5nwyD4iWLlaisIlRWVtR7YseD46m2IGk1dhamdMrGkY/ewcIffPDbsa341M0H4sG2EAHgOR5UneAAHhwnB/H1PhkSKRIgzwN8UfPl4NLhs8Ubd8oAfZu3sOrLybAx1IO+wAhjZrmiS4o3XEZOg+ePPjh12AtzlgfDqKvKj9fV1JdPiHbjp2Nc22TsX7QK5xWKx53YXHDSDKRmF0EwZhZcu6TA22Ukpnn+CJ9Th+E1ZzmCjbpCzHPg5AS+XjArxOUVSVuoD3094HFWJgrzwhAUXdZIvwCAykpUUSUqK+od4znwVJP8W2HsrCnolH0EH72zED/4/IZjWz+Fm48Yg20FKHqQjJySNCQ+LEF5egDOhWSBKytCVlQYYuv5YyP4PKSmVF/AZ+Ls2Wj0dv8Eo/VbYdx8d/SRnsL2A4mKH5Pgs3HFPx1D5n+CYdVv6CTIUdWUpCSygFV7XWSEXsadnFzcu7Abh24WQJ6Xjof5xSjXpkeVaNJJa83zN2inOd6KVNlJiosr1yJ90rfYtMIDi9Zvwfrp/Wu/vm41bj7c+0hxavsBKMKNR/YVf6QPmY9PahSmihbQTYMYbDUWs6Z0QvaRj/DOwh/g89sxbP3UDT7iwbBt3ZScoAFxL8xdOA5Vv3yLuEEfwF5TmAHg0n2wxfsOyqAPm7dW4cvJNjDU04fAaAxmuXZBircLRk7zxI8+p3DYaw6WBxtBbehqkKtriYbcGluiuLPJq+pu3BrzULoGvxJBqK8PPTxGVmYh8sKCEC3QJovS2IoJKPlWGSK+/hArb3bDioOb4GiuOCr1PYMrWdpkUwePvNQUKK7gkXn2LKJ7u+OT0fpN81UC5E0KboDjuOocr023anK8xlgWqdCXCBZW7aGbEYrLd3KQe+8Cdh+6iQJ5HtIfFkJ/jKacLkW2hnwZbzAe08e1RfL+RVh1Pg2VqEDqnVjkclJkpGajSM1GOqNnuU+ohYNCtYrY1lhDqPQFISz+7x2MNAjD19M+we5L4bj9xyEc/COrrsjSln+eIlZbMu6fSa8acoatSJMP5aNYpGmuWuocCKGvuPEjszAPYUHRigcfSjHVfHvWIe41FwvHVeGXb+Mw6AP72g+TquGQ7rMF3ooiCm+t+hKTbQyhpy/Qbn/lrloK5UXjLYOccm7upvkTXiNJ9z40cNRYmjR1Js1dtptu5lavoOcy6PT8AdTexJy6DZ9Du6//RG7WZtR13BYKkRERJ6XwXW400NqczGwcaPxn62j2wC40yPULOhiSQRmn59OA9iZk3m04zdl9nX5ysyazruNoS4iGHyqpSqGzqyeQvd1Imjr3Y/pwujttC8ip3riQTNd+mE9D2whJaDGKlnr/QiGPiij+3Foa20FEYhtn2nQhkYiISuOPkcdoCbUzaUVWDq609UYucURUEn+O1o7tQCKxDTlvukAREadolaMFiXQkNHXrRYpLvEEH5g8mM6Eh2c3ZR0EZVc2Xo+ImrRrcjfq/4UbL1nnSinnzyOta3WbT+KMeNNrWnPR0TanzkHl0KLZuw2NjSlTIx5E0fBe5DbQmczMbchj/Ga2bPZC6DHKlLw6GUBZHVBp/lDxG25K5ni6Zdh5C8w7FUinJKPrUKnK0EJGOZCptvRhHiTcO0PzBZiQ0tKM5+4Iog5NT0sH3SWLehiTOWym0uPH4VcnX6If5Q6mNUEgWo5aS9y8h9Kgons6tHUsdRGKycd5EFxLLFbIe86DRknZk0sqKHFy30o1q3+IyTtP8Ae3JxLwbDZ+zm67/5EbWZl1p3JYQUqNVqor8kvrpWtLAKXPo00Wf06cfTCKXL85Rau0GjSpKObuaJtjb0cipc+njD6eT+7YAyuGIuII7dGLlG2QpEpGV02o6EZGvcaMfEdHjoI00prMpmVrZ0eQt1+niUnvqPmImrTt6nQJ/0aZH5d5qUK8TTfMn0hZvDxrZibgMOv6BNekJQICABEId0je1oO4j3OnIPcU2l6qUs7R6gj3ZjZxKcz/+kKa7b6OA2gHV8yy6+TO2YQwqXCWejnmMJkk7E2pl5UCuW29QnVo05ISmUB5AC+3H0171Rqml4uYqGtytP73htozWea6gefO86FrNxtXSeDrqMZpszfVI17QzDZl3iDSGLmmQS21u/Zr8Ak7QyjcsSSSyIqfVJyginyMiTkse0uBX8iQ6+L6EzNtIyHlrKBVXz6uxLBwV3FE1duMcUB68kvrqC8nM3pWWLF9Oy5cvp2ULZ9Lwl9+nE8XqZKu+b6iiKpK+7KdLlgOn0JxPF9Hnn35Ak1y+oHN1wa3eV7kCunNiJb1hKSKRlROtPhFB+RpM/SThPK1xak8ikTU5bzpDsY+16VYd6nTeWF9ERPQ4iDaO6UymplZkN3kLXb+4lOy7j6CZ647SrfwqjTk9I11zvuSk4bTLbSBZm5uRjcN4+mzdbBrYZRC5fnGQQrLUK+Pp7xPKPRERPaGE82vIqb2IRNbOtOlMrAY/1+ALJKfMy2tpfM92ZGxqQ6MW+ZDvWgcyqNmsqTH/3FLYXqV/K49TR0vH/TPpVV3OIG0+xKmdqyxaW53DkTzpIL0vMac2EmfaGpyqOqaeyp51lAcsJPvxe9X4T30q6OaqwdSt/xvktmwdea6YR/O8rlGNSbTa/zkgICKtD/4ZjH878qg1cBh0BuODb2ODnebP0wwAfAbOenqj+B032PH5kBaVoKxEisy7J3E4ay58d47R/kT5XwCftgdum9rhO+93Uf3glvF3Qx6FNQ6DcGZ8MG5vsNPytIzx34JD/MaBcDg5BgGRX+E15hz/UHik7XHDpnbfwfvdf14mbvGlKQzGPxqNX40yFPDIOOKBhXe74v/6dkWv/gMwZMRojHn7XUx2csBrr3T9lxc7HEoKpSjnSxC8+wosP3ibFeH/CFhwMxj/KrgSFErLwZcEY/cVS3zw9j8zE7NCnMEAIC8sxGOuCAVSbW/7YQCA2Kw9DP5YgNdHf4AFqz2xaeNaLPtoOj7+rSvmzal5w8W/E3n0Joy0tIBF+5cxv3AGFg152p8aZ/wlyAtR+JhDUYFUsT+CwahFjvz8IshLZHjctC0AjL8NckRvGglLCwu0f3k+Cmcswj81FbOlKYz/PBVJV3Dol0CkFMkhNrPByCmz4Ni19veHGWqoyAjD+bP+iMksg8jcGq+OmYj/69PmX12EAwDkqbi05xhi276JGVMc0I49zvj7UpGEK4d+QWBKEeRiM9iMnIJZjl3BopsBcMi4eQTHLyWioEoH5l1Hw+XDkbD51yewfw/y1EvYcywWbd+cgSkO7f6xT5ZZIc5gMBgMBoPBYLwA/qkfIBgMBoPBYDAYjH80f0khzhcnIyZJVrtVpjQ1EnfTn9sbGTXyIsd+IZRnIOZezl+8TYmDTFqkfLDZlGfE4F5OvZm/EFkYTYIvRnJMEmR1QY7Iu+nP772rfyPq/JRHkVT2XH/4ock8VazwKEqJQFBILLL/C4ZjMBiMvwHPtxDn0vHHVjcM6PIKXPYmKH7EgU/B3hmDMHjuYWQ37y7x7GgYu+LGagzuMRxL/HKbefP6m8LLEHn0czja2mLkxqC/bpNSRRJOb/sG5/58+p0vvCwSRz93hK3tSGwMqnxxsgDgU/dico9+mLo34S8d9++C9rjgkP7HVrgN6IJXXPYiQRHkSNk7A4MGz8Vh5UD7F9HITwGUxxzHmk2n8EDpRwz/MjTGCof73zujx6szcPiBUnxyD+GzzB2bz4XgzBdOkPT5AEfU/vogg8FgMFqK51uIizphtMdcjGhDdb9SKrTBvJ9CELxvJto/39Ebo3bsStw+exmYvAlf/p/Fc1bKX4TQDHauizBRUk/32uDzcDviwdM/0eNScPyztbg/eiGmD2ijfLbJCM3s4LpoIiQ12xeeRpYWgUe271nEOyzH5tkv/wc3eDUlLkToNNoDc0e0Qd1uEyFs5v2EkOB9mPmXB/mzw+fdRsQD7VHQyE8hxEvDP8HSwbew+NOTSNPeRTPgkXc7AlqnpSlW+HT4nnuAIau9ML1b/RdM8sg5vhiL4l7DEg8PbPb5CUsHmkD+oj5MMBgMxn+I53+XFJnBzFTQ4JCRtR36dXox75lROTaXhtSOy3B8/TC0anjmn43QFCZGDXWvidKw77Dm0H2ln59uKhyS93ngG7wP9/7PbluhqQkaTL2ZsrQMZYjj38Yhb1dY/xd30jc5LkQwMzNFA+sYWcOuXyc8uyf81ZQi7Ls1OHS/aVHQyE8BmI1ahg8qNuCz/Q+f/kOtMqVh+G7NITRpWupipSgeoneP4vt3rZQSfyVCrwah1MgU+gCEbRzx5ZHdmPXyf9HpGQwG46/luRXi8sIkhAcEIjL9ifIpoDwD0fHZ9b7qLkNaTALyuHJk3g1HQmHd7assMwY3/QNxO7W40VfjlbkJCPH3R1iStNENT+25RmMDQBu8PqQ90m4lIFd5/UFpGmISC8CjEjlxwQiOz9VeqFbmIiHEH/5hSZAqT4yTIjniBgJDVYxVlo7oezngwUGWHIHgyDSUVp+qzIlHcNBdZDZYu8mj+GEckot5cNIkhAaGIUlWf0AhBCruxyjLRMxNfwTeTkUxD8XTttAdmPnBVoSnROGy33XE5lVrSF6A+2HXcc3/FpIb9K1EyVVs+SYK9s6jGxdtGvQhL7iPsOvX4H8rGQ2nLmhY2DVZlqZSirSYRBTwQGVOHIKD45FbvawiK+oK/Hx94XfjEV5z/xivPr6NS76+8L0UiodlNe3LkB59Dzk8wMmSEREcibQ6YyE+OAh3GxoL0OTPZWmIScgDV56Ju+EJqA0BTf5SA1+AOH8/+Pr6wtf3EsJSFJMsSwnDJV9f+PnHoUCdbjTYRmNcQPF+5qTwAARGpqNxlJcjIzq+0RKw8qxY3AwIQlRqUaN4BgBOmoyIG4EITcjVshRIm+8DAAdpcgRuBIYioZEAPGQPwhBwIwppRQXIzCoF+DyE7piJD7aGIyXqMvyux6IuDJrqpwDQGmPffRURW77B9RqfqIVHQZw//Hx94evri0thKSgDgLIUhF3yha+fP+KUjMXnhWLHzA+wNTwFUZf9cD02r1Z3qv1JTazo9ceIV6SIqB8rFWkIv3QZoQ+KwOXH46rvJQQnFVef1KQ/dfFTH03tGQwGg4HnU4iXIWbvdDjN2Y+ojCScW+UB7/vVdy5eisgTy/CmbTcMXx+IcvDIDT2ABaNsIRmzDns2v4ehgwdhwKwjKOCz4LdhLhZ7ByD61kksHirB8NVXFQUFnwf/TTPg9r+rSM2Nxs4JEjh4nEGWpnNy5bEVyEK/hZvLCvjEpCHx7GIM6+UEz+t54Pk8hB9eiFG2Eoz1OoH985zwtut0vN2/D5y9kxoV/gp45Plvwgy3/+Fqai6id06AxMEDZ7IUdz31YxUi4uhivCHpjhHrfHBq7TRMdfsQ7w7qiYGL/RBx5BOMmzQLH00eiJ7D1iKkDODSA7FzzgBY93LFzmPr8earr2PMG4PQUzIanjfVbZTkkeW3AXMXeyMg+hZOLh4KyfDVuJpXiMwCA5gb8+ArSiGTFaFMDnDJRzFz4Lv47m4+soO94CQZivUhtZVoA4qvHMPvWa/gtdfqPwPVpA8OyUdnYuC73+FufjaCvZwgGboearpXgRpZ1FacNfDICz+MhaNsIRnrhRP758HpbVdMf7s/+jh7I4kTonXnjsj5aR4mzt2PeDkgat0JFok7MG3C5/DJrEJhxFEsfkOC7iPWwefUWkyb6oYP3x2EngMXwy/iCD4ZNwmzPpqMgT2HYW2NQOr8WZ6L0AMLMMpWgjHr9mDze0MxeNAAzDpSoN5flEUSGsC49Aq+nDIOrrtTYNFOYQP9NiLc3LgK50vNYNwo0jXZRoOvVrcui9mL6U5zsD8qA0nnVsHD+351TPCQRp7Asjdt0W34egTWfhYpQsgWZ4xfG4oqvSJc+HQger42Cm++/S42Xi8DIEPot25wWeGDmLREnF08DL2cPHG9phKuR5N8XxaKb91csMInBmmJZ7F4WC84eV6vLqwrEb3DDR7H0yEvj8eBaQPx3o8pqJRlosDAHMY8j4pSGWRFZZA/pZ8a2Nvj5YzTOHZNuRIXwsC4FFe+nIJxrruRYtFO8a2BfhuIbm7EqvOlMGtgLB6yzAIYmBuD5ytQKpOhqEyu3p8aq0tzrFAlSotkKK0CqKoURTIZHpdz4NXqT1v8VA+ptr3S1BgMBuO/DrUwpUFLqW/XWXRGWn2g5DzNttKhl5eGUAUREZdFuxz1yHTKSSolIiKOUrePJF2DPrTgci5J466S3908yjoxjUatCFW0IY5St48gXR07WhNZQVnHXcjWaRelckREVRT7zQhq3WEmnS7hNJxTMbb0In0k6UkLA57UzJ6CFvckXcup9HM2RyR/QN8M0SVThwV0JrmCiGT06zQL0hv6DT2QVzepB5d1nFxsnWiXYnCqiv2GRrTuQDNPl2gfi8uk7x31yHDgSgrIkhNRBd35sj/ptBpEyy8/oioiqor8kvrrdSWP6+VERFQRvIR66FjS6LV+9KiKqDR+H02yEpGu/Tq6W0VE9JgOjtcnc9df6QkRcTknaNqoFRSqUCpxqdtphK4O2a2JpCouk7531CerORdJ0buc7n31Ohnar6eYKiKqCqeVvfWp/5pIqqqWoI4Kurm4B+l0nEd+isZE2vQhv0dfvW5I9utjFLKFr6Te+v1pTWR1748P0nh9c3L9tUZfzZCluoV65PTgmyGka+pAC84kUwURyX6dRhZ6Q+mbB3IiklP8xgGk32MJ3azuv+LmEuphMIi+/lNORBxlfu9IeoYDaWVAFsmJqOLOl9RfpxUNWn6ZHimMRV/216OuHtepnDjKUevPVURcKm0fqUsGfRbQ5VwpxV31o7vJ5zX7SyNKKWChhPR6LqXgahtw2Ydp+tQ9lKbico220earpUG0tG9XmlUX5HR+thXpvLyUQhRBTlm7HEnPdAqdVAQ5VcVsoNeMHWhDnCJwqu58QX31utF8f4VGpBc/IknPhVQ3ZBAt7qlLllN/JlXiavZ9KV38SEI9FwZQXXeLqaeuJU39OZu4imBa0rs/LQ9VnOWyj9HGnXFURURc5vfkqG9Fcy5WK7HZflrNk9M0va0Ovbw0uNrmDSkNWEgSvZ60tM5YdHj6VNqjyljV/qZvNYcU09LiT82OlVL6aaI+mbn4VOdkLfrTGj/a2jMYDAajhkbPyZ6NEvjtPoTkPiMxyqz6kH4X2FjWW2soNIGJcYPFvzAw0IXQ1AGOw9rBrJcjnPrqI/C0HzLun8dWLy94eW3GsSdOWOc5A/YGUvie8IOenUP1hksxXlnij4KMQ3A20nSu8diF5/bh53Rb9LOreYpriNddnCHJP4/jvjJAZAxjIxFM+jvBqYsuACNIuneCsEiGwkY7oQCp7wn46dnBoXqDmviVJfAvyMAhZyPtYwmNYWQogG6XV+HQXgRAFxJba4jRCa8OsYIYgNjGGh0ERZBKFYMLDQygL2qHwRMdYSUGDHu6Yf3c/qCYAATUf+1fNWX+p+GXcR/nt3rBy8sLm489gdM6T8ywN1C+FIAIEvfDCDzmAZt0fxzYfBChUh4VT8obP5GFHOnpWYBxK7SqZ1pN+oBIAvfDgTjmYYN0/wPYfDAUUr4CT8ob966K5smijAjGxkYQmfSHk1MX6AIwknRHJ2ERZKoM2wghjI0MIdDtglcd2kMEQFdiC2sx0OnVIbBSGAvWHQQokkpBKIO/Wn9WPNE20BXC1MERw9qZoZejEzoG7dfsL40wxBCPzzA04zC2nVIsb0r1uQCdSZPRSUWUa7KNNl8t8duNQ8l9MLIuyNHFxrLeL2oKYWJi3GDJhjwlGemVdUsmxF26oBMykZLyBEAhzu37Gem2/VA35OtwcZYg//xxqBJXo+8nnMG+n9Nh28+udo264esucJbk4/xxX8jEVpBYp2LbhOGY+dUpxOm4YPVnvVB/+2ItT+unAjO0MiFkpqSpXMpmOMQDnw3NwOFtpxTLm1J9cEFnEiarMlYjtPiT8tXNjZXCc5r1py1+tLZnMBgMRg1NyfpNh0tHwp8yQCTW0LEAgkYLGJX+5ouRV/AEej2dsXTlSqys+bdiISbYFiE3vxyyQmnjtwJwBerPAUpjc8hJe4QyvhKV9Zbyim2sYSWshEz6GDwESmstBRCJBADxKvrnUJCbj3JZIarr5Abnmj8WIBAK0GAggRBCqHgbQi1idHulO4xQhYoK5at4FOcV4IleTzgvrafTlSuwcEIPlUWIUPwEUTvmwv1AJvp96I7RlkI1YxOqqqpAqD9dTfoAACHET6KwY647DmT2w4fuo2EpVHmhCpovizLKPigQiSAAgW/iFJTbQyCEoKGxIBRC8SYRTf7co3q2Dbprir80RtR1BhZN1seFbXsQUx6Ho9dfwtRxrZUv02IbbWNLkZrwJ2QQQaw+yCEQNFw7rfv6OLz5UiKuXVJsYKy4l4BUc0eMH2EMcDlIe1QGvrKy3nvHxbCxtoKwUgbpY1XSKlPn+08y0/CojEdlQwFgbSVEpUyKx+iM2UeuYI+LCQI2TcGrPQZjwek0NcvNntJPBTrQ1QF4Xs3cRV0xY9Fk6F/Yhj0x5Yg7eh0vTR0HVdZqRFP8qe7iZscKl6NFf3xj/68fP01pz2AwGAwFGm6lT4GgNdq2FqM89jailF59RepuSKoQmqKDpSESfPbjmrTuMJfsiwtxbdDZygA5vidxqbDmDI8CX28cS2qr/lyi8m1WhA7du8GUi0PE7boFn3xlBSqFHdHPzrKZyhHhpc5WMMjxxcm6wcEX+ML7WBJeatGx6kOgeqqtKisHb9ETvTsov/FACNMOljBM8MH+hkqF74VoFU/tSnBx0USsKpiM7ze4wt6i5patqggRo/1LbSEoLUZp7WlN+kgEV3IRiyauQsHk77HB1R4au29Ec2VpPiKxSMUHLgIpu1FT0OTP0apm+7S+2QpOCz9C33v78LXnLtx55QOMMlS+Blpso81XO6Bt29YQl8fiduMgV/kBAQCE7Zyxfbcb9K59iw3bt+Kr0wZY5nsEc2xEgKgDunczBRcXgboheVRWVELYsR/sLFVLq873+/brgW6mHOIibis2QgIAX4mKSiE69rODJaUj9lEnuO24hoS4c1jVNw27PTbhqqrX9T2tn1IZSssEaPOSRb1vChrSymkhPup7D/u+9sSuO6/gA9XGakyz/Kn5sSLq0F2z/tSZo5pnbc9gMBj/JVo2JQrbYfz0cWibvB+LVp1HWiVQkXoHsbkcpBmpyC4qA8CD40mpMCdAXlXvpmCEMbNc0SXFGy4jp8HzRx+cOuyFOcuDYdS1DcbOmoJO2Ufw0TsL8YPPbzi29VO4+Ygx2La1hnOiRmO3Gjcf7n2kOLX9ABIrAYBH9hV/pA+Zj0+G6QE8B05O4OsVZESKDxWqPle0GjsLUzpl48hH72DhDz747dhWfOrmA/FgW7TWNhY48LzSBxZSDFh7zycCgQdfvxjk85CaUlL9/5k4ezYavd0/wWh9AODAcdXzBWA0ZhZcu6TA22Ukpnn+CJ9Th+E1ZzmCjbpCLNSHvh7wOCsThXlhCIrKxoPkHJSkJeJhSTnSA84hJItDWVEWosJi600AAHTQ77X+0M9Pr3tziBZ9CIoeIDmnBGmJD1FSno6AcyHI4spQlBWFsNgSgOPAgeo9UWyGLCjDrZ0zMe59T1yq3nzYEB4cJwfx9Z6AKwxbPZ4IFlbtoZsRist3cpB77wJ2H7qJAnke0h/mo7gc4BTGqld4kqIwrDMWiACe57T4c3VlR4C8qi4CtPqmGsS95mLhuCr88m0cBn1gr/KJJ7TYRrOvGqDd+OkY1zYZ+xetwnlFkONObC44aQZSs4tQBoDneFB9/UgvYuXadEz6dhNWeCzC+i3rMb1/zdKWVhg33x19pKew/UCi4m0pfDau+KdjyPxPoFZcdb7/0jjMd+8D6antOKAQAHz2FfinD8H8T4ZBj0uHzxZv3CkD9G3ewqovJ8PGUA/6AkCorw89PEZWZiHywoIQld1cP62mLAOZUn30degLnYZn6hD3wtyF41D1y7eIG/QB7NUZC0LoK4ITmYV5CAt6gCEa/ak5sQIAlaisIlRWVijs1UqL/rTFTxPaF1xZD5f3N+J6vc8GDAaD8Z9EedH4M8NJKXyXGw20NiczGwca/9k6mj2wCw1y/YIOhjyg+HNraWwHEYltnGnThXtUcOcErXzDkkQiK3JafYIi8mu28pRS/FEPGm1rTnq6ptR5yDw6FFu984tKKf6YB42WtCOTVlbk4LqVbuTWa6fyXInS2IlERFSVcpZWT7Anu5FTae7HH9J0920UkMMRkYyiT60iRwsR6Uim0taLcZR44wDNH2xGQkM7mrMviDJU7DoqjT9GHqMl1M6kFVk5uNLWG7m1m5PUj1VC8WfX0lgrEYm7vkubz8VQatRvtGFCZxKJu9Ikr9/p7sMI8lnzFlmJxNRlkhf5JlVQVeSX1E/XkgZOmUOfLvqcPv1gErl8cY5S5URETyjh/Bpyai8ikbUzbToTWz2/o+Qx2pbM9XTJtPMQmncotnqDlpySDr5PEvM2JHHeSqHFHGWcnk8D2puQebfhNGf3dfrJzZrMuo6jLSGyOoGr4bIO0sS2EloY2HBrmlp9cBl0ev4Aam9iTt2Gz6Hd138iN2sz6jpuC4VkJ9D5NU7UXiQia+dNdCY2t3mycBl0cFJ7MmtrQUM8YxrMh4hIFn2KVjlakEhHQlO3XqS4xBt0YP5gMhMakt2cfRSUwRE9DqKNYzqTqakV2U3eQtcvLiX77iNo5rqjFBj8O60da0UicVd6d/M5ikmNot82TKDOIjF1neRFv999SBE+a+gtKxGJu0wiL98kqlDnz1wB3Tmxkt6wFJHIyolWn4igmhBQ7y+aKQ9YSPbj96r0z/qotY3WsTmShu8it4HWZG5mQw7jP6N1swdSl0Gu9MXBEHoQe47Wju1AIrENOW+6QInlRFzGcfrAWo8EAEEgIKGOPpladKcR7kfoXgURURWlnF1NE+ztaOTUufTxh9PJfVsAqRNXs+8TUVUKnV09geztRtLUuR/Th9PdaVtAjkK+ipu0anA36v+GGy1b50kr5s0jr2vVmwjlSXTwfQmZt5GQ89ZQKm6Wnz6unV9F0OckaTORDmapEaCG8gBaaD+e9moxljzpIL0vMac2EmfaGlqsIT82M+6rkunaD/NpaBshCS1G0VLvXyjkkVyj/poUPxraE8kpaddYeqn9ONqTrGLXO4PBYPyHEBDVPcNj/LOQR62Bw6AzGB98Gxvs1D5O+4sow40lg7BIfz9CNzqofRL7V1IZtAqf3J6DHxd0VT71L4ZH2h43bGr3HbzfNVc++cLgM87C07sY77jZgc+XoqikDCXSTNw9eRhZc33/n73zjorqaP/4l92VKohGiYgKKK6xgxB7J8rP1x6jGGwYQYkJdhNLYjdEfU2iJlE0tigxkhhfK9giIFIUBWmCQaRIFxakSNl7n98fS1m23N0FVJLs5xzPkb13Zp552sy9O7OD/WOVvfZWTPPyfVnEiNo4GPNffovQ3cPAteCETTsI1x3tsNd7OpqPtbRo0aJFy+uiaZemaHkzKFp98doxxPAv92Hcg/34Nf3NC8Tmh+DQpbcwZ96/ZBLOlKBAVA62JAQHrptjzoRmNK1jM3DSczkedvk/9O3SE7YDhmLkmLGYMH0GnBzeRa+a5TkN4c27mhxs7nkcePAe9n2hbBLOoKRAhHK2BCEHrsN8zgTtJFyLFi1a/qVoJ+J/Y8QFBXjBFCFf1ExOrWs1EtsOfoCU73/EHcUni7weWBFiolhM3LwKo/4VMxwxoneMgrmZGdq/sxQF81ZgaLM6W14A0/YG+HPZQIyZswwbtu7A9k2fYfHcj/FHl0Vw66psO6Nymp3vV8OK7uLIvkRM+GE7RsodMStBHL0Do8zNYNb+HSwtmIcVzctYWrRo0aLlNaJdmvI3pSLpOo7/FoSUIjEEplYYNXMBHLvoyt72ZqhIw90YYIBDZ9krWl4R4tSrOOgTi7bj5mGmQ7tm+IRdgYzwS7gQEIPMMj5aW/bH2Cn/hz5vaT4Jb76+zyAtIgLUeyAsuebW4lRcPeiD2LbjMG+mA9o1P2Np0aJFi5bXhHYirkWLFi1atGjRokXLG0D7LkaLFi1atGjRokWLljeAdiKuRYsWLVq0aNGiRcsb4F86EWdRnByDpMJXvKGQLUJKRDBCY7NRjlKkRj5EutSpz1yUpkbiobo3N4DS1Ggk5L3i/itFVv+a6ebVIisLA9HjGDyVOqhIjvIMxDzKaY4/4PEKkNVPM4UtRnJMEl51iGvKm427OtjiZMQkFTbYZ8szYvAop6Gl3xD/qjjV0lx4nbHyOtt6o/zDYrlpJ+JMCoJOfoNPp4zAsOH/wYeLPeDhIfnnPv99jBs9BwfiFR2q/Ppg0v/EHtcBsO7ljEMJr04W5qkvPvPYiYuh5/GFkxC9py7CjEFD4H4iW7XzsCk4NG8whrifQLbKmzWDzQ3DEc+RsOk+DrvCXv8vTijSP5tyCPMGq6mbV4y0LFWpf2LPvP6w7rsQPqkKzrZnCxF5aiUcbWwwanuw5ETIfzjS+mmeMEj/cw9cB1ijl/MhvMIQ14g3HXe1MOn4c48rBlj3gvOhBIVH3HPBFkbi1EpH2NiMwvbgN9gPTfgXxqmWhlP0v4/Rr8d47Agrlr2kEa8zVl5nW2+Uf2osy57w03jK6dan1sTXm0TH6g6aI6Jyiv9uIW0IKJf+8I1QEbyShHrv0JrQ+qdANhlMNv08rQP951A+ETH0/MZWmuNxgG7ci6K0l7I3K6Yk5QFFqXuzhoiTdtFQvbdpwYVXU78q5PVfQikP1NfNq6W+LOV/fkJWeg60LU7JCYBMGu0drUetXX6nZiH+K+cV2IrJpYh7SaREww2ggoJXCknvnTX0qkK8IbzpuKulIphWCvXonTWh1BD1MGl7abRea3L5/Q33QxP+dXGqRQ618kwxnZvfi5y+i24SP3mdsfI623qj/ANjuWnfiAMA+GjZqqWCV+166D73U0zr2IjDO5oIvqkpTHRkP21CKsNwI7gURib6AHh4y/FLnDzgAUeHfujE9bNmUhhZ2qGfujdrCN/YGEavsv8qkNe/ESzt1NfNq6W+LHwjYxjJO3MdPBMYv0llvnaa3lal4Xux8fhjjd/OKocPU1MTNDervOm4q4VvCtNGJECeSTPphyb86+JUiyxq5ZnKeOT334uTnn3QFCnudcbK62zrjfIPjGWuKUbTUhaD6JzesJc6vKM0LQaJ+SxQmYO4kBDE53KGiITKXCSEBiAgPAkimdUC4vzHCL91EwH3klEot5JAjIKkuwgMikT6S9lrqsoqgBEhOeI2gsISkCv1/UhF2l1cvRaGJ0UMnsffgN/VECRVf8NVnhGNeJm1JpW5CQgNCEB4kgj1mi3PQHS81FKN0jTEJOaDRSVy4kIQEp8rk1DEyH8cjls3A3AvubB+XbLo6NRNUiqzEXtHge7F+Xgcfgs3A+4huVohbH4cAvz94OfnB7+r4UgpA4AypIRfhZ+fPwLi8uvXUQ9u/cvqhi18gvDA24hKK0J+ZhZqlmizxU8Rl1wMlhEhKSwI4UmK+spAlByB20FhSJA2DgCgFGkxiZC4XRxCQuIh2/V6stTqiiDOe4SwsDhk11sfzYOOopxQlomYOwEIup+KYiXrbdisKFz394Of/20kFLIAk4n7V/3g53cVYU/Lau9rUJygErkJoQgICEeSbKA0Uj8VmdX6YbMQdd0ffn7+uJ1QCBYMMu9fhZ+fH66GPUVtD5T6Lou8sH2YP2cP7qZE4Zr/LcTWrp/mklEJ4gIk3Q1EUGQ6FLiYWjaRRmlsAmBEyYi4HYSwhFyFX48qLKtO3AEoy4zBnYAg3E8trrdUS1lMqIu4IAl3A4MQqSgAOdqVgyfVDym4dKKp7LL6UzdWFOUtCRrGKVuIJ+GBuB2VhqL8TGRxCcx1r7L6lSDb73ooGXMArhiTgqs8uMdWTfohZ2t184QcZUiPfoQcFmAKkxEREom0Gt1W5iA+JBgPM2U3qygaB5XlmTKkxSQgjylH5sO7SChgAN0BWLjoHWQnyq4/ls2nLLKirsPfzw/+txMgccn7uOrnB7+rYah1SUWxotRH1aUMmTF3EBB0H6nSxlDUlhLKs2JxJzAYUalFMv2sr5P4+PtqxZ1a47Iq/5NFqZ6UxLIiSjMQHRyE0Ee5qKjMQXJKsfq5RJOc2Ehez0RcXIRHp/fi1COJ9tm8uzixfDRshOPhdfoIFjlNgMvcCbDtMxXeSXLmq4ZFXsAOzHP9L26k5iJ6/2QIHTxxPosFwCD51HwMmr4XD59nI8TLCcJhWxBao9OyGBya6wS3I1HISLqI9Z7eeFzbjIqyCigM+w6uzmvhG5OGxAurMLynE7beygMLgCpLUVRYiioQqkqLUFj4AmX593H6s3Gw6ToCW4KqEwebh4Ad8+D63xtIzY3G/slCOHieR5ZYhMjTn2GcTVeM2BKEcjYPd08sx2gbIcZ7ncaRRU6Y4DIXE2z7YKp3ksTZmWScmj8I0/c+xPPsEHg5CTFsSyhHgpNQ+fRXrJg5Gx6LpsCuzzQcfiJRCpN8CvMHTcfeh8+RHeIFJ+EwbAktA8+gJUqvf4mZE11wIMUM7fQBQB9v8e9g+/pLKDVtKduEBA79s6JIOd1URu+Dq+cvSBeXI/7obAz64CekVKQjaL8bBlj2hMt+H2wZ1x8Dx76HwT2EGLP1Dopq2ioMw3euzljrG4O0xAtYNbwnnLbeQh7LIu/uCSwfbQPheC+cPrIIThNcMHeCLfpM9UYSo1gWCYScy54YYjcEjsP6wKrHFOyNKJG6Lg2LLP9tcF/ljcDoezizahiEIzbghoKTRnltOqNjzs9YNMUdR+LFAL8NOpklYt/syVjpm4mqBsUJwOYFYMc8V/z3Ripyo/djstABnuezJImkEfpB4UOc+fz/0K3rEHz5ZznAa4POHXPw86IpcD8SDzH4aNPJDIn7ZmPySl9kVqnwXbYQmfkGaN2SBVtRisLCIpSJuWSU7WkdZTGHMNfJDUeiMpB0cT08vR9LDQTq2wTgiE2JAhH2nSuc1/oiJi0RF1YNR0+nrbhVIxxnWQnK4g5sFvy3uWOVdyCi753BqmFCjNhwQ/JQpCgm5GZayihDzKG5cHI7gqiMJFxc7wnvugTI2a56cOtEI9mV6C/HlDtWGI68pRgOn6iMxj5XT/ySLkZ5/FHMHvQBflImsNJ7OepXhJJ+1/iN0jFHnfGBq7ykcY6xVbN+KLQ1qyJPyKUyFgURp7DqPSG6jdwM37ObMHuWKz6aPhg9Bq2Cf8RJLJk4DQsWz8CgHsOxqcbGysZBuTwjwrPwo1g22gbCsZtxcOcHGDZkMAa4HsSt6rF3pNT6Y8X5NAemnTsi5+dFmOJ+BBKX7ASzxH2YPXklfOU7BWjso/KwWf7Y5r4K3oHRuHdmFYYJR2DDjXwNJolFCN01FZM2haFKrwiXPxmEHu+OxrgJ72PtDwfkdDLos1C05Io7Rr1xmdv/5GmsnoAyxB33wIS5O3E1LgFB38yCnXVPTDuUAFbFuMugKXKihsiuVWk8VXRvQx9qIbCm9xYupsWLF9NiNxca082CXH4rrb1L/GQ3DdU1IYdl5ym5gogKf6fZZno0bPcThWu4mKxfyNnGiX5IZYiIqCp2N41s04HmnyshEj+irwYakv2WGKoioqq766i3vi1tjKwiolIKXtOXuiw4T6LqukouLSSLFtVrlDnLKkB0hRYLe9DywJrVSaUUvKoH6ZrPol+zJbJR6c80Rd+UnH3r+stk/UCOeiY080wpETGU9Ysz2Tj9QJLuVFHs7pHUpsN8OldCREwW/eCoRyYzz1ApEZH4Ce0eqksmDsvovERZ9PtsM9IbtpueiInEj76igYb2tCWmioiq6O663qRvu5GUdYFyD5KTvjEN3hBIuQwRFf+P5pvr08hvUoghMT36aiAZ2m8hSXV3aV1vfbLdGElVRESlgbRcqEc91oSQZLU/Q9kn5tKsg2lU3XsZVOhfTjcVFLK6N9l+HiZZ/8Vkk8/2/RRXRUQVIbS6ewsyH7OJ/J9VEZXG0+FpFsTXtafND6uISERXFgupx/LA2rVjpcGrqIeuOc36NZsYEtOT3UNJ18SBlp1PJonbzSYzvWG0+4nE6+rLUu0PuhY0ed9dyhcTlcQcphlWLUjPYStFVxERvaBjk/Rr16sxOadp9ui1FFa9+JZJ/ZZG6rYguxr9ySCO304D9LvT6jvVBSru0OruBjT4679I3IA4ISaLfnG2IacfUiX2qIql3SPbUIf556ikCfRDz73p//SM6H2fat8Wx9P2AfrUffWd6vXGFXRndXcyGPw1/SXpAKfvEpNJ3zvqk4XblWp/UiWjAkqDaU3fLrTgfK2H0aWFFtSieo24Zjbhjk3RlcUk7LGc6sI/mFb10CXzWb9SNsNdljvuGMo5PZtGrw2r1iNDqd+OJN0WdrQxslR5TKhBafAa6ttlAdWp5xIttGhRvUacq10lDbw4RpP069aicuuEI57l4NYfd6yoyFsaxGlpyGrqbfs5hUkEpmyf7bRfscBUoeRervrla+Lut8oxR1WMqSjPNbZq1g8OW6vKE3IwlPm9I+kZDqJ1gVkkJqKKB1+SbYtWNPjza/SsioiqIulLWz3q4nmLyknFOCiXZxhK/XYU6Rr0oWXXckkUd4P8H+YTUz321q4/5synYorfPoD0u6+mOpdcTd0NBtPXNZ2qFyuqfFQFTA6dnj2a1tYZg74dqUst7Kr7KBOXiqiK2Ubvtqzb81T14Avqq9eVlgZUKNVJJWfcqTEuq/A/eVTpqX4sK6L4z+XU224N3amZglWE0Op39Kj3urskcUeuPjUgJzaSV/dGnN8bs789iIMHD+LgYR9cPbMCfaWWh/NbtoQR3xi2Tk6w1gVgJES3TjwUFRZA0VGfIr/T8Nezg0N7iciCXqsRkJ+B41ONAL4QHieC4ONphfSAo9h5LAwitgIvy1mgxB8Hjiejz6jRMK2uS9/aCuY1K2S4yiqg4OJh/Jpug352NSvIDDHQeSqEzy/hF79Cmbvr4Bkbo2Xt1yki+J32h56dAyTdEaDX6gDkZxzHVCMAPGMY190M8FuipREfxrZOcJIoC8JuncArKkQBAXyhB04E+cDTKh0BR3fiWJgIbMVLKOlCNYZ4Z+AAyfHa+p3R2QwoFInAgg+hxwkE+XjCKj0AR3ceQ5iIRcXLcsnTq+FQeH46DBknvsHZHBZgUuF7uQWmzeik+OsVVfqX040AFkJLpH4zGSPmf4WzcS3gvOFT9BQA4BnAQJ+PdkOmwNFCABj2gOsWd9hSDAIDc8AWXMThX9Nh08+udn2f4UBnTBU+x6Vf/FAIPlq2NALf2BZOTtaQuF03dOIVobBA4nX1ZamGb453HfujDR8w6v0R9qwcBp2YINx+Lq/gsoBz8M94jEt7vODl5YWdPi/htHkr5tkbyN6qFprGCUR+OO2vBzuH9hJ7CHphdUA+Mo5PhVET6AcGLWGoyTYPFb4rh0oZ5SnxP4DjyX0wanSth8Hayhw1LqaZTbhiswAXD/+KdJt+qAv/gXCeKsTzS7/Ar5CrbE39yuKuDAHn/JHx+BL2eHnBy2snfF46YfPWebA34IgJlZTA/8BxJPcZhTr1WMOqNgC52pWqRimqdKKJ7OroTxkq8pYMXD4hsBDCMvUbTB4xH1+djUML5w34VLHASu/lql8e7n6rHHNUxJiq8lxjq2b90MTWquChpZEhdHSt0d+hPfgAdIU2sBQAnfoPhYUAgMAKlh10UCQSgaDpOMiDgYEueCYOcBzeDqY9HeHUtw14PGMYt5QaybjyqVRt6qGZj8pRFoBz/hl4fGkPvLy84LXTBy+dNmPrPHsosoYixCnJSK+sW9ohsLZGJ2QiJeWlcp3IViKLinH5uQr/k6eRekIRLh88heKB42BvWP0RvxVaSduVk8bmRM1RV7JGI+g7B/OGSm1/kF4vCQA6fPB1AGIVjc4M8nOfo7ywACJFl8GD4GUU9rl74GhmP3zkMQbmPMmNTHoC/ioE+AJlXVVeVh4GOWnPUMZWolJq5YLAyhIWvEoUil4odxQdnbp1TUw+cp+Xo7BAkkDk0YFOvUVQUmWr/+ZLlCUpzxPgZdQ+uHscRWa/j+AxxhxKu6AQPnh8gBFXAQB4gpeI2ucOj6OZ6PeRB8aY86Tk5KPLvBWYoX8Z3xyMQXncKdx6exYmtpGqTgrV+pfRDXjovPAkrh90hnHgDszs3x1Dlp1DmuJv+iDo2gvdjICqigqIc9LwrIxFZX3jwNKCh8pCEV6wkNEroMPnQweEWrerJ4sieGjXxRqmOgyq1SUFi+K8fLzU64Gpa9Zh3bqaf2uxfHJ3NGg80ihOACY/F8/LC1GgIFCYptCPnC+qQvZ+Gd+VQR0Z68MgPeEvFIIPxS6moU24YpPJQdqzMrCVlaiTTgArSwvwKgshEuUpL6sQqbhji5GX/xJ6PaZiTa2M67Bu7XJM7q6rUUzUg0lHgiQAFSd7znbltCOPKp28gPqyc+leDbjzljTcPqHbeSFOXj8IZ+NA7JjZH92HLMM5hQIDPIX3VnHWL6dVzn6rM+ZwxZiq8iLkKR1bufUk1w8Nc7cqZHMRdHjQqachHfB4ANV8pPE4qCiR1dclVz5tCOr7qDxscR7yX+qhx9Q1UrZYh7XLJ0OdUAUA3YETMe7tRNy8+hQMgIpHCUht7YhJI2uWlSrSiebUjctlyOb0P8VzpsboCUwmnqSUQKDbomG9aWxObAAKc/Mrgf82zNsRnl44h/AK2Yuq4OPtzhYwyPHDmasFtZ+y+X7w9kkEU3IFK6asR/6M77HNxR5mNboiQKdNW7QRlCP2fhTqN0tgWQAcZeXho0O3rjBh4hBxX2qjQmUFKnkd0c/OXD2F8t9GZwsD5PidQV13WOT7ecMnUfOsVXJlBaasz8eM77fBxd6sNkEq7IJKSnBlxRSsz5+B77e5wF6RQlo5Yfnivnh0+Gts/eEBes0ZjZoHT1lU6l8OBumxz9DJdR9uJsTh4vq+SDvgiR036koTSRWsKkM5a4YevTtAt0M3dDVhEBdxv259PFuJikoeOvazg7laxlFNWd5zvOxsi/5vy1bIg0kHcxgm+OLITVHdx0wy/C5Hy2+eAgC+APx6E10JRJr7AQDw3+4MC4Mc+J25ijrXyoeftw+S3n4V+uFDwFfwYEAkv1lHDfga21AHbdq2gaA8FvejZBILsWA1tQlXbCa9jW5dTcDERaAu/FlUVlSC17Ef7DqaKy+rKq55JuhgbogE3yOoL6YfLkdXqIwJpei0Qds2ApTH3oe8elgV7cppRx5+B26dmJP6snPpPpFREStq5K1auH2iIj0Wzzq5Yt/NBMRdXI++aQfgueOGTP6qLqLw3j+hx1G/nFY5+41GjjmqxqyOMFc6tv4FI036wZm7mzZPKKJpx0EJXPlU4pJ8BS8VCIrTtyY+Kg/PpAPMDRPge+Qm6qzBINnvMtQJVQDgtZuKbw+4Qu/md9j27R58dc4An/mdhJuV1FfUsnDGnfTfisblTujE6X+K/LdxeoKOKVq3Ap5FhOGpQjuo6FNjc2IDkNdBo2EhrhSDwICRUUJFwhFsuV4JoR7AMgzExEoFJoFAYFlW4RNSq/ELMLNTNk4ufh/Lf/TFHz578ImrLwRDbKBT9ATJOSVIS3yKkvJ0BF4MRRZThqKsKNzLGYO5E9si+cgKrL+UhkpUIPVBLHIZETJSsyHKVl42PFZ+Q16riUvh0UeEs98eRWIlALDIvh6A9KFLsWS4nuSmykpUUSUqK6R6wjJgqWby2QrjF8xEp+yTWPz+cvzo+wd89nwCV18BhtjwAbBgWJIMlNVlGTGBlQp4IslAyrIsip4kI6ckDYlPS1CeHoiLoVlgyoqQFRUOBV2o1rG8E7IsC5YtwpPkHJSkJeJpSTnSAy8iNItBWVEWosJjq+8UoKf7ckys+g3fxQ3GHHvlT4m8dpM49V9UJqsbBum+u+D9oAzQt8J/1n+JGVaG0NOvebZlkZeaAkm3WGReuIDo3h5YMkYfaDURSz36QHT2WxyVGAds9nUEpA/F0iXDoQcWDCMGsVJ9lygSrJSu62SpuacMRYXVw3B5DI6ceoL/+3IZBusCqPZzqvZbo7EL4GKdAm/nUZi99Sf4nj0BL7fPEWLURcEbJIBvZoH2uhkIu/YAObmPcPnAcdzJFyMv/SmeF5drHCdoNR4LZnZC9snFeH/5j/D9wwd7PnGFr2AIbNo0gX5k4ZvBor0uMsKu4UFOLh5dPoDjd/IhzkvH0+fFKOf0XQA8fejrAS+yMlGQF47g1DEqZJSFh3aT5mJi22QcWbEel9IqgYpUPIjNBSPKQGp2EXQ0sglXbLbBxKUe6CM6i2+PJko2c7HZuB6QjqFLl2C4HldZPnfcwQhjF7jAOsUbzqNmY+tPvjh7wgtun4fAqIuO8pgou4f98yfiw61X620IrYXXDpPmTkTb5CNYsf4SJOp5gNhcBqKMVGQX6XC0K68dAADDgKn2QaCVCp2oimdpuPXHGStFOSrylvpxqpPui13eD1AGfVj9Zz2+nGEFQz19hW/XGCX3tuSoX16r3P1WOeaoiDFV5bnGVhON+sFha1V5QrYqAAzLVj9M10CS/FcbP5L/sywDQMU4WCaTZ6LLJPWJq2QeKFgwrOSBQTJUc+RTPh9mFu2hmxGGaw9ykPvoMg4cv4N8cR7Snz5HcblMrKgYW8vu7cf8iR9i69WsehLVYjQWC1yskeLtjFGzt+In37M44eWGz0OM0EUgG5dKEF3Buk3pmPbdDqz1XIEtu7Zgrm3NmjUo1Aln3BXXWE75uKzK/+RQoSfZWJaDZ4b/e38UDMK/xuwlB3D17n38efwY/syqm5By94mveU5sLLKLxhuFOJn+PLyZ3hfqkQ6vNdlOWyjZrLl4MS2cM556tWlLH/jkExVG09n1jmTGb0HCWXvoSlwi3T66lIaY8sjQzo0OB2fI1kxERKXxPuQ5RkjtjFuRhYML7bmdK9lAwWTQuaUDqL1xa+o6wo0O3PqZXC1NqcvEXRRaSMSI7tIProPIsrUpWTlMok83L6RB1oPJ5YtjFJqRzllWEVUpF2jDZHuyGzWL3D/+iOZ6fEOBOdUbXZJv0o9Lh9FbPB6ZjV5D3r+F0rOieLq4aTx14AvIauoOupxYTkSlFO/jSWOE7ci4lQU5uOyh27kMEZVQ/MVNNL4DnwRWU2nH5QiKPrueHM341EI4i/ZciaPE20dp6RBT4hnakdvhYEpPP0dLB7Qn49ZdaYTbAbr1sytZmnahibtCSa4LhQ/pt89HS3TvvJsuxSZQ0JFlNNSUT0b2i+loWCZlnFtKA9obU+uuI8jtwC362dWSTLtMpF31FFJOgcvtadKhDMUb6KTg1P+TWBndvKA764dQV9v3yPWzzbR17SJa5HWTspnqzTn9dMl80Exy+2QFrfxkDk1z/oIupkrt9qlKoQsbJpO93Sia5f4xfTTXg74JzCGGiAqjz9J6RzPitxDSrD1XKC7xNh1dOoRMeYZk53aYgv+SlaWcqPQvurB9Do18dwRNcf2ElrovoW0Xn1RvEnlJCZc2klN7PvEtp9KO87FERFQaf4o8x9hQaz1dMuk8lBYdj5VsulXICwrePpY6m5iQhd0M2nXrCq2x70Yj52+mU7eCGhQnVBpPPp5jSNjOmFpZOJDLntuSzYHUSP1kMESlv9D0li3rNmsS0Yvg7TS2swmZWNjRjF236Moae+o2cj5tPnWLgn7j9t0MRkxJxz4kYeu3SDh1D4UVc8uoGIZEd38g10GW1NrUihwmfUqbFw4i68Eu9MWxUMpiNLWJstgkIqqilAsbaLK9HY2a5U4ffzSXPL4JpOrwV15WZdxlS8qe8qQxNq1JT9eEOg9dRMdjJRuYlcUEk3GMprU3pbZmQ2lrjJKNRIyI7v7gSoMsW5OplQNN+nQzLRxkTYNdvqBjoVkc7SrgZQJd2uhE7fl8spy6g87HvlChE+WyK0aJ/oi4Y+VeLkfeytYoTivurKchXW3pPdfPaPPWtbRokRfdVCIw173K6lcMV7+5xpxCleNDBsNVvrp1ZWOrRv3gtrXyPHGPnsuotyT+Am0ab0F8QReavvMixaRG0R/bJlNnvoC6TPOi/z18ShG+G+k/FnwSWE8jL78kepnBNQ5K55nddDX4NK17z5z4fAty2nCaIp4z9cde62n01ZVEiTBc+fRFMG0f25lMTCzIbsYuunVlDdl3G0nzN5+ie8/iZWKlkMNHCyjj2DRqb9qWzIZulVZFfUrj6ZTnGLJprUe6Jp1p6KLjFFuqLC7lYTJ+oTmWeqQDEHR0iNdCn0zMutFIjxMUGq5IJ6Qi7p6rNS6r8r/6MBx6UhzLcogz6dqmSdSjXUsysRpNK3z9aJODQe1mTZV90iQnNgE6RHXPl1q0qA2bhoOuO9Burzemt5a9+IoQR2Gjw2CcnxSC+9vsFLyR0fLKKTuND9p7wuDEM5yc1hRHXmhpPJUIXr8E9928sawLx1fMWrRoad5UBmP9kvv46qdlsleaBDbjArZ6F+N9Vzuwz0UoKilDiSgTD8+cQJa7H/aPVfCGWhV/h3GZicf2QQ44MzYQkV+92+xkfAVLU7T8k2FKCiAqZ1EScgDXzedgwuuahNdD4RdSWl4HbBXEvO7o3auF7BUtbwQW+SGHcOmtOZinnYRr0fL3hc1HyKFLeGvOPNkrTQObgZOey/Gwy/+hb5eesB0wFCPHjMWE6TPg5PAuejV62YV2XG4o2om4FvURR2PHKHOYmbXHO0sLMG/F0CY5BlhtxAUoeMGgKF8kd3KflleIOA67R3VE79n7cOl/4aicuRrzbbSTvuYAK4pBFDsRm1eNwht5JtaiRUsTwEIUEwV24masGvWqIlkA0/YG+HPZQIyZswwbtu7A9k2fYfHcj/FHl0Vwkzr1XCP+DuOy+DmeF4lRUvhCwSbjN492aYoWDRAj9epB+MS2xbh5M+HQ7jU+x1Uk4frx3xCUUgSxwBRWo2ZigWMX6Mrep+UVIEbanz/hREAuTPpMgMv79mjXwJytRYsWLVreFBXICL+ECwExyCzjo7Vlf4yd8n/o81YDE/rfYVxmMnDn5C+4mpiPqhat0WWMM9xHWcne9UbRTsS1aNGiRYsWLVq0aHkDvMZXmlq0aNGiRYsWLVq0aKlBOxHXoqU5whRCVKR48wtbnIyYpMJmtzWmSeVii5Eck4RCtSorR0bMI+SodW81pamIfJiu8PeLtbwKWBQnxyBJPYOiPCMGjzQyqCaUIjU6AXmvqnpZyjMQ8yhHjbhgUSQqbPgBN2q38y+jGehFs9zYgHzWGJqBft48muWnpkY7EX9TVN7Dj99ckTohS33KEq/jp80LMG7YMAwf+z4WLl2NNSuXwNVlHpbuOIXwnIZtR2AKYnH+2zVYtNANiz9djpXrduF02FM8PHECtxQdKydDWeJ1HNnyEZyGDcXQYSPw3sTpcHaejvenz8biz/+L02GZGm3mYFKCcPKbTzFlxDAM/8+HWOzhAQ8PD3h4uGP+++Mwes4BxKvsaikSrvyA9XPGYtiwUZg8d3FtHa4fOGHkyAX4KanBQ59iihNwae9ncJs7Dx+5e2DJp59h5y8heHLnd5x7pFJgVCSdwze7L+Iv2VuZdPy5xxUDrHvB+VBC89l00qRyMUj/cw9cB1ijl/MhJHBWxqIw8hRWOtrAZtR2BKvtXCxSDs3D4CHuOJH9ZhJvs6MyGRe/XokVW0/iXh4LMBmIjMxs+KRQCib9T+xxHQDrXs44xG1QsIWROLXSETY2o7BdfYOqCYvcsCPwHGmD7uN2IUxp9UX438f90GP8DoQVy17TALYQkadWwtHGBqO2B6uV+8pjfsHGHWfxRI18W0sD2vlX0Bz0olFubGg+ayBNrB829RBmdO+HWYcSGl3X60ST/PTKkP1h8WYJk0sR95JI6tiWvz2is3Opg4kj7X/awF6VnqN5ZnwydfatPVxBnHuHdv2fOel1mk5HkzSpl6GsaxtolHVv+nBfIKWVV39c8hdd+GI0vW0wjg7kyBRRRul5mm/Gp1YfnKbi6o9eZoTQsWXDyKyFKfVfcpZSNBGt/BZ9as0nvUnHqN4RBeXx9N3CDRRQI6sKSv+YQ235ZjT/vOQoHiIiYnLIf8UHtOFOhfStjeLFvb30vtCGxm28QH8VVx9YwIgoxudTcmhtQQsvcwssfupDbi5fU6SUmPWoCKaVQj16Z00oNZ3UTUCTylVBwSuFpPfOGgpVWRlDaXtHk15rF/pdmc6IiMmNoHvSMVGSQg+i0qoPZmomvLE8x1Cu7xZavu1zer9nK9IzH0SzFrjQhvMi2RsbTEXwShLqvUNrVBuUmLS9NFqvNblwGbTBiClp11DSe3sBXVBWffE5mt/Lib6LVnaDBjBptHe0HrV2+V1tXxP9+TlNWfgrSZ9TppIGtPOvoDnoRaPcqF4+azKaTD8MZRyYQD1dfDQb35sJmuSnV8Hf4o14afhebDz+WMXT5N8INhWnj19DUVkQjhyLbli/BG1galz/0GV+uyFYuXcZ+mefx9c/hqn9VCqO34fZzntR4f4LjnuOQKea3/Q3ssGkLWfgPccUL0RqvhsTmKKVsQ50+Pzar1v0OwyG63f+uPjFO/jL+yO47o1X/00bvyVatVTgpnrdMffTaeio5k+f8g0NIXeqNs8MY9dtwHTzBu4Yl4FN/wXu09bir8lH8fuWSbCpkZtnit4ue/H77mHQEVXJFquDScZhz93Ahx6wVfa7kHxTmJrIdqQZ0KRy8WFqaqLwSHF5eDAxNlJxbynC927E8cdSkWZkCbt+nV7vz2+q4I3mOTsXfLH+a5x9EI3rO10wfOLnWDVR+ujrxsE3NYW67sEzMYaRmvdqDh/GKvylMj4f/feehGefJvAOngmMNeyM6ejPMKdiGz498lT9PNmAdv4VNAe9aJQb1clnTUiT6acMcewEHPd2gWXTDKevFU3y06tAwQynsbAofhqH5GIWjCgJYUHhSCqUTydlmTG4ExCE+6nF9dYmlaXFICGPQXnmQ9xNeI7ssH2YP2cP7qZE4Zr/LcRKLexTVkdpWgwS81mgMgdxISGIz5Uf2pSVBYDK3ASEBgQgPEkklwiVlStOvo/YbPl2FCF+eBQX227BtnGGiP3ZG7dKZe9oODpGBtDXYVFcpO56NBHOf7UTgawjFrv1kf/ZIV47TFi5AH3R2B/XMcKAVZvh0rEEt7/bixtlstc1oywmGjm97dHQnz4FWORERSK9jS3srLkqYSBKjsDtoDAk5HI92hTj2vb1OFs0Gp4rh8JY9jJ4sJy7EYt6K9djyY1d2B1lj6ljWslegrggCXcDgxCZ/lL2EqDULxsXi+rEUcPkUoK4AEl3AxEUmQ6FtZVlIuZOAILup6JYqjKeDkcGZfMQtm8+5uy5i5Soa/C/FVu9NrgcGdHxqFuZop6uGFEyIm4HISwhV+mDLpsfhwB/P/j5+cHvajhSygCgDCnhV+Hn54+AuHzZEshTlufE+Xgcfgs3A+4hWUaesvRoyTpqphDJESGITKtJJJXIiQ9B8MNMmTXwYuQ/DsetmwG4lyy9FpmHdua6yPwrH6xeewj728P2nfYwlh0dGBGSI24jKCwBnKFQixgFSXcRGBQJxe5RhsyYOwgIuo/U+gblmIiwKHgUBH8/iX79gxNRxAIoTsKdq37w8w9GYs06TyX+oiPlL5XZsbgTEg9p19YdsBCL3slGoswiXdlxgc2KwnV/P/j530ZCIQswmbh/1Q9+flcR9rQmwfGg0D05ddkG46f3R8Su3RqMDYraUWZvRZQhPVqyLpkpTEZESCTq3CkH8SHBeJgps6OCwzdRloaYhDww5Zl4eDcBBTWXK3OREBqAgPAkyL7bEec/Rvitmwi4lwzZ6tRBca5RpBdZGtB3NXJBQ3Oj4nym7jikHMXtqaOfUqTFJEIyFMQhpDZeWGRFXYe/nx/8bz/Dux4fo/+L+7jq5we/q2GoDYEG6lexvBy+xRlTimhgfnoFyKbaRsGkB2G/2wBY9nTBfp8tGNd/IMa+Nxg9hGOw9U6R5CY2C/7b3LHKOxDR985g1TAhRmy4gbzsMBxdNho2wrHYfHAnPhg2BIPfnYtDTw3QuiULtqIUhYVFKBNz1JFzFyeWj4aNcDy8Th/BIqcJcJk7AbZ9psK7Zh2wkrL5rGTQDtgxD67/vYHU3GjsnyyEg+d5ZLEqylUG4otxgzBgrnc9fSimBNcOhaKPmysWuE1Gu2e/4+C5XNWTFHUQp+PyjsMI5b2DWS4j1HvbVxaEC9dywRM64N02shclCN75P/xfdzVfPXNhNAxjh7QCZQXjVqxakaIQcdEjnN57Co8aXgWYooc4sf8sUuTnlnUUhuE7V2es9Y1BWuIFrBreE05bbyne5FV2C2fOp0Onx1AMM1MSVro98W4/+Sm6hGJc9/kfsnq9i3frGa4MMYfmwsntCKIyknBxvSe8H0uNUkr8Mje1EbGoThw1UK58RboDUBZzCHOd3HAkKgNJF9fD0/ux1MSBRZb/Nriv8kZg9D2cWTUMwhEbcENZZVKwhZnIN2iNliyLitJCFBaV4HnkaXw2zgZdR2xBULmaeQuFCPvOFc5rfRGTlogLq4ajp9NW3FLgDDyDlii9/iVmTnTBgRQztNMHAH28xb+D7esvodS0Zf0CbCEy8+XzHJN8CvMHTcfeh8+RHeIFJ+EwbAktA1sQgVOr3oOw20hs9j2LTbNnwfWj6RjcYxBW+Ufg5JKJmLZgMWYM6oHhm0JRBsm3LafmD8L0vQ/xPDsEXk5CDNsSijI2D3dPLMdoGyHGe53GkUVOmOAyFxNs+2Cqd1KtDQrDvoOr81r4xqQh8cIqDO/phK238pTnrbIYHJrrBLcjUchIuoj1nt6o7x7+2Oa+Ct6B0bh3ZhWGCUdgw4185fXVwoPRW3pI+HEhJk3ZgQemHWDEA2D4Nlre/RZ7IgRoYwg1/KUST39dgZmzPbBoih36TDuMJwzAiiJx+rNxsOk6sm6NupJxIce0Mzrm/IxFU9xxJF4M8Nugk1ki9s2ejJW+ytfXq6NLA3t7vJNxDj431Z6J10eZvWXvA4uCiFNY9Z4Q3UZuhu/ZTZg9yxUfTR+MHoNWwT/iJJZMnIYFi2dgUI/h2BQqqUGZb4LNRdjRZRhtI8TYzQex84NhGDJ4ABaczENewA7Mc/0vbqTmInr/ZAgdPHE+iwXAIPnUfAyavhcPn2cjxMsJwmFbUN2UajTMNXU0rO+qc0HT5kaNxiFFaNpeLSzy7p7A8tE2EI73wukji+A0wQVzJ9iiz1RvJDE8tOncETk/L8IU9yOQhEAnmCXuw+zJK+GbWdUw/SqTV6zMt/LViql6vLL81EBk16o0loqQ1dS9hTmN2eRPz6qISuMP0zQLPunab6aHVQzlnJ5No9eGVa+VYij125Gk28KONkZWEZP6LY3SNaA+y65RriiObvg/pPyqTPreUZ8s3K6QZHUtdx3iJ7tpqK4JOSw7T8kVRFT4O80206Nhu5+QmLNsBWX94kw2Tj9QKkNEVEWxu0dSmw7z6VwJV7kqIiqhmN++pYN/ZtSoQSlM5lGaOXE3JYiJqDyIVggFZDhiD/2l6bqqikBa2lVALSyGkPNHbrRw7mQa2NmI+PpWNPX7qNp146pg0r6j0bogvXEHKVf2YkOolkt67brURQpa3o0EPHNaeEnNFWlV92hDnxYksH6PFi5eTIsXLyY3lzHUzcKFfpNvQCnl/ouoI1+fuo6eSbNmzaKZkweSZc+ldEvpkm0RXVkspB7LA2vXzpUGr6IeuuY069dsql79XQvzdA8Nb6FYjy9iL9L+ldNp5NChNGLaSvrxVorMHURUcYdWdW9BHRf5V/u5hNLgNdS3ywKqXa5bcokWWrSoXm/I7ZeNiUXuOGqcXHKUBtOavl1oQV1ldGmhBbWoXiPO5Jym2aPXUlj18j0m9VsaqduC7DZGUhURvTg2ifQ51lQymd+To74FuV2p0SxDWT84kp7JTDpT7UPcuiISXVlMwh7LKbDOGWhVD10yn/UrZcs6AxFRaSAtF+pRjzUhtXkr+8RcmnUwTc53iIiIkc1zYnr01UAytN9CMVVEVHWX1vXWJ9vqPjOZ35OjniENWhdIWWIiqnhAX9q2oFaDP6drz6qIqIoiv7QlvS6edKucSPzoKxpoaE9bJJXR3XW9Sd92I0VWEZH4Ce0eqksmDsvovMTY9PtsM9IbtpueiIlIdIUWC3vQ8rrOU/CqHqRrPot+Vdx5Cl7Tl7osOE917rGQLFpUr8Fkcuj07NG0ts6g9O1IXWphVy3Pi2M0SZ97jXhVzDZ618CCFpwvlHzAZNKxT9aQX7Fqf8k96ET6xoNpQ2AuMURU/L/5ZK4/kr5JkfSFyfqBHGvXqDMc4wKROH47DdDvTqtr9plU3KHV3Q1o8Nd/Va/1f0HHJunXrcFVV5cvz9Hcti3onTUhaqwrJrl2OO0tB0OZ3zuSnuEgWheYRRJ3+pJsW7SiwZ9fI4k7RdKXtnrUxfMWlavwTWJS6dtRumTQZxldyxVR3A1/iow/Rc42TvSDRIlUFbubRrbpQPPPlRCJH9FXAw3JfksMSapbR731bRXnCjlU5RoZ/cuhad9V54LG5sb6+UyzcUgeVe2p0o+YnuweSromDrTsfDJJhoLZZKY3jHY/ERORmOK3DyD97qupLgRWU3eDwfT1X+IG6FeFvAp862HyJfViqpZG5qdXgJJXdw2HZ2AAfX47DJniCAsBYNjDFVvcbUExgQjMKUHAOX9kPL6EPV5e8PLaCZ+XTti8dR7sDSRldXkmcHAcjnamPeHo1Bdt5CQs46yD37IljPjGsHVygrUuACMhunXioaiwAMRZVgS/0/7Qs3NAex4ACNBrdQDyM45jqhFXOQAwQu8PlmPx6A6ywsrA4NFxX+jMmItufAB6g7FwXn8woUfxU0TDXu8aDVuOo0cO46efz+NOVChOurXFreWj4bjpNmre5XHBMzSEHk8HVFWO8lf2uFcDoaSkDMQzhmlrOcNywu89G98ePIiDBw/isM9VnFnRFxq/o9cxwbDlJ3D69GmcOR8In4+FyusouIjDv6bDpp9d7TcLhgOdMVX4HJd+8UOhzO0wNIIhTwdsYT7yZV6FGfeaiI8Xv4vKu+F4LpyJhaMs698AybcZ6VlAy1atpL6WL4H/geNI7jMKo2uW6+pbw6p2TTu3XzYmFrnjqHFyyVLifwDHk/tgVF1lsLYyR21tAefgn/EYl/Z4wcvLCzt9XsJp81bMU1SZWvBgbNyy3vIHbl09x8XDvyLdph/s6pwBzlOFeH7pF/jJOQMAw6Hw/HQYMk58g7M5LMCkwvdyC0yb0UnNryH5EHqcQJCPJ6zSA3B05zGEiVhUvCwHC4DX0giGOrqw7u+A9nwAukLYWAqATv0x1EIAQAAryw7QKRJBRABf6IETQT7wtEpHwNGdOBYmAlvxUhLz/JZoacSHsa0TnCTGhrBbJ/CKClFAQMHFw/g13Qb96jqPgc5TIXx+Cb8o6nyJPw4cT0afUaNR5x5WqHOPAJzzz8DjS3vg5eUFr50+eOm0GVvn2UNdiwp6LoTHe2U45+2LDBZgHp9G+NszMaalmv5i+A4GDmgHHgD9zp1hhkKIRJIEyDM2Rt22FK5xoa46dVFblzqmaGVMyExJa9CeAU57y8FDSyND6Ohao79De0jcyQYSdxoKiTtZwbKDDopEIpAK3wTPAAa6PJg4OGJ4O1P0dHRCp7Az8Nezg4NEiRD0Wo2A/Awcn2oE8IXwOBEEH08rpAccxc5jYRCxFXipWFgZNMs18mja9wIVuaBpc6PG45AcGrYnBx8tWxqBb2wLJydrSIaCbujEK0JhgfJllnVoql8V8irwrY7BR9SLqRpeQ37SFPXGhEYhQNde3WCEKlS8fIG8/JfQ6zEVa9atw7qaf2uXY3L10geVy5XYYu46dGTWF+rwwdcBiCXusjZFyH1ejsICkfxqaK5ymizZKLuNw5eKwbuzCUs8PODh8Sn2p5qha4tEnDp0FY35pSwA4Lfugw/3/Igl75Qg/Jud+D1XjUTWqj/shQIwj2PRiNUi6iFOQkRkLqi1Awb3kVuNrgEC9J0zD0PVWnujDD3Yz/gAvVvIfi6ByUnDszIWlZVSa9cEVrC04KGyUIQXMqrltRmMQb0FED8KQbCC7wx1WhrBQEcHBkYtFQcdVaGqigBp72PSkfBXIcAXKC6jsV9qEItccdSkcjFIT/gLheBDoLgyFOfl46VeD0xdI1XXurVYPrm78gcpFejI9k8OKV2VZSPtWRnYykqpNdcCWFlagFdZCJGsMwAA+OgybwVm6F/GNwdjUB53CrfenoWJSpZ/KYIneImofe7wOJqJfh95YIw5r8475OTXAU+nnvdAh8cDag5O5gnwMmof3D2OIrPfR/AYYw5eXWUy60R1wJcYGwQGOWnPUMZWon4oWMKCV4lC0Qu5r2uZ9ARI3EOhQcEW5yH/pR56TF0jZc91WLt8MuTcQxk8c8z0mA7jW944EluKu78+Qe/ZdtBtiL/weeCDgbhmH7W0bpl85eOCxmigS50W0G0BsKysdtWE097ySK+bl3zAg059b0J9d+LwTcntUjDIz32O8sICiBTKwIPgZRT2uXvgaGY/fOQxBuZcwkqjUa5RjEZ9Z3K4c4EotQlzo+bjkBwatqcIWf3o8PnQAYFV00Sy5Tn1q468Mr6ldkxV81ryk4YolqTREEiq91Vl5WDNeqB3x9boYG6IBN8juCn1A9pMsh8uR6v53M8zaXgdXGXj3kJnCwPk+J3B1YKaKyzy/bzh85eR8nKq2qyFRd75n/DI6Qf87C15s3vw4EEcPHQS26e3Q84fh/FblqzLNACBBTqY6QBVL/GS4wc6ahHYwtVtJIxzLuLo2Sw5pwWAysdXcDlafjOFZrDIv/odjj/ko/fCTzFB2VJpNeG/bY529BQXzoVDk5/clUb/7bdhqiQC+B26oasJg7iI+3XrKtlKVFTy0LGfHcxlywl6w33FFLQvuwnvgw81l0nQHm+31UFpcanUZKsN2rYRoDz2PqJkKiSW5fbnWr98BbHYJHLVoIM2bdtAUB6L+/KVgQUPJh3MYZjgiyP1K4Pf5Qb+4pBSlOiqUyd062oCJi4C9+ucAZUVleB17Ac7OWeoppUTli/ui0eHv8bWHx6g15zRMJS9RykluLJiCtbnz8D321xgb1YzAqg5+slQcmUFpqzPx4zvt8HF3qx2Qqq6Nj46dOsKEyYOEXWdB1tZgUpeR/SzM5cbRHTatEUbQTli70fJxAFB4h4dYG6YAN8jN6XOUWCQ7HcZcu7BQctxHnAVxuHYN1txumgkZnXhA03tL/y3lY8LiQzAF4CvYFJCpGiFuAa6pDKUlungrbfNar8Z0oSG21sdNPVNPt7ubAGDHD+cqVMi2Hw/ePskgim5ghVT1iN/xvfY5mIPldVJo1GuaQL4HbhzQYe2TZgbGzAOyaJhew2BL+BXP7RLQ1AYAqrQWF4NYqqa15WfNEFWxqaBzUNqSkn1/zNx4UI0ensswRh9I4xd4ALrFG84j5qNrT/54uwJL7h9HgKjLpLoI4hRJd1Znj709YAXWZkoyAtHcLQOZx0sw0BMrOTNXXWNBALLsmDB1f5bGL9gJjpln8Ti95fjR98/4LPnE7j6CjDExoSjnABg0nB29Qdw3R8hJbgM4jgcOvwCUxb0kXkrY4r/LJiOziXX8KN3tGT3ddk97J8/ER9uvSrZKKoIqkCF3BtsFgXB+3A8jMHbE1wxxZynRl182Hzsjf0zW+LS8plY97/HqLYcABaiiBP46jzBrre+GnUBoEpUysklRtatHZjldhLl732F418OlnzNpk59rBiVYgIYRmbzUwUSjmzB9Uoh9NSohyqrUEVVqFLn4QQAWk3EUo8+EJ39FkcTJR1is68jIH0oli4ZjppfeKyDB4sPv8exVX3x5L9z8MmvSfV/sYKIe1xp0Q/v2urjeXoaardn8dph0tyJaJt8BCvWX0JaJVCR+gCxuQxEGanILuKOBaDhscgZR00hVy08tJs0FxPbJuPIivW4JKkMD2JzwYgykJpdBJ2xC+BinQJv51GYvfUn+J49AS+3zxFi1AUCAAzDSCbtSmzP09eHHl4gK7MAeeHBiC4DWIYFEVv/wVOprlph4lIP9BGdxbdHEyUxymbjekA6hi5dguHyzlCNAD3dl2Ni1W/4Lm4w5tjL9l0K2TwXlY0nyTkoSUvE05JypAdeRGgWg7KiLESFxwIMC7Z64KiBAFDNK8ua/7MsGLAoepKMnJI0JD4tQXl6IC6GZoEpK0JWVDhiXzBgxARWajAlkkwcWBZoNXEpPPqIcPbbo5CEAovs6wFIH7oUSxR0ntduEuZObIvkIyuw/lIaKlGB1AexyGVEyEjNRpHOWCxwsUaKtzNGzd6Kn3zP4oSXGz4PMUIXiUHBVPsaJwI7LFw0HPm/nAVNmoi3qj824vQXVlKv3MSh+nMAYBmJbokF0IpjXOCDb2aB9roZCLv2ADm5j3D5wHHcyRcjL/0pnheXA2AgcU+Jr6mty7IMZIr00dehL1qgDPf2z8fED7fiqrIEV68dFfauS/B1pat1Ulc7SWK+VkmS/7MsA7BF3L5ZXVwsNZC3Gr8AMztl4+Ti97H8R1/84bMHn7j6QjDEBjpFT5CcU4K0xKcoKU9H4MVQZDFlKMqKQnhsroq+c+cxWf0rQqO+Q0UuMGh8bqyXz1SOQ6p8o7H6YcEwYhAr9bApSQ7V8cKHmUV76GaE4dqDHOQ+uowDx+8gX5yH9KfPUVyuqX5VyavAt9SNqWoanZ9eBbKLxhtLVeSX1E/XnAbNdKNPVqykT+ZMI+cvLkodTlBK8ac8aYxNa9LTNaHOQxfR8dhSYvIf0Ol175E5n08WThvodMTz6o0IYko69iEJW79Fwql7KKxYeR1UGE1n1zuSGb8FCWftoStxiXT76FIaYsojQzs3OhycobxsjWw+njRG2I6MW1mQg8seup1bs9ifo1zVPdoy4C2ydP29+t76MFm36ceF9tTKoBfN3nWOoqv3FxERMQWRdGb9WDLng3Ra9qYPv7pIj54eo2ntTamt2VDaGiO/O6A04QYd3TyJLPk61KK9LTlN+5AWLFxIs6cMpz49HGjS8uMUWX36DZPBXVct4hy6c2ApTX5XSN36DKLR46fRrPnu9NmBO1SjAlV1lSbcoKNbJpOlQIdamNvT5A8XkNtCV3KeOJKGjHamNYeCKVOqmKr6xMl/0uHN75NQT4d4rW1p2kLJZs3FixfSnPG9qE3bD8gnX1U9JfTo2hHaOKET8cGnDmNW0fcXYkjKBMqpSqELGyaTvd0omuX+MX0014O+CcxRsUHmJT3x20NLpoyi0VPmkceylbR8yQL6YPwEmvfFEQqqPS1JFoayjk2htsLlFCS9O4sR0d0fXGmQZWsytXKgSZ9upoWDrGmwyxd0LDSL0y8bGotqxVEj5JKHIdHdH8h1kCW1NrUih0mf0uaFg8h6sAt9cSyUshii0vhT5DnGhlrr6ZJJ56G06HgslRLRy4RLtNGpPfH5ljR1x3mKrXfqUzXiJDr2oZBavyWkqXvCKDv+Im0a34H4AiuauuMyJZaro6sqSrmwgSbb29GoWe708UdzyeObQMrhdgYiKqfA5fY06VCGCr+RzXMMZZxbSgPaG1PrriPI7cAt+tnVkky7TKRdf4bThU3jyYIvoC7Td9LFmFSK+mMbTe7MJ0GXaeT1v4f0NMKXNv7HgvgCa5rm5UePn56jpQPak3HrrjTC7QDd+tmVLE270MRd1+nO2fXkaManFsJZtOdKHCXePkpLh5gSz9CO3A4HUwZDVJVygTZMtie7UbPI/eOPaK7HNxTI0XlGdJd+cB1Elq1NycphEn26eSENsh5MLl8co1CJQemU5xiyaa1Huiadaeii4xQrMShd2uhE7fl8spy6g84rNKgUoj9o4cSt9FAm7JX5S+HD3+jz0WbEbyEk592XKDYhiI4sG0qmfCOyX3yUwp7E0sVN46kDX0DW076iK4nlKsaFFxS8fSx1NjEhC7sZtOvWFVpj341Gzt9Mp+49o4RLG8mpPZ/4llNpx/lYIlJPlxXBK0n41hQ6lsUQMRl0bFp7Mm1rRkO3xtS7T8JLuXaYDGX2DpXLfSXxF2jTeAviC7rQ9J0XKSY1iv7YNpk68wXUZZoX/e/hU4rw3Uj/seCTwHoaefk9pqfKfPPOU3pweh29Z84nvoUTbTgdQc+ru1Ya70OeY4TUzrgVWTi40J7bks2yxGTQuaUDqL1xa+o6wo0O3PqZXC1NqcvEXRRaoKrvxJFr5PUii+Z9T6IKVbmgEblRYT7jGodU+gZxtKdaP4XRZ2m9oyReZu25QnGJt+no0iFkyjMkO7fDFJzBEL0Ipu1jO5OJiQXZzdhFt66sIftuI2n+5lMUFPK/BuhXibxMvlLfUiempGlwfnpFvJqJuH5f+uKB7IRIi2ZU0O11C+m7J5r+nIoimmtd1IT1NVU9b5DSIFrV15423Gua2NHGovq8Ml0xqXRg7iL6vUD2ghYtyqiiyC8dqO/q2/V+eari9jpa+N0TqU/+Pfyb+64OWv38vXk1S1MAKPmeQ4tasMgPOYRLb83BvC4NWSEoTXOtC01YX1PV84YxHI4v943Dg/2/Ir0p46cp6/qn00S6YkoKICpnURJyANfN52BCa9k7tGhRDJt7HgcevId9Xwyr3VPA5ofg0KW3MGdeF5m7//n8m/uuDlr9/P1p8om4uKAAL5gi5IvkFgprURNWFIModiI2rxqFxo7fzbUuNGF9TVVPc6DVyG04+EEKvv/xjhoHLnCjjUX1aVJdiaOxY5Q5zMza452lBZi3Yqh6h2tp+dfDiu7iyL5ETPhhO0bWHLDLihATxWLi5lUY9XdPcJryb+67Omj1849Ah6R39zSSiqTrOP5bEFKKxBCYWmHUzAVw7NKYn6nTouXfSUXaXcTAHg6dG/aGXxuL6tP0uhIj9epB+MS2xbh5M+HQrsnfd2j5R8IgLSIC1HsgLLVPblq0/Gto0om4Fi1atGjRokWLFi1a1EP7qkaLFi1atGjRokWLljeAdiLehJRnxOBRTiMX9v4TYIuRHJOEwlelivIMxDzKaap9da+AcmTEPMI/yRVKUyPxMJ3jUKdG2ZxFcXIMkjQprFF7b8Aezd5HG8Jr1KNG9pWlAf70ClAZM82KUqRGPoQm4qruX/Oww6uhsbHQ2PKyKLJfU7fxz6I0NRoJCk7BfhNoJ+JNAFsYiVMrHWFjMwrbg5tgsxebikMzuqPfrENIaILqXh8M0v/cA9cB1ujlfAgJTX0KFVuIyFMr4Whjg1HbgyWHKTQrWBRGnsJKRxvYjNqOpnCFZgGbgkPzBmOI+wlky+WtxtmcSf8Te1wHwLqXMw6pVViT9t6APZq9jzaE16lHTewrj+b+pC5F+N/H/dBj/A6EFcteUwBnzDQ/2JRDmDd4CNxPZKv38Kiif6/ODm+axsZCY8srpr79Xk0b9WGRFXYGe5e/j5HDhmH4pCX476nbSK05da8iCX8e3Q63/xsOx9lf4PDNJM1Pm35FsLlhOOI5Ejbdx2FX2CtRjsb8MybibB7uRzyROXnx9cEztYPLiikQNtFyezbbDxfiHfD5zoV4pzF7xl47fHQa4wn3kW9JnZrVhPBMYeeyAlOEKk6pfGPwYGrnghVThK+m/28KnhUW/RyKkMPz0V4uYzTO5vxOY+DpPhJvqV1Yk/begD0a4qNvOH+p5nXqURP7yqO5P6lJyS3877Y5PHatwiBj2YsK4IyZ5gfPahF+Dg3B4fnt1ZsUqOjfK7PDG6exsdDY8oqpb79X00Z9eDAf5IxPF9nj5d1w5ApnY+mc4bCs+W0BPRuM+Wg1pnUqQxeX9XB3tFFwGvWbgWc2CK7LJ6Kr7IU3iIIQ+vtRGr4XG48/xpt87uaZGMNIR/bThlEWx2LCcW+41Hr13wk+TE1N0ESqkIdnAuOmUvQrgQcTY6NX1/83hJGlHfp1UvZTDo2zOd/UFCYaFdakvTdgDw19tDnkL9W8Tj1qYl95NPcn1VTG56P/3pPw7KMsBuThjpnmhhEs7fpBE3FV9e9V2KF50NhYaGx5Rcja71W0IY9O27fQWkcHxqamCiaTPLRq3RFt33pV58I3HL5x083XmgJ53TUaFsVP45BczIIRJSEsKBxJhZJ3PWxWFK77+8HP/zYSClmAycT9q37w87uKsKdl9Wopy4zBnYAg3E8trvdVWVlaDBLyGJRnPsTdhOfIDtuH+XP24G5KFK7530JszZofcT4eh9/CzYB7SK5uvwa28AnCA28jKq0I+ZlZKK13VRVlyIy5g4Cg+0gtlpKMp6OW05emxSAxnwUqcxAXEoL4XMnwK62bZ+964OP+LxTqpiw9WrIOnSlEckQIItNqpK9ETnwIgh9mQm7VXlkmYu4EIOh+KqRFRlkaYhLywJRn4uHdBBTUqomBKDkCt4PCkJCr5lc34gIk3Q1EUGQ6XspeA4cMcij3Hwk86MgpWoz8x+G4dTMA95ILpd4sFuHxnavw8/Or/88/GInV6xbF+Y8RfusmAu4lo76bsCh8Eo7A21FIK8pHZpb6XsKTF5DTHxVTidyEUAQEhCNJVP9+pTKzxXgal4xiloEoKQxB4UkyfeIoW01lbgJCAwIQniSq/4a2PAPR8TJfW6uwOXdbYhQk3UVgUCTSFRVWhIr2lPmYQnvIUpaO6Ec5YMGgMDkCIZFptXmhMiceIcEPkSkTWMr7p8hHFcnHIk9Z/lKWZ+RyYEGtnRhRMiJuByEsIZdjSQyL/LgA+FfHwtXwFJQBQFkKwq/6wc8/AHFKfsBekR6V60AJcjqQgtO+ymK87rom/qRpHtUdsBCL3slGotSCW2W5vBbZmGmAj2meN+T9puRJCK5W29s/IBZ5Fem4Vz223Eur85TyjGjEy6wzKc+KxZ3AYESlFskvWZHtH6DSDpr4C1v8FHHJxWAZEZLCghCeJGt3Dp9QMrZp0j6g3F8VxYI8yuVTVr40IxrBQaF4lFuBypxkpBSzyIq6Dn8/P/jfToBk2nRfYs+rYZCeNsnaT3Eb8v5R83laTALymHJkPryLhLrJQNNSmoaYxHywqEROXAhC4nPVeAGhfCxUPVdRUlZHar5WmY3YOwriV6mump4mnYgz6UHY7zYAlj1dsN9nC8b1H4ix7w1GD+EYbL1TBF6bzuiY8zMWTXHHkXgxwG+DTmaJ2Dd7Mlb6Zkoclc2C/zZ3rPIORPS9M1g1TIgRG24gLzsMR5eNho1wLDYf3IkPhg3B4Hfn4tBTA7RuyYKtKEVhYRHKxACTfArzB03H3ofPkR3iBSfhMGwJlXhsZfQ+uHr+gnRxOeKPzsagD35Ciqz+lcBm+WOb+yp4B0bj3plVGCYcgQ038uUTlALYvLs4sXw0bITj4XX6CBY5TYDL3Amw7TMV3kmMSt1UFUTg1Kr3IOw2Ept9z2LT7Flw/Wg6BvcYhFX+ETi5ZCKmLViMGYN6YPimUMngChZZ/tvgvsobgdH3cGbVMAhHbMCNvGyEHV2G0TZCjN18EDs/GIYhgwdgwcl8oDAM37k6Y61vDNISL2DV8J5w2noLXHsaymIOYa6TG45EZSDp4np4ej+WSjpKZFAw2KvyH4UwyTg1fxCm732I59kh8HISYtiW6v5XPsKJHd4IzyhAYWEhCp9H4KD7ZExfdwm5fELyqfkYNH0vHj7PRoiXE4TDtkDiJpWI3ucKz1/SIS6Px9HZg/DBTylqJAzFcPmjIti8AOyY54r/3khFbvR+TBY6wPN8FlgwSmRmkB60H24DLNHTZT98toxD/4Fj8d7gHhCO2QqJ6pSVrW0UATvmwfW/N5CaG439k4Vw8DyPLLEIkac/wzibrhixJah2csJtcxVtlcXg0FwnuB2JQkbSRaz39MZj2fwqA3d76vuYHGwBIk6twnvCbhi52RdnN83GLNePMH1wDwxa5Y+Ik0swcdoCLJ4xCD2Gb6rug4r+yaFEvrwCZObL5y9leUacqyAHDliAk/mFCPvOFc5rfRGTlogLq4ajp9NW3FIYtDwYtCzF9S9nYqLLAaSYtZMcNqT/Fvh3tmP9pVKYtlRnWGgiHVTbiNO+XDEuKay2P7ENyKOsKBKnPxsHm64jsT24UmUuBysTMw3ysQbkDSV+o9fWDOLgrzB74hRsCiIYtzBEqs8q7LhVjtatBVL9G4EtQTURXoTQXVMxaVMYqvSKcPmTQejx7miMmzAd229mKMwJ3HbQwF+YdATtd8MAy55w2e+DLeP6Y+DY9zC4hxBjtt6BJJ0p8Qk2V8nYlqt++4BKf1WJMvlk76uhLA7HPSZg7s6riEsIwjez7GDdcxoOJbBo07kjcn5ehCnuRyCZGnSCWeI+zJ68Er6ZjBL7yaPYP/KQHXYUy0bbQDh2Mw7u/ADDhgzGgAUnkS9bQWNg83D3xHKMthFivNdpHFnkhAkuczHBtg+meicpeLCWoHwshMq5CmfZaiqf/ooVM2fDY9EU2PWZhsNPJJIo1pV6c70GIXvmfWOpCFlN3VuY05hN/vSsiqg0/jBNs+CTrv1melhFJI7fTgP0u9PqOxXVBe7Q6u4GNPjrv0hMDOWcnk2j14aR5CpDqd+OJN0WdrQxsoqY1G9plK4B9Vl2jXJFcXTD/yHlV2XS9476ZOF2hcqJiEhMj74aSIb2Wyimioiq7tK63vpkuzGSqqiCQlb3JtvPw+glERGTTT7b91NclVQHlMHk0OnZo2ltWLXcTCp9O1KXWthtpMgqInpxjCbptyaX31/KlqxF/GQ3DdU1IYdl5ym5gogKf6fZZno0bPcTEpMq3RAxmd+To54hDVoXSFliIqp4QF/atqBWgz+na8+qiKiKIr+0Jb0unnSrnIjJOU2zR6+lOpG/pZG6LchuYyRVMan07ShdMuizjK7liijuhj89zM+nK4uF1GN5oEQ/RFQavIp66JrTrF+ziantiRSlwbSmbxdacF5U/UEJXVpoQS3eWUOhFSpkkK6nGlX+Q/SCjk3Sp9Yuv9NLIhI/+ooGGtrTFomx6e663qRvW22Tqli6dCmhup1iCvnCnlqaDqevI8uJxI/oq4GGZL8lhiRuso5669vSxsgqoooQWt3blj4Pk2iByfah7fvjFMqriBfHJpF+axeSuAKXPyqAyaJfnG3I6YdUib6rYmn3yDbUYf45KuGSmSooZHV3amE+hjb5P6MqKqX4w9PIgq9L9psfUhVnWYayfnEmG6cfKFXSKMXuHkltOsyncyUSmX5w1COTmWeolFTbnFO3VErBa/pSlwXnqbb0pYVk0eIdWhNa7SSyqGhPlY/Vt4cCmEz63lGPDAeto0BJYNGDL22pRavB9Pm1Z5I+RH5JtnpdyPOWCt8hkvNRTvkYmfylIs8oyoHJlxaTsMdyCqwLWlrVQ5fMZ/1K2QqDlqg0cDkJ9XrQmhBJ1iQmm07MnUUH05QUkNWjSh3Uh1MHKuzLGeMN8CdN8ygREZP1Aznq1eV3VblcLmY09TGN8wa335D4KR2d2p50u3nQheA9NH+JLz2TMrWkfyY080wpERFVxWyjd1s60LY4seTvB19QX72utDSgpn6Z/qmyg4b+QhUhtLp7CzIfs4n8JQMBHZ5mQXxde9r8sIrbJxSNbblxGrXP6a+ysaAATvnkyhfTn8t7k92aO9W6lIyD7+j1pnV3q4hITPHbB5B+99VUNzVYTd0NBtPXf0nsI2s/uTY4/YOh1G9Hka5BH1p2LZdEcTfI/2G+4vFeBibnAI3TbUH2W2MV+GUF3V4zmdbWxKH4Ce0eqksmDsvovCRo6PfZZqQ3bDc9kXSjPlxjIYm45yqcZYko9yA56RvT4A2BlMsQUfH/aL65Po38JoUYTl3VStekqPPqQyN4BgbQ57fDkCmOsBAAhj1cscXdFhQTiECVv6NThoBz/sh4fAl7vLzg5bUTPi+dsHnrPNgbSOrW5ZnAwXE42pn2hKNTX7SR6wEfQo8TCPLxhFV6AI7uPIYwEYuKl+VgIYCF0BKp30zGiPlf4WxcCzhv+BQ91VnCVBaAc/4ZeHxpD7y8vOC10wcvnTZj6zx7GMjeqwR+y5Yw4hvD1skJ1roAjITo1omHosICtTZ28VoawVBHF9b9HdCeD0BXCBtLAdCpP4ZaCAAIYGXZATpFIogIKAs4B/+Mx7i0xwteXl7Y6fMSTpu3Yp5EmTDQ5cHEwRHD25mip6MT+uIyDv+aDpt+drVHchsOdMZU4XNc+sUPhTLyAECJ/wEcT+6DUaNNqz/Rh7WVOWpWt3PKoABN/Ycv9MCJIB94WqUj4OhOHAsTga14iXIWgKAXJkzoDgFY5Pt/jgX/fYbRu45hta0ewBfC40QQfDytkB5wFDuPhUHEVuBlOQsILCC0TMU3k0dg/ldnEdfCGRs+7Ql13EQeLn9UgMgPp/31YOdQvWlK0AurA/KRcXwqjLhkBg8GBvrgtxuCKY4WEMAQPVy3wN2WEBMYiBwdrrIi+J32h56dQ/XGKwF6rQ5AfsZxTDUCwDOGccu6rzlV2ZxTtyX+OHA8GX1GjUZtaWsrmHNsh1DVnqY+JgevJYwMdaBr3R8OksCC0MYSAnRC/6EWEAAQWFmig04RRCLi7p8CNJJPRZ6Rz4EdEXzkV6Tb9INdXdDCeaoQzy/9Aj9FQQvAcKgnPh2WgRPfnEUOCzCpvrjcYhpmdJJLqIppQh2osi9njDfAnzTNowDAMzaG9BcFKnO5TMxo7GOa5g0VfgO+Febv243JpUfg4p6ED7bNgIVUf3jGxpAWV5ySjPTKuiVWAmtrdEImUlKq15vI9k+VHTT0F/AMYKDPR7shU+AoGQjgusUdthSDwMAc6HD5hKKxrd07GrXP5a/qwOmzshRdxsFTxRg4zh6G1R/xW7Wq52+qkLWfHJz+wYOBgS54Jg5wHN4Opj0d4dS3jVrLJXg6OhIfUbIrlGUAfk1F/JZoacSHsa0TnCRBA2G3TuAVFaJAUXGusbDgIvdchatsbQOGeGfgALTjAdDvjM5mQKFIBJZTV68GdXTdSATo2qsbjFCFigpF2paCLUZe/kvo9ZiKNevWYV3Nv7XLMbm7ZBrE5Ws18AQvEbXPHR5HM9HvIw+MMedVT3R56LzwJK4fdIZx4A7M7N8dQ5adQ5qy70WkYIvzkP9SDz2mrqmTa906rF0+GdWiqUZ6XRIA6PDB1wGIVaGXGmTLQwc8HdSbxOvweNVBwaI4Lx8v9Xpg6hopXa5bi+WTu0smlTLKZHLS8KyMRWWl1NdbAitYWvBQWSjCC7kkwiA94S8Ugg+BQk9SQwaVqPAfngAvo/bB3eMoMvt9BI8x5uDJ3MZm+MJz0RFUzPwB3gu7Vg/wPAheRmGfuweOZvbDRx5jYF5TkNcZC09ex0FnYwTumIn+3Ydg2bk0pV+fqUK5P8rD5OfieXkhCmpmAPXgkFkRgq7o1c0IqKpABXGUZfKR+7wchQUiJXLpQKd2vaEqm4NTTiY9AX8VAnzlhWVQ1V5T+Fj1YCL9iXxggYeaX0JR3j95NJNPnTxTT1QmB2nPysBWVkqtaRbAytICvMpCiOSDVgK/C+atmAH9y9/gYEw54k7dwtuzJqKN7H1KaSod2CCL077cMa65P2maR2s+kM3dsn/L5nLpmKn5W+pPlT6mWd5Qx294FuMxy8kCTPItXHsg84RWM6GqRnfgRIx7OxE3rz4FA6DiUQJSWzti0siWNQXq9U+1HTTxF8UIuvaCJJ1VgDh8ApANEmjYPpe/ysesQlTJJwWT+QQpJQLotpATWn1k7CeLav/gKMyFgSH0eYSy0lIFD4gsiksAI+OapzFZGXXAlwSNQr/mGgtVzVVEecrLKoYPHh9gxFVq6KrpURY1jYRAUlapKisHa9YDvTvwAb4AfBBk555EDMAzQQdzQyT4HsFNUd01JtkPl6PVXaFbgisrpmB9/gx8v80F9mY1miPJoB77DJ1c9+FmQhwuru+LtAOe2HFD9S9c8kw6wNwwAb5HbqJONAbJfpehtmiq4NKNxvBg0sEchgm+OFJfmfC7HK1wvTO/Qzd0NWEQF3G/bi0bW4mKSh469rODuZy36KBN2zYQlMfifpSMDokF2wAZJHD4jwwlV1Zgyvp8zPh+G1zszWqTZK0KxYnwdl+K/5l8jJ++mw5zHsCKcpFfeAUrpqxH/ozvsc3FHvXdJB2xzzrBdd9NJMRdxPq+aTjguQNquIkCuPxRHv7bnWFhkAO/M1dRUPMhmw8/bx8kFnHIXAORVEKsQlk5C7MevdHhJUdZ/tvobGGAHL8zuFrXKPL9vOGTKOt7qmwOoER5Wzpt2qKNoByx96NkfleWwMpncjXaa6iPNQKO/smjmXwa5xl+B3TragImLgL364IWlRWV4HXsBzv5oK2lldNyLO77CIe/3oofHvTCnNE17+PUoMl0EAMTTvtyx7jm/vR3QbO8odpvWGT8vg1X3z2J484vcXjJWvgVKFcQr91UfHvAFXo3v8O2b/fgq3MG+MzvJNys5HMw1LGDRv5SB9UfCFDOmqFH7w54yeETCtGofS5/lY9ZRXD5rCw6pq3RCs8QESZ56FEEX8BXMGElqDs1UO0fDUTXGl066SDjcSJKZK8xKYh+1gbdOyv2GVVwjYVJb3PPVTqaKy8rN6TJ8Mp0xYHyLN0Y2DykplSbhc3EhQvR6O2xBGP0Ab6ZBdrrZiDs2gPk5D7C5QPHcSdfjLz0p3hezMfYBS6wTvGG86jZ2PqTL86e8ILb5yEw6iJxZYIYVdLK4OlDXw94kZWJgrxwBEdl40lyDkrSEvG0pBzpgRcRmsWgrCgLUeHRSPfdBe8HZYC+Ff6z/kvMsDKEnr4Oyu7tx/yJH2Lr1SypyqUwGosFLtZI8XbGqNlb8ZPvWZzwcsPnIUboIgDAMGBAYDmyP8swEBMr9daEQNVlWKjSTTnAsGBlBhgCQFJvbogIYFkwAIzGLoCLdQq8nUdh9taf4Hv2BLzcPkeIURdJYiBALK3MVhOx1KMPRGe/xdFEyQ5kNvs6AtKHYumS4Qp+B5SHdpPmYmLbZBxZsR6X0iqBilQ8iM0FI8pAanYRdFTJoAgO/wEYMAxALAsWLIqeJCOnJA2JT0tQnh6Ii6FZYMqKkBUVjtiSMkR8/RHW3emKtcd2wLG1pEqR33lcz3qC5JwSpCU+RUl5OgIvhiKLKUNRVhTCoxPhu8sbEjf5D9Z/OQNWhnrQ14FqPwHASASU2Ikt4vDHWNmiQKvxWDCzE7JPLsb7y3+E7x8+2POJK3wFQ9ClhEPmWIm+2LxU1KnuAi5E94bHkjHQLeIqy8f4BTPRKfskFr+/HD/6/gGfPZ/A1VeAITZ8ACwYlkAsq5bNSzjaupczBnMntkXykRVYfykNlahA6oNY5DIiZKRmo0huN5Pq9lT5WD17KIQBy0p8qhZJYNUNfEQgsGAZgOXon8QO0j6qIg5l89eTodx5Ri4HtsLEpR7oIzqLb48mSn4thc3G9YB0DF26BMPlg7YOQU+4L5+Iqt++Q9zgObBXGpASpPWoWgf1Ua4DG5hz2leEbI4YjzeYpKE/QeM8CgBgGUmZ6omhqlxeP2agsY9pnDdUjE+Vj7yx6fZgbFo8DB/89zvMqjyGT1ZfqDt1kWXAkpRORFewblM6pn23A2s9V2DLri2Ya1uz6ARy/eO147aDKFszf5HAIi81pXqCxyLzwgVE9/bAkjG6KvK+/NjWdP6qTk5RNS7VL88z+z+8P8oA4V/PxpIDV3H3/p84fuxPZNU6Hx9mFu2hmxGGaw9ykPvoMg4cv4N8cR7Snz5HcbkC+8nKqMI/qhVW7yGDzb+OLc4fYvstqYcRWXQHYeHioeDd2IevbubUxUtlJm55fYabvV0xrmYtCMuAEUtiqDZqqDpPKtIjx1ho00bFXIWrLB/VcSr/0pNlWbAqdfUKkF003liqIr+kfrrmNGimG32yYiV9MmcaOX9xkVJrF+O/oODtY6mziQlZ2M2gXbeu0Br7bjRy/mY6de85EZVS/ClPGmPTmvR0Tajz0EV0PLaUmPwHdHrde2TO55OF0wY6HfG8ejOBmJKOfUjC1m+RcOoeCitmKOPcUhrQ3phadx1Bbgdu0c+ulmTaZSLtCs2lO+uHUFfb98j1s820de0iWuR1k7IZhjKOTaP2pm3JbOhW6e7UpzSeTnmOIZvWeqRr0pmGLjpOsaVE9DKBLm10ovZ8PllO3UHnY1/IliQqjKaz6x3JjN+ChLP20JW4RLp9dCkNMeWRoZ0bHQ7O4NZNUAhd2DSeLPgC6jJ9J12MSaWoP7bR5M58EnSZRl7/e0hPI3xp438siC+wpmlefpRUQVQaf4o8x9hQaz1dMuk8lBYdj6VSJp8enF5H75nziW/hRBtOR9Dzmp0ZVSl0YcNksrcbRbPcP6aP5nrQN4E5HBs3GBLd/YFcB1lSa1Mrcpj0KW1eOIisB7vQF8dCKYtRIoNsNdVw+89LSri0kZza84lvOZV2nI8lJuMcLR3Qnoxbd6URbgfo1s+uZGnahSbuCqWckHXUV59HpvYutPrzz+nzzz+nz5bPpxHvfEinizPo3NIB1N64NXUd4UYHbv1Mrpam1GXiLgrNvUPrh3Ql2/dc6bPNW2ntokXkdTObGFLtJy8TLtFGp/bE51vS1B3nKfYFlz8WyhaXUBpPPp5jSNjOmFpZOJDLntuSDSUMh8yFVRT5ZT/SNR9EM90+oRUrP6E505zpi4up1ZvHuMqSJO58PGmMsB0Zt7IgB5c9dDuXIaISir+4icZ34JPAairtuJyo2uZV3G0xorv0g+sgsmxtSlYOk+jTzQtpkPVgcvniGIVmKfI0Fe1x+Ji8PWTrLqH4C5tovAWfBF2m086LMZQa9Qdtm9yZ+IIuNM3rf/TwaQT5bvwPWfAFZD3Ni/weP+Xon7yPEimXTz5/Kc8zynNgFaVc2ECT7e1o1Cx3+vijueTxTSDlKFKlLOWBtNx+Eh3K4L5ZTo+F3DZWhHIdcNs3I115jBeShv5UEq95Hi2Ip4ubxlMHvoCsp31FVyIiVOTyv2RiJlJzH0t62aC8ochvSqIO04c92tGAlf6UJiZiMm7S2iEmpMNrR8OXn6LIZ7G1/bOauoMuJ5YTk/ELzbHUIx2AoKNDvBb6ZGLWjUZ6nKRHFYpyggo7ZKRr5i9VkfRlP10yHzST3D5ZQSs/mUPTnL+gi9UTCaV5/2t/ClQ0tqnMf/Io81e5WJDLKRzy7QqlbAXlxZnXaNOkHtSupQlZjV5Bvn6byMGgZrMmEb0Ipu1jO5OJiQXZzdhFt66sIftuI2n+5lN0L1XefgplVOgfDOU/OE3r3jMnPt+CnDacpojqyYA46Qca/3Z7mngwuX7nZGGe053vF9F7/XqQ7VBHGjfWkUYOf4/mfnWN0mo3NxZS9Nn15GjGpxbCWbTnShwl3j5KS4eYEs/QjtwOB5PCFKRsLCQ15irKyhY+pN8+Hy2JX+fddCk2gYKOLKOhpnwysl9MR8OyleiqTqymRoekXwM0AeKojXAYfB6TQu5jm92renx4RVQGY/2S+/jqp2WyV7S8Jv4W/tMs/USMqI0OGHx+EkLub0NzVZ2W5gWbdhCuO9phr/d0VH9hpEUL2IwL2OpdjPdd7cA+F6GopAwlokw8PHMCWe5+2D+W66uWJkAchY0Og3F+Ugjub7NT/u3pPxQmfjsGOZzB2MBIfPXuv633/z5ezdIUAApW7jdv2HyEHLqEt+bMk72i5U3QXP3nb+AnzVV1WpoLDEoKRChnSxBy4DrM50zQTsK11MFm4KTncjzs8n/o26UnbAcMxcgxYzFh+gw4ObyLXq/s+3lFaLOZln8+TT4RFxcU4AVThHyRolOOmissRDFRYCduxqpR2iHpTdK8/ac5+4kYBQUvwBTlo1mqTkuzQRy9A6PMzWDW/h0sLZiHFUOVH1Ou5d+IAKbtDfDnsoEYM2cZNmzdge2bPsPiuR/jjy6L4Na1YZvvNEJcgIIXDIryRRynxP5zET9/jiJxCQpfvKLdgVqaFfzNmzdvlv2woVQkXceJa7no2L8XWhakgTr0RZfWryFoG40ODNp3QWfT1/mkr0WW5u8/zdVPKpB0/QSu5XZE/14tUZBG6NC3C5qV6rQ0G3hvWcHyrbfQc/oG/PfzMXi7yV/HaPlbo9MS70xww7wxlhC8fIGSSh2YWA7Gh8tX4UOHt5r+7Z0sFUm4fuIacjv2R6+WBUijDujbpXXdOQX/cJiMO/DxfwYz254wFqVDp6MtrExfuda1vEGafI24Fi1atGjRokWLFi1aVKN9zNKiRYsWLVq0aNGi5Q2gnYhr0aJFixYtWrRo0fIGaGYT8XJkxDyqO2TgXwJbnIyYpMLa/eGlqZF4mC51dOsboxSpkQ9RJwoD0eMYPC2tf1c9yjMQ8yhHu9ddISyKUiIQHBqL7HIN7VyaisiH6VLHmDczmrt8WpTDFiElIhihsdkol4t5bjTy4TcOi+LkGCQVarNT01CK1OgE5P1t1fk3kJ8tRnJMEmpdthnkWc1iXrN88m+lmUzEWRRGnsJKRxvYjNqO4L/rNunKEGwa3h3Dll9CtjrBzaTjzz2uGGDdC86HEiSnWrEpODRvMIa4n1CvjlcIm3II8wYPgfuJbFSl/ok98/rDuu9C+KQqOCOWLUTkqZVwtLHBqO3B/8qd7pwwT+H7mQd2XgzF+S+cIOw9FYtmDFLTzixSDs3D4CHuOKH65jdAc5dPizKYp774zGMnLoaexxdOQvSeuggzBkliXqUlm1GuUgWT/if2uA6AdS9nHEpQ45coNM3l/ypY5IYdgedIG3Qftwthf7tk/3eQn0H6n3vgOsAavZwPQeKyzSDPahjz0nOI+rdX4PaGIeg+YjX8c9Wo6J+O7Ak/bw6G0vaOJr3WLvT7S9lrrxYmN4LuJdUe/dlgKsI+p3cHrqWAAtkrHFQE00qhHr2zJpQqqj8qSXlAUWmvWQkKKaGUB1FUI0r5n5+QlZ4DbYtToismjfaO1qPWLr9Tc5C++cBQ9s/TqMN/DlE+ETHPb9DWOR504MY99e1ckkIPotKar16bWL6mikktHDDZ9PO0DvSfQ/lExNDzG1tpjscBunGvLuZV0XxylWoqgleSUO8dWhNak2mVo24u//f6qZiSdg0lvbcX0IW/h/ll+DvIX0HBK4Wk984aqnXZJs6zDUGzmK8/h6il4g6tdhhMG4KUHGv6L6OZvBEHAB5MjI2gI/vxK6cU4Xs34vhjNd6ScMLg2dMOWHV6O0Zq8hPTfFOYmtTvtZGlHfp1ag6/7WsES7t+qBGFb2QMIy6P4ZnA2Oj1W7D5U4mwG8EoNTKBPgDeW4748uQBeDg6qG9nI0vY9esENe9+/TSpfE0Vk1o4qQzDjeBSGJnoA+DhLccvcfKABxwd6mJeFc0nV6mGb2oKmVSrBHVz+b/ZT/kwfiPjdVPxd5CfD1NTk/oyNmmebRiaxXz9OUQNTFoqOn72C7YMb1X/wr8UrmlVg2ELnyA88Dai0oqQn5mFekuKGRGSI24jKCwBuTJfCfF0FIUFA1FyBG4HhSFBtoBCypAZcwcBQfeRWlz/Kw85udg8hO2bjzl77iIl6hr8b8XWrhcT5z9G+K2bCLiXjMJ6KzHKkBaTgDymHJkP7yKhoPqiuBBi6z5om/oAyfULKERckIS7gUGITH8pewkoz0B0vNRXOWwhnoQH4nZUGoryM5FVo1C2GE/jklHMMhAlhSEoPElGVqjQXynSYhKRzwKVOXEICYlHrsyYUp4Rjfia76B0dKqTAkGc9whhYXHIrrf2iweFJizLRMydAATdT4WMSRSgzH6qZZXAIivqOvz9/OB/OwGFLMBk3sdVPz/4XQ3D07Ka+1TXp9wHFKFEzxVpuHv1GsKeFIF5Ho8bflcRklQsuSZrZwCozEVCaAACwpMgqtdmOTKi4+t9HViaFoNESQcQFxKCePkO4HH4LdwMuKeWT0pTlh6NRzkswBQiOSIEkWk1TleJnPgQBD/MlFmnKC8fAJRlxuBOQBDupxbX66dS2ZXFZFkaYhLywJRn4uHdBNSGHYeN5OK9/uX6lGYgOjgIoY9yUVGZg+SUYrBZUbju7wc//9tIkDgS7l/1g5/fVYTVORLA0c9a2CxEXfeHn58/bicUggWDzPtX4efnh6thT1HnlmmIScwHi0rkxIUgJD5XsmStFjHyH4fj1s0A3EsuhEqrKsm3FWl3cfVaGJ4UMXgefwN+V0NQ55ZSMV9NZW4CQgMCEJ4kqt+mrA83pfyNzm+QHHSVdBeBQZGQT7WNyOXK/BRc+U51zlFeVomsMqgdt+r6I5TnJB2pZF+ZHYs7ivrDaR8WhU/CEXg7CmlF+cisHdgUUYnchFAEBIQjqX5iVNEGlJZVT35l45Em+UUDn4fkMKOku4EIikyHnMvK5VllOmRR/DQOycUsGFESwoLCkaTAlxlRMiJuByEsIVduOanS/snGPKBUx1CST/DWQAxtn4Z7CtpVOjb8g2nyiXhl9D64ev6CdHE54o/OxqAPfkJKtR4Lw76Dq/Na+MakIfHCKgzv6YStt/IUD1wAUBiG71ydsdY3BmmJF7BqeE84bb2ldHMFm+WPbe6r4B0YjXtnVmGYcAQ23MgHq0Su5OeZyDdojZYsi4rSQhQWlUEMBsmn5mPQ9L14+DwbIV5OEA7bgtAyFrlhR7FstA2EYzfj4M4PMGzIYAxYcBK5yacwf9B07H34HNkhXnASDsOW0PoDdR1liDk0F05uRxCVkYSL6z3h/bjacVkRIk9/hnE2XTFiS5AkYVZGY5+rJ35JF6M8/ihmD/oAP6VUID1oP9wGWKKny374bBmH/gPH4r3BPSAcsxV3iqqbUqo/Fnl3T2D5aBsIx3vh9JFFcJrggrkTbNFnqjeSGIAVReL0Z+Ng03UEtgRJT7kIOZc9McRuCByH9YFVjynYG1EidV0aFln+2+C+yhuB0fdwZtUwCEdswI18xQZUbL885KiQtT48tOncETk/L8IU9yOIFwP8Np1glrgPsyevhG9mlcq+Q6kPyLZVjVI9A6BKlBYVorQKoKpSFBUW4kVZPu7L2hks8gJ2YJ7rf3EjNRfR+ydD6OCJ81liiCJP47NxNug6YguCygE27y5OLB8NG+F4eJ0+gkVOE+AydwJs+0yFd7VCGI18sg62IAKnVr0HYbeR2Ox7Fptmz4LrR9MxuMcgrPKPwMklEzFtwWLMGNQDwzeFogysnHySirLgv80dq7wDEX3vDFYNE2LEhhvIy+GWnS2UiUnRM4QfXYbRNkKM3XwQOz8YhiGDB2DByVxOGymK95o8VJ8yxB33wIS5O3E1LgFB38yCnXVPTDuUALZNZ3TM+RmLprjjiMSR0MksEftmT8ZK30zJgKqkn3IuzmuDzh1z8POiKXA/Eg8x+GjTyQyJ+2Zj8kpfZFbl4e6J5RhtI8R4r9M4ssgJE1zmYoJtH0z1TpK0xSTj1PxBmL73IZ5nh8DLSYhhW0LrT5qk4Mq3VFmKosJSVIFQVVqEwsIXKMu/Lx/zbB4CdsyD639vIDU3GvsnC+HgeR5ZYplcxTal/Ewj81v19bIYHJrrBLcjUchIuoj1nt6QpNrG53I5Py0qg1hpvhOrkXOUl1Uma760PJrGrSp/rJZJcU6Sdu5KPP11BWbO9sCiKXboM+0wntTkZE77VCJ6nys8f0mHuDweR2cPwgc/pcg8tElg8wKwY54r/nsjFbnR+zFZ6ADP81mSeQNnGyrKApzyKx6PlM8nFOYXtX1eQlnMIcx1csORqAwkXVwPT+/H1RN3RXlWsQ4r0oOw320ALHu6YL/PFozrPxBj3xuMHsIx2FoXPAj7zhXOa30Rk5aIC6uGo6fTVtyqVpzC/lUqmJ9w6FiscA6hvF11xrV/LLJrVRpHBYWs7k22n4dJ1jAx2eSzfT/FVRGR6AotFvag5YE1i4VKKXhVD9I1n0W/ZjNERPTi2CTSr10jLqIri4XUY3lg7Xqo0uBV1EPXnGb9mk2SElIwOXR69mhaG1a9mIpJpW9H6lILu40UWaVcLibze3LUtyC3K+WScuJH9NVAQ7LfEkNVRFR1dx311reljZFVRMRQ6rejSNegDy27lkuiuBvk/zCX4r4aSIb2WyhGUoDW9dYn242RVCUtXzWlwWuob5cFdF5U/UHJJVpo0aJujTiTRT846pHJzDNUSkQVIaupt+3nFCYRnLJ9ttP+uKpqXXenFuZjaJP/M6qiUoo/PI0s+Lpkv/khVanUn5ie7B5KuiYOtOx8MlUQUeHvs8lMbxjtfiJZ88hk/UCOeiY080wpUY0udC1o8r67lC8mKok5TDOsWpCew1aKriIiekHHJunXrhFnck7T7NFrqc4k39JI3RZkp0g3nPZTLWt9xBS/fQDpd19Nd6qrq7izmrobDKav/xITqeo7pw/IokrPRESl9PMUfTJ19iWJJuXtzGT9Qs42TvRDqqREVexuGtmmA80/V0JEDGX94Eh6JjOp2hQkfrKbhuqakMOy85Qs6QDNNtOjYbufkJjE9EgDn5SFyfyeHPUMadC6QMoSE1HFA/rStgW1Gvw5XXtWRURVFPmlLel18aRb5aRAPoZyTs+m0WvDqvc9MJT67UjSbWFHGyOrVMiuICaZVPp2lC4Z9FlG13JFFHfDnx7mxnHYSHm8y1L853LqbbeG7tQYpiKEVr+jR73X3aUqIhLHb6cB+t1pdZ0j0eruBjT4679IrKKfcojjafsAfeq++k71/RV0Z3V3Mhj8NUnc8gntHqpLJg7L6LxEMfT7bDPSG7abJG75FQ00tKctEqPS3XW9Sd92IylqSp18S6U/0xR9U3L2rfVKmZhnKOsXZ7Jx+oEkbllFsbtHUpsO80nilvV9uEnlb3R+K6XgNX2py4LzVJdqF5JFi5o14o3P5bJ+yp3vuHMOd1lFsubLjYEax60Kf+TOSUS5B51I33gwbQjMJYaIiv83n8z1R9I3KYzqvFgRQqt729LnkoGNmGwf2r4/Tl7PTBb94mxDTj+kSvpbFUu7R7ahDvPPUYmqNjjLqpCfczxSP79o5POlwbSmbxdaUDc5oEsLLahF7RpxmTzLocOKkNXUvYU5jdnkT8+qiErjD9M0Cz7p2m+mh1VEoiuLSdhjOdWlh2Ba1UOXzGf9StkMR/9kY16FjmXnENztqhrX/rk08RtxASyElkj9ZjJGzP8KZ+NawHnDp+gpAAouHsav6TboZ1ezWMgQA52nQvj8En7xK5SpB0DBRRz+NR02/exq10MZDnTGVOFzXPrFD3IlygJwzj8Djy/tgZeXF7x2+uCl02ZsnWcPAw655OAL4XEiCD6eVkgPOIqdx8IgYivwspwFwIOBgS54Jg5wHN4Opj0d4dS3Hd7xOIEgH09YpQfg6M5jCBOxqHhZruBNfwn8DxxHcp9RGG1a/ZG+NazMpQ7v5RnDuGXdV2YCCyEsU7/B5BHz8dXZOLRw3oBPewqqZdEHv90QTHG0gACG6OG6Be62hJjAQOQ8V6U/Plq2NALf2BZOTtbQBWAk7IZOvCIUFkgOW+UZG0NKFAl8c7zr2B9t+IBR74+wZ+Uw6MQE4fZz+d6WBZyDf8ZjXNrjBS8vL+z0eQmnzVsxz95A9lYV9lMtq2aoqI/TB2TQ1E9rkLGzyO80/PXs4NBeEpKCXqsRkJ+B41ONAPBgbNyy3lpBfsuWMOIbw9bJCdaSDqBbJx6KCgtA4EOotk/Kw2tpBEMdXVj3d0B7PgBdIWwsBUCn/hhqIQAggJVlB+gUiSAiKJCvDAHn/JHx+BL2eHnBy2snfF46YfPWebA3UCW7AngGMNDlwcTBEcPbmaKnoxP6tnuHw0bqxnsRLh88heKB42BvWP0RvxVatVQ3LXL3U2P4LdHSiA9jWyc4SRQDYbdO4BUVQuKWHjgR5ANPq3QEHN2JY2EisBUvodgtNcy31dSPeRH8TvtDz84BErcUoNfqAORnHIfELev7cFPK3+j8VuKPA8eT0WfUaNSlWivUpdrG5nJ5uPMdd87hLqtI1jZyX2drHrfccOekagzfwcAB7cADoN+5M8xQCJGIVZ0XBRYQWqbim8kjMP+rs4hr4YwNn/aEXIiK/HDaXw92Du0l/RX0wuqAfGQcnwojVW1wla2pX5n8nOORuvlFM58v8T+A48l9MKpucgBrK3PUzQ5k8iyHDnkGBtDnt8OQKY6wEACGPVyxxd0WFBOIwJznuHj4V6Tb9ENdehgI56lCPL/0C/wKOfonG/MqdFw/nxSoaLcBY8M/BNlYbiQ8dF54EtcPOsM4cAdm9u+OIcvOIY1hkJP2DGVsJSqlVjkIrCxhwatEoeiFXKJjctLwrIxFZf0CsLTgobJQhBcyBdjiPOS/1EOPqWuwbt262n9rl09Gd4EyuerXIYEHwcso7HP3wNHMfvjIYwzMedIuIDszBXiCl4ja5w6Po5no95EHxpjzFDsNk46EvwoBvoBD8Tr11q7xOi/EyesH4WwciB0z+6P7kGU4p1hwQNAVvboZAVUVKMtWrT/pdgBAh8+HDghsjfA6OorXfNfCQ7su1jDVYSCukr3GojgvHy/1emDqmjp7rFu3Fssnd5dLuNz2U0NWDeGuT5UP1KGpn9YhbWcG+bnPUV5YoHSA1Kldn1/7gczffPB1AKpWiNo+qQjZuqEDng7qldfh8QCq+6SefGwx8vJfQq/HVKyRsuW6tcsxWWJMTtkVIueHXDZSM96ZTDxJKYFAt4V89eqgqp8aIxtvOuBLFCPRPU+Al1H74O5xFJn9PoLHGHModkvN820t0jHP5CP3eTkKC0RKfKd+rmo6+ZWgQX4TpSZAkmqVZ1oFTtWIuFGd75TnHNVlFckqh2xcqRG3ylGdk+Tg88CHZCxQmRfRGQtPXsdBZ2ME7piJ/t2HYNm5NLn100x+Lp6XF6JAgRCq2hDlKS+rECn5uccjNfMLNPF5BukJf6EQfHC5bL08y1NPhxIE6NqrG4xQhYqybKQ9KwNbWSm1z0cAK0sL8CoLIXoBjv7Vj3ku+wCy+SRHRbusvA+rMzb8A+AweUNgkB77DJ1c9+FmQhwuru+LtAOe2HFDjA7dusKEiUPE/brVUWxlBSp5HdHPzlxOEH6HbuhqwiAu4n7deiq2EhWVPHTsZwdzmQI8kw4wN0yA75GbENV+yiDZ7zKixcrkqqhXBwCg5ApWTFmP/BnfY5uLPcxqxlOlflCCKyumYH3+DHy/zQX2XAV02qBtGwHKY+8jSqZpYhUPjUx6LJ51csW+mwmIu7gefdMOwHPHDdQWJ5IaVKtQVs7CrEdvdOqkmf4aSlnec7zsbIv+b8tWyINJB3MYJvjiyM06i4BJht/laLm1gNz2q3erWvAF/LoJQC0EUpyl6qOBD2jqp4rh4+3OFjDI8cOZqwW1n7L5fvD2SVSSWLnQwCdfBTwTdDA3RILvEdQ3vR8uN8SYiuC0kZrxrmOK1q2AZxFheKpMyXwB+Aoe+IiYBvSTD4lbylWmlo1LrqzAlPX5mPH9NrjYm9U+zMpbla9xvlUI/210tjBAjt8Z1Lkli3w/b/gkqiNxfdSXX4oG5rcObduijaAcsfej6nIlAICgJNU2Mm40y3f1aUzZxsDlj43LSSrzIqUj9lknuO67iYS4i1jfNw0HPHdANkT5b3eGhUEO/M5cRZ0L5sPP2wdJb3O30dFceVlV7ss9HqmZXzTyeR20adsGgvJY3JefHCh+cGZU6ZBAUgWrysrBmvVA77TdRwMAAMdzSURBVE6d0K2rCZi4CNSlBxaVFZXgdewHO3NSu39c9pHTMb+DinbVykr/SJq45wzSfXfB+0EZoG+F/6z/EjOsDKGnr4NWE5fCo48IZ789isRKAGCRfT0A6UOXYslwPUlphpE4HQug1UQs9egD0dlvcVRSAGz2dQSkD8XSJcMhKSGF0VgscLFGirczRs3eip98z+KElxs+DzFCF4FyuXj6+tDDC2RlFiAvPBhR2U+QnFOCtMSnKClPR+DFUGQxZSjKikJ4bIkkhMRVdcmRLcKT5ByUpCXiaUk50gMvIjSLQVlRFqLCY+vLyGuHSXMnom3yEaxYfwlplUBF6gPE5jIQZaQiu6gMAAuGpdqJOZPui13eD1AGfVj9Zz2+nGEFQz392qdGNi8VKdV7JdnMC7gQ3RseS8ZAX6X+WDCMGMRKTTKIqvVfHb0sA5ZkBi4qQ1FhdUCWx+DIqSf4vy+XYbAuADCQmFCSOIzGLoCLdQq8nUdh9taf4Hv2BLzcPkeIURe5N+Lc9lND1nrwYWbRHroZYbj2IAe5jy7jwPE7yBfnIf3pcxSXc9fHFqnyASlU6hkAKlFZRaisrJBKqPXt3Gr8AszslI2Ti9/H8h998YfPHnzi6gvBEBvwAbAMC5JKyCzDQEys1CBKIJBEfhU+WXZvP+ZP/BBbr2bVSlMPhgUrM2EhACT1Jo2IAJatHZDry2eEsQtcYJ3iDedRs7H1J1+cPeEFt89DYNRFwC07IBeT0WU1YVc3JeG2UZHSeK8Hzwz/9/4oGIR/jdlLDuDq3fv48/gx/JlVN4LwzSzQXjcDYdceICf3ES4fOI47+WLkpT/F82I+Zz/l4JvBor0uMsKu4UFOLh5dPoDjd/IhzkvH0+fFKGcZMGLJG9L6binxy6InycgpSUPi0xKUpwfiYmgWmLIiZEWFQ94tVedbVFaiiipRWSFl6Hox3wrjF8xEp+yTWPz+cvzo+wd89nwCV18Bhtjw5XwYTSh/DQ3NbwbtJmHuxLZIPrIC6y+loRIVSH0Qi1xGhIzUbBSVoXG5XIGfPhnKle+4c47qXCkjqyI0jVsV/qjHmZOqc6/cy47qz1XYR49Jh+8ub0hC9D9Y/+UMWBnqQTZE0Wo8FszshOyTi/H+8h/h+4cP9nziCl/BENi0UdEGV1m+Cvk5xyPl84n6aOLzPLSbNBcT2ybjyIr1uCSZHOBBbC4YUQZSs4tQJptnVemQzUNqXfDgwoVo9PZYgjH6rTBxqQf6iM7i26OJkl8tYbNxPSAdQ5cuwXA9rv7JxDynjiU5QTqfcLerYlwDwOZfxxbnD7H9ltQD6z8B2UXjjaOC7qwfQl1t3yPXzzbT1rWLaJHXTarZG1SVcoE2TLYnu1GzyP3jj2iuxzcUmCO5+DLhEm10ak98viVN3XGeYl8QUVUKXdgwmeztRtEs94/po7ke9E1gjtwmlVpK4+mU5xiyaa1Huiadaeii4xRbStxyiZPo2IdCav2WkKbuCaNiJoPOLR1A7Y1bU9cRbnTg1s/kamlKXSZ+Tf6Bp2nde+bE51uQ04bTFPGcISKGMs4tpQHtjal11xHkduAW/exqSaZdJtKuUAU/Vs+I6O4PrjTIsjWZWjnQpE8308JB1jTY5Qs6FvqE4i9uovEd+CSwmko7LidSxZ31NKSrLb3n+hlt3rqWFi3yopvZTPXGm36kaz6IZrp9QitWfkJzpjnTFxdT6zY1cOivMPosrXc0I34LIc3ac4XiEm/T0aVDyJRnSHZuhyn4r1i6uGk8deALyGrqDrqcWE5U+hdd2D6HRr47gqa4fkJL3ZfQtotPqjfKvKSESxvJqT2f+JZTacf5WCIiKo0/RZ5jbKi1ni6ZdB5Ki47H1m1YlEWJ/VTKmqHAI14E0/axncnExILsZuyiW1fWkH23kTR/8ym6FfQbd33p6Up8YBcpMimXnqkqmW7+uJSGvcUjntloWuP9G4U+K5KzMxFRabwPeY4RUjvjVmTh4EJ7bks2EZXEX6RN4zsQX2BFU3dcpsScaDq73pHM+C1IOGsPXYlLpNtHl9IQUx4Z2rnR4eB0Dp8soIxj06i9aVsyG7pVtidEJfF0YdN4suALqMv0nXQxJpWi/thGkzvzSdBlGnn97yE9jfCljf+xIL7AmqZ5+VF0lIx85UREpRR/ypPG2LQmPV0T6jx0ER2XGFOF7Bn1Y3L3VQo+vY7eM+cT38KJNpyOIEnYKYvTXRRayBHvsogz6dqmSdSjXUsysRpNK3z9aJODQe1mTaIXFLx9LHU2MSELuxm069YVWmPfjUbO30yn7j1X3k8lvAjeTmM7m5CJhR3N2HWLrqyxp24j59PmU7co6Lf15GjGpxbCWbTnShwl3j5KS4eYEs/QjtwOB1N6+jlaOqA9GbfuSiPcDtCtn13J0rQLTdwVSordUnm+rUq+ST8uHUZv8XhkNnoNef8WSs+K4uVjnkop3seTxgjbkXErC3Jw2UO3cxkiKpHx4QiKPtuU8jcuvxERMaK79IPrILJsbUpWDpPo080LaZD1YHL54gj5X/NpfC6XHTs48p06OUxxWYbyHygad2RoQNwmVXD54z16zijPSYUPf6PPR0v647z7EsUmBNGRZUPJlG9E9ouPUlg2w22fiju0fkhXsn3PlT7bvJXWLlpEXjcV/AgDScYFH88xJGxnTK0sHMhlz23KrbmRqw2OsmrJr2Q84pxPyMBkaOLzDInu/kCugyyptakVOUz6lDYvHETWg13oi2Oh9CRWJs++UK7DqsgvqZ+uOQ2a6UafrFhJn8yZRs5fXKTUuuChlAsbaLK9HY2a5U4ffzSXPL4JJEl6UNY/2ZiXjFvKdEwlivIJR7tqjA3ipB9o/NvtaeLB5Dq1/QPQIenHZS1/I8SI2uiAwecnIeT+NtgpeAGnRYtSKoOxfsl9fPXTMtkr/26YeGwf5IAzYwMR+dW78t/caHlNaPObFi0NRRy1EQ6Dz2NSyH1s0wZPs6eJl6ZoeRMoWpyhRYtS2HyEHLqEt+bMk72iRUuzQ5vftGhpINrg+VugnYj/bRGjoOAFmKJ8iGSPptKiRSksRDFRYCduxqpRnOd3/zsRP8fzIjFKCl9wr8fV8orR5jctWhqKuKAAL5gi5GuD528Bf/PmzZtlP9TS3KlA0vUTuJbbEf17tURBGqFD3y5oLfVz5Fq0KEYHBu27oLOp9utKOZgM3PHxxzMzW/Q0FiFdpyPsrWp+01fL60Ob37RoaSgVSddx4louOvbvhZYFaaAOfdFFGzzNGu0acS1atGjRokWLFi1a3gDapSlatGjRokWLFi1atLwB/qET8XJkxDxCjtRGhfKMGDyS/qAZ83eSVRma9oEtTkZMUqF6e0vKMxDzKEe9e18XbDGSY5JQ2ERCaaSPV0UT90ltSlMRnZD3+vre5P4kn3+0NCdKkRr5EOlSBzJqqaG56YZFcXIMkl57EpLwyvJwk+ccNWnqdktTEfkwXeqkTM3Hfi1NPREvS8T1nzZjwbhhGDpsBBwnTcf0qVMxw/1LHLmT9Ro2P7EojDyFlY42sBm1HcGVAFsYiVMrHWFjMwrbg5v3xoW/k6zK0LgPTDr+3OOKAda94HwogdtH2EJEnloJRxsbjNoeLDkQ4I3DIP3PPXAdYI1ezoeQwNkBNdBEH6+MJu6TurC5CDviiZE23TFuV5hy+xb9Dx/364HxO8JQLHtNE5rcn+Tzj5bmB5tyCPMGD4H7ieymm5D8Q2hOumHS/8Qe1wGw7uWMQ68tCVXzqvJwk+ccNXkl7bJIOTQPg4e440Q2q/nYr6WWpp2IG3bHWLc1mGSWiPBHnfHJb2dx9tfvMM/wCpaNGYQPTzyRLdHE8GBq54IVU4SoWfnOM7WDy4opEP4NlsI3B1nZvPuIeCJ7Nq36aNwHfieM8XTHyLdIwbG/MvBMYeeyAlOEatzbABrWdz46jfGE+8i3an2uUWiij1dGE/dJXXhmGOS6HBO7yl6oT8mt/+G2uQd2rRoEY9mLmtDk/iSff7Q0A9g83I94UnsKLM9qEX4ODcHh+e2beAD8+6OJbhqWL9WH32kMPN1H4q0GBxOLvPsRaJCIryoPN3nOUZNX0i4PVot+RmjIYcxvz9N87NdSi6pYawACmLZqCR1Acgy7vhUm7fgS77d+hnNb98re/ArgwcTYqPYIeADgmRjDSPb02WbKm5W1FOF7N+L448Y9/2vcB74pTE3ULMAzgbFGlatLY/rOh6mpST2faxSa6OOV0cR9Uhe+sQr7ViI+vz/2nvREH33Zaw2gyf1JPv9oebOUhu/FxuOPpd5qGsHSrh86NYX//ONQVzeNyZfqwzc1RYNTYWk49m48jgaL+KrycJPnHDV5Fe0aWf4/e2ceF1W5//EPM8MuCJYmkoKKY5oLCLnvZPy6uWCmGKZionEtXFJTsdyN1EuW1lU0txRNbuZ1BbcERBZFQTbBEFlkZ5hB1oE55/v7Y4ZtljOAkNad9+vl6yVneZ7v/jxzznPOgcPg7qgLlxaP/TqA9pmIq8GoJ3pa8cGKChq2yUR4FH0TN0LuIl3S9CdrZVYCUooYVOc+wJ2UEsWVDBlEj6Jx80YI7qZL6q9uqIOnpxQJPD31A2NlLhJuhyDsXibKWABsCR6GBSMoKAhBQcEITy0FC6As7TauBAUhODxVsV6WQ5bKLCSkFIGpzsWDOyko0SSoct91aJJViZrCFESGhCA6TaxiC0acjphbYYhKKVS5BVWRlYBUEQvUFCApIgLJhYoqxRYhas98fOR3BxlxVxF8MxFFLJc+DMTpMbgVFoWUQqVemqmDrCQNd0LDEJtdpbwLAFCZm4DbIWG4l1nW6DYpD8ruVU8lchNuIyTsHjKbGJiF5HE0Qm/FIatUhNy8Cs26c/kZAGQlSLsTirDYbKjVgBEjPeYWwqJSoGwidbTOHhqoKURKZAhCotMgbiL48+ik5Vy0JIc05YBeI//WID/xNiKSCxtNogwwdOFivJGfqrIGWzkn2Lw4XAsOQlDwLaRIWIDJxb0rQQgKuoKoJ5WKszTEUwt91xiV+gPueqeKptitRHa8fO05I0lHTEQssioUu2oKkBwRjge5TRf3smVPkJReBpYRIy0qDNFpTf2mvtZq8g3U508dzdax5Xpwxl5FFhJSRWBRg4KkiEbxwqIoag/mf+SHOxlxuBp8E4nyxEZ1TjyS85sGkMb80th+IzTaSwGbh7hrwQgKCsatFAlYMMi9dwVBQUG4EvUEddHYrL4a0XL/AUA18hJvIzQ8DpmlKjtVbMNKHiM69Bbiskohys1DhcZ6WYmshBQUMdXIfXAHKY0GP64xSRUZStLuIDQsFupLoab8aIAtisKe+R/B704G4q4G42ZiwzMn2mTRVoe5zlexldJ+ORpqDteYypV3SshEjxB98wZC7qajaRpq6rcCOfHhCIt8iEJpDQrSM1DW3HhFNXLik1EfLprGfk3xqHF+ocnHzbcDAFTkxCM8LBIPC6WoKUhHRhmLvLhrCA4KQvCtFMiHhXu4EhSEoCtRqB8WAA4Z2p4/ZSLOFt7F/QwGJkNGAACY9BOYP3wGvn9QjPwIX7gIR2NzZCXYwigcXjYBdsJJ2LR/Bz4YPRIjhi7A8cJ0nJg/HDO+f4Di/Aj4uggxenNko2BoKSzygrdi0Up/hMbfxemVoyEcux7XxcZ4xTAF/144BdO234dFN1PwAJi81gF3dvshRtAJJqRBFrYQUYeXYYKdEJM27ceOD0Zj5IihWHBc1Ly+Rc10NFuEkO3z4PGv68gsjMfeqUI4eZ9DHgsAEkR95wG3tYFIyErF+ZVj0N9lC24WsWCL7uDY8gmwE74L31OHsNjlPbjPfQ/2A13hn8aAleRCZGyJDiwLaYUEEvFTRGvSRxKF7zzcsDYwAVmp57FyTH+4bLmpKMbNoRIJB+bCxfMQ4nLScMHHG/6PGlUMNg/BWxdhpX8o4u+exsrRQoxdfx3NNlFeMLYuWgn/0HjcPb0So4Vjsf66fHCL3+MB75PZkFUn4/Cc4fjgpwzUKOteWgkZo8HPij4qEw5grosnDsXlIO2CD7z9HzWZHEiivoOH21oEJmQh9fxKjOnvgi03NT2A2Jb2YFEUsh3zPP6F65mFiN87FUInb5zLY4Hn0UnLufXwTLXnEK8ZOVDzBL+smIU5XosxzWEgph98DAYsxLGn8MU7dug9rtEabA05UWDRA68X/IzF0xbhULIM4HdC9y6p2DNnKj4PzFX/Q6LFvtOOpnqnDvWxW4TimBNY+bYQfcZtQuCZjZgz2wMfzxiBfsNXIjjmOJZMno4Fn8zE8H5jsDGyEmCyEbbXE0Nt+sN9bwA2vzMEwya9jRH9hJi45TbEmmqtiMs36vNH1mwdWZS0VA9wxB5bhDvHlmOCnRDv+p7CocUueM99Lt6zHwhX/zQwrAS5ImNYdmDBSisgkZSivDgWp754B3a9x2JzmGKyrym/ZFraV+ik2V6N4HVCj9cL8PPiaVh0KBky8NGpexek7pmDqZ8HIre2OX01oHGs5PQfgNJI7HSdgo1RtTAsvYRPh/fDWxPewXsztuFGjqptauL3wMP7JLJl1Ug+PAfDP/gJ6cXK9bIc+VGHsWyCHYSTNmH/jg8weuQIDF1wHCKOMUktlQk4MNcFnofikJN2AT7e/mhaCtXlh0gpN1lIckUwtuwAlpWiQiJBaaWMc3yUo6UOazlfna0yuH5FNYZzTNWcd01hkH5iPobP+B4PivMR4esC4ejNUEnDRlQmHYXXe3Ox40oSUsK+xWyHnug//QBSWC3xyjSqxWM3oy6VVNEQj0X5GudLmn3cXDsAqEzCUa/3MHfHFSSlhOHb2Q7o2X86DqSw6NTjdRT8vBjTFh2CfFjoji6pezBn6ucIzFVktUYZ2glqc6rpxhJbEpiOoBXHz9LZAD/yfOsV6vjGbDqQUEVEMnr49TAycdxMCbVEVHuH1g0wIvsNsVRLREzmbhpvYEwDl12lQnESXQ9+QIVJX9MwE0faLD+B7qwbQEb2Gyi2VrlvOc+OTCEjS3f6tap+A00xsiR3xQam4BTNmbCWoqTy3UzmbhpnoE8OG2KplmopYetbZGy9gM5JFPtzj9Cnq4OojIhkDzlkYTJp93gDMh64jK4WiinpejA9EDEKIRRtcfatKmtTGMo76UZ2Lj9SJkNEVEuJu8ZRp27z6Ww5kfjyJyTst5xC606tCKeV/QzIavYvlM8QyR7volEG5uS07BylS4lI8ivN6WJIo3c9JhkRMbk/kLORNXlerlZ0p04fEV3+REj9lodSQzcrqZ+BFc3+JZ8Y0qYDUUX4ahrUawGdEys2lF+khdb69MbqSJISQwWn5tCEtVEkNxFDmbvHkYG+A22IrSWiZ3RkihFZuv9a338TmAI6NWcCrW0wMO0eZ0D6DhsotiKCVg2wpzVRijjID6Bte5PkcaekO6efK8Jp9aBetKBBAbq40Jr031hNkVIiEl+mT4T9aHmDIyh8ZT8ysJpNv+Q3jQd6bns0hck7SW52LvSjPECoNnEXjevUjeafLX8unTjPVYE7h7hzoJD2uxiR2Yj1FFrIEFEZ/Xe+FRmN+5YyGJLnwI/OZFif39w5IUveRkON+tKq24rOpLdpVV9jGvHNHyQjUo2nFvpOHU3rD3e9awJX7NYylPuDMxmaDKd1oXkkIyLp/a/IXr8jjVhzlZ7WElFtLH1lb0i9vG9SNRGRNIJW9dUnq4kbKfhpLVFFMh2cbk18A0fa9KBWba0tyuPwjVRT/rRAR2q5HpyxJ3tMu0YZkLnTMjonL2r065wuZDh6Fz2WFzX6wdmIrD0vy21CREzej+RsaE6zTlcQacsvLe1zx7ISsmTaNtSI+q66rehLSrdX9SXjEd/QH7Jm6KJEi/2nyMsOTlspSUZEVEv3vxxEhr2XUkjd8U1sI6WIVQPIfk2UPDeYfArYtpeSalXrpdxu48nAeCAtu1pI4qTrFPxARCItY1JTKih89SDqteAcNZTChWSt/watjpRqyY/G7VB9nBlZe1KdiNrGR+46rO18zbZSRXkME3OPqRrzTgnZQ/p6mAk5bk4geRquowFG9o3GCaV+y36n5QMcaPXtCsV+KUWseoMMB6yjO7XNiNe6Wmw+i07XNdGSuZa6+UVRnmYfc4zfTSmj35cPIIfVt6les4hV9IbhAFonV4yStw0lo76rqGFYWEV9jUfQN3/IWhhnbUP7XRE3sEb/Qdbo9NpgzN13F5mJp7BogBEAPoRexxAW4A3b7BAc3nEEUWIW0qpqsAB4xsYw4JnDyXkMOlv0h7PLIHR+wwvHwgLgbZuNkMM7cCRKDFZahepW/jypDDmL4JxHuOjnC19fX+wIqILLpi2Y52gMQID+C73wduVZ+AfmgAWDR6ei8dqsiegAgC/kkIVnDGMDHsydnDGmswX6O7tgUKemJubuWxtiBJ0KhqGDE7ryAECAN1eFQJRzFK6mJbhw8Bdk2w2GQ92CLZNhcHMVovjiSQRJAH6HDjDlm8HexQU9DQCYCtGnOw+lkhL1D3Co0weXcPCXbNgNdqhfF2YyzA2uwmJcPBkEiVITqpQjeN9RpA8cjwl1Hy006glbq7ovf1Ui5Gwwch5dhJ+vL3x9dyCgygWbtsxDs0xUGYKzwTl4dNEPvr6+8N0RgCqXTdgyzxHGAmsIbTLx7dSxmP/1GSTpu2H9Z/2h7huTXH4uD96Ho+kDMb5BAfS0tUKdBiUXDuKXbDsMbnAEhrm5Qlh8ESeDlC3UtvYQB51CsKEDnOQBAsGbqxAiysFRV9Pn0onrXFW4c6g5OWDyxjAM7cwDYIQePboAEjHELADwYGbWodGtPK6cqD+o2bTMd82Bu941gSt2wUMHUxPoGfTEEKeu4AMwENrBRgB0HzIK1gIAAlvYdNNDqVgsz2eeMYyN+Og8chqcrQWAST94bF4Ee0pAaGgBoKbWGoVx+EZj/rRAx1bowRl7/A7oYMqHmb0LXORFDcI+3cErlaBEbVEDeGZm6FB//1xLfmlpvzmx3Gy09KWMurGS03+QISM9GzX1ywcE6NmzO5CbgQzFKoymthHAWmiDzG+nYuz8r3EmSR9u6z9Df3UFEzwYGxuAZ+4E5zGdYdHfGS6DgEtaxqQmlAdj39F0DBw/AQ2l0BYNpZArP7ShbXzUVoe1nd8SWylRcoF7TNWYd0rwhfA6FoYAb1tkhxzGjiNRELNSVKkv0ii9tB8nyobhHUcTxRY+OnZsXFu1Ia/FapeiKODMD3XzC6MwzT5urh1KL2H/iTIMe8cR9Zp17IgOzVXsueKsdajo0GboGeIV4VsYO0h5B8ATVCFuzyLs7vQ+VizxQu5/jyCg0X4Vx/IEqIrbg0W7O+H9FUvglftfHGl8QotgUVYkQpXhcLiuXgdHdRawmgWvGZvwgf8hJLpPwm+PB2DeMgP5Pm2yqAjfmGb0zQUjQmFxNSQlioG2yb4CZD2tBNupBtWA4m0SAtjaWINXI4H4GQuYKq3f0uODrwcQq9JaA0r6MAVZeFrJolNNQy8Q2MLGmocaiRjPWKBT01OawmQj5Q8J8LpAfcKzZSgSVcFwuCtWr3NscYCyZUUQVRliuOtqrFNj4D7Hr4G/8Qts2T4LJ3c7YcmB/+Db6T2U1eTwM4PslD8gwesQqFWAQUHWU1SyndDURDaw5tVAIn4GFp0adG9TezAQFRajWlICsTqXtlonrnPVw9OYQ9pyoEh5A/g8PsDIUKv4W6/xQkeunGgxLfRdM9FW7+rQFrvlygs89XjQa6K1Hng8cL6xRdD7TfQxBZ5KpSCV9NbmG2ChhvzhN1NHKPsPzdCDM/YaP1Mg/5svL2qa40Gv0Tla84urfe32ahlcfamnZf5jMWzyO3jttxu48mQt+tnJ8DAlE5bOyzCug+KQxrYBDz0WHsc1/kZ8sWU7Zp3cDaclB/Cfb6fj9YZGG6EyWGgfkxpdqGKyUyAvheozTFt+cKJNFnEmcrnqsLbzn0GjrXpo+bq81jEVPTTnXZOWeBBUxWHPot3o9P4KLPHKxX81FmkGuY8zUC7oCn2Vwa/56OlpWBMONCMei1RCRpuPNY3fje3A5D5GRrkAXVupmDYZ2gO1Mde+lOPyimnwEc3ED1vd4dilTlFNpQYov7wC03xEmPnDVrg7dqkvlprP4IIH825WMEkJxKEb4obNTDqCLsUr1ht1wDteHhAmHcG3W06hdNxs9FJ4+vlkaU7fHPBfQw9rYxQEncaVkrqNLERB/ghIew19epuDSYrBvfo1YSxqpDXgvT4YDlZt42p+tz7obc4gKeZew/pgtgbSGh5eH+wArd3odcKrnQSoTryHOGnTXcSyAM8c3axMkBJ4CE1NFIRL8VotBJ55N1iZpCDw0A00nM4gPegS4qXZSHzaHR57biAl6QJ8BmVhn/d2XFeSA5x+1kOnVztBUJ2Ie6oKgAUf3fr0hjmThJgGR4CtkaKG9zoGO1g1Tbo2tQcfr/WwhnFBEE43BAhYURD8A1JR2mqduOyhCU059Jw5oAxXTqQyAF8APgjKvzWJlFfdAmip75pF8+sdZ+y22DANEDW6IlZbiWq2C/oN6KY0iEO7bxhN+dN8HVtDy2OvBbQov5TRYq/GhwIA+BDw1Vz4IFJZA946tMnDQ2fX3djnYYgb323Fbr+vcdb4CwQd94StajAAYJCd+BTdPfbgRkoSLvgMQtY+b2xXVzDVwe/WojFJr9Or6CSoRuK9ODTtgSAvhc+RH9pk6fYqdx3Wdr4VtdpWWsdU0pR3TdtB+WWsmOYD0cwfsNXdEdxpqAcLy47A0xhEPdEUfc8br9riURVOHzdz/NazsERHPEVM1BONcvLliimZhkCMFhnUCd0GtHxcaQbSmlpQrRRSdXdE2FI8Ti9AeVYqnpRXIzv0AiLzGFSW5iEuOhEAQJChtl5hFqWP01FQnoXUJ+Wozg7Fhcg8MJWlyIuLRmJ548blMAwjn0DU9c8wYEBgFRtMJy2Ae88M+LuNx5wtPyHwzDH4eq5BhGmv+iIvcFiIxWNEOHmGMGXyK4qtzZCFAFmD8Cpo7VtJ1qZ0xLsLZqF7/nF88v5y/DvwNwT4fQqPQAFG2nXC5KVeGCg+g92HU+VPc7P5uBaSjVFLl2CMIcAyDGTENkosAin6YgHwjIxgiGfIyy1BUXQ44ivV6NNxMpZ6DYT4zG4cTpU/LcfmX0NI9igsXTIGhtCiA68zpsydjFfTD2GFz0Vk1QDSzPtILGQgzslEfqkeJi1wR88Mf7iNn4MtPwXizDFfeK6JgGkvAQAGcvfKZVbBdBIWuPdEhr8bxs/Zgp8Cz+CYryfWRJiil142Anf6434lYGT7D/h8NRO2JoYw0lPWPQyRDzX5+S4KJs7F5FfTcWiFDy7KFcD9xEIw4hxk5pdCf/JSeA0U48zuw5CbiEX+tRBkj1qKJWMMm8r73PZoSsd3F2BW93wc/+R9LP93IH4L8MOnHoEQjOyFco2xq00nMfI1nqs+B6Exh7TkACvPW5Xir9gOACzDyosoCy05wQe/izW6GuQg6up9FBQ+xKV9R3FbJENR9hMUl1WrxFNHbb6rvIu98yfjwy1XFA9Iq9Kk/jSj3tXDFbsCgJEbplHckzyH600l/z/LNh5+WBRlZkDuIha5588jfoAXlkyU3wRvWmu1+IbRkD/UAh3RUj201NxnDBgZgW00qBIp/CkvajAyBJ7l5aKkKBrh8ZUAy4Al+eQOMOXOL5a7fU571alTB78LrLsaICfqKu4XFOLhpX04elsEWVE2nhSXoVpLX+pokf8AiC+vw8bs6fhu+1p4r9iMnZvnwr5uKQagZBsG2YE74S93OP7h8xVm2prA0EhP/VghHywaTbA6ah2TGsPrPAVzJ7+K9EMr4HMxCzWQIvN+IgoZMXIy81Gqx50fSq3BSO545JYUITo8ExO5ZDHWVof1teii2VaqKI1h2sZUTXmnfDW59DHSC8qRlfoE5dXZCL0QiTymEqV5cYhOLFfql4cu//c+xhtH45s5S7Dvyh3c+/0ojvye1zB51RavilpMjXO5pXMt5fkFVw3kGL8bw+vyf3h/vDGiv5mDJfuu4M6933H0yO/Ia1AMXay7wiAnClfvF6Dw4SXsO3obIlkRsp8Uo4zPIYNKnLURyovGn4uKFLp+eBNNtRGQHr8rTVy9ny4mKJ7WqoehnLNLaWhXM7LsPZY8992knz1syKLXZPomOJROrXubrPh8snZZT6diiokhIibnLC0d2pXMLHvTWM99dPNnD7Kx6EWTd0aScutVKRdpg0tX4vNtyHX7OUosTKGLG1yoK59PNq7b6VziMyIiqkg+Qd4T7cjS0IDMe4yixUcT6xf21yH+bSFN3vKgycMAGmX5JphCT62jt634xLd2ofWnYqhY5WEUORr7rlIva1MqKDnAmyYKO5NZR2tycvejW4V1HdVSxvn1NNXRgcbPXkT//HgueX0bSgUMEUni6YyPM3Xh65Nwth9dTkqlW4eX0kgLHpk4eNLB8BwiWRod+VBIlq8IyXXXFQrXpE9tBp1fP5UcHcbT7EX/pI/netG3oQXyBzWbowMjpjs/etBwG0uysHWiKZ9tooXDe9II9y/pSGSeXMcT3jTRzpIMDcypx6jFdDSxgoiqKOXiBnLpyie+jSttP5eo3LKcimQ64T2R7CwNycC8B41afJQSK+QP6vmM7E32b3vQF5u20NrFi8n3huIB08a6+0VRqSY/74wkCTEkvvMjeQy3IUsLW3Ka8hltWjiceo5wpy+PRFIeQ1SbcZ7WT3Ukh/GzadE/P6a5Xt9SaIGGgGi1PdRTkRxA3hOF1NmsI1k7uZPfrcJm5BG3TjnZXOdqRl0OkcYckNCD/6yhCV34pC90o10XEykl7BAtG2VBfFNH+uRwFD1OvEAb3+1GfEFPmv71ZUqtJi058YzCt02iHubmZO0wk3bevEyrHfvQuPmb6MTdp2rjict3TM4Rmt7Vgl7tMoq2JChrpab+PNNc73ZGqrGchtgtTz5PG9+1Jr6gF83YcYESMuPot61TqQdfQL2m+9J/HzyhmMAN9A9rPgl6TiffoDSS1sbSV4MNyGr4LPL8dAV9/ulHNN3tS7qQKSNGdF9trZWLoM43XPnTfB1bo0eVxri9RrfP+JBzFz7pC2eT3+UkSr11mJaOtCCeiQN5HgynHEZGaUc+JKHlKyR09aOo/GS6sPFd6sYXkK3rdrqUWs2RXxKK19o+h73U8Cx8G03qYU7m1g40c+dNurzakfqMm0+bTtyksP9o76uOVvmPGMo5+RHZGOoRANLT45G+kTl16TOOvI4/JGm5sm2e0W2fkdTb/m3y+GITbVm7mBb73pA/ZNmkXkZQ5v1TtO5tK+Lzrcll/SmKaRgsNI9JamDEd+hHj+FkY2lBtk5T6LNNC2l4zxHk/uURisxjNOaHOmRpR+hDoSW9InQlv6gy7bJorcNc50s126oJGsYwrjFVY94pweTQ2aVDqauZJfUe60n7bv5MHjYW1GvyToqUqOtXRrlXN9KUfp2pg7ktTVgRSEEbnci47mFNzni9S5n1tdiWXLdfolSJ+rFfbTwyIrqvaX6hycfNtQMRyXKv0sYp/ahzB3OynbCCAoM2kpNx3cOaRPQsnLZN6kHm5tbkMHMn3by8mhz7jKP5m07Q3eKWxVlboEfEtaJQhw4dOnQ0pQbhPktwz9Mfy+rWrL2MyOKwwWkEzk2JwL2tDqpXaHX8j8Ei5/wW+Je9Dw8HFsXiUpRXlkOc+wCnj+VhUdBeTFK6Sq3jfwkGyduGw+n0JITGfo23/kYFg0nehuFOpzEpNBZfv4SKtcvSFB06dOj4e8JCFHEAF1/5CPNe5kl4EzSsa9DxPwWbcxzeyx+g1/8NQq/+9hg6ahwmTnoPM2a6wOmtN9vvtrsOHTo40U3EdejQoaOZsOIExLGTsWnleFgq73zZkJWg5BmDUpFY5QuAOv4HEVigq/HvWDZsIj5ath5btm/Dxi8+wdx//oZeiz3R+6/yu1JHOyFDcXEpZOUSPNP8mNtfEllxMUpl5ZC8pIrplqbo0KFDx98NaRquHf0PwjJKIRNYwHb8LCxw7gXFS1h1/K8izUH0xfMISchFJd8SNkMmYdr/DcQrukn4/zgMcm4fx8krqRDV6sOy10S4fTxew9t0/lowObdx/OQVpIpqoW/ZCxPdPsb4l0wx3URchw4dOnTo0KFDh44XgG5pig4dOnTo0KFDhw4dLwDdRFyHDh06dOjQoUOHjhdA+0zEq3OQ8LDghTyrX52TgIcFDT1XZMbiQXZ1k2NeRioy45FS9OdZrL36a692G/PcPmXLkJ6QBkmdmBWZiH2QjedosdWwZelISJO8kFx56VD2y1+QdvWnSl2tRk7CQzQqd38eKrK8BDBiPEp4ggrl7e1Mi3z+stntb5BzOlqIss9f4Pj3Qvt+iWjbiTgrQeyJz+FsZ4fx28L/1Cf1WUksTnzuDDu78dgWruiZzcCBeSMwctEx5L+khYYtjMIh73Gw6/sOdka1v8Xaq7/2aleF5/Ipg+zf/eAxtCfedDuAFBkAsMg4MA8jRi7CsZY32HqYbPzu54GhPd+E24EUtZ/7/d9BnV/+YrSnP1XqKgtJ7Al87mwHu/HbUFfu/hRUZHkZYJD5ux/mDemJQQsDkKnpu9ZtTUt8/tLZ7W+Qc89LZSquHdqMj11GY9So0Rj79mTMcHPDjPdnYM4na/CvU1HIrXMUW4i7v+zEZ9MnYPTY6dgc0uiT7QBQk46Qo1/D891xmPLpv3AiNBq3f/4GXlPHYvTocXh/+fc4HZnT9Jw/HXU+f0HjH8Ddt/QW1o/si7GrglH4Z4v1IlD+ws9zw2TR9xMMydL9V6pS3tfOMFnf0wRDS3L/taHn8oz7FJfVVpIwVBhzl9JkytufD1naThpl+BotON9WcnLTXv21V7vKPJ9PpRT+uZAM31hNkVLFpvIMuh+X9afHK0nD6XOhIb2xOpLqRPnfRY1f/mq0pz9V6ipDWd9PIENLd2pU7v4cVGR5Gaim3z+1JUOnrZTUxvWZk5b4/KWzWxvnHFNIMXfT6M80//NTQefmdyF+xw/oVJliU1UORRxZRqO76JPFkCV0JqNBo9rHh8jVik8C6xl0LF1Z0wr678cjaUVYnTFr6cHGIaSvP4Q2PlD9Cu+LQY3PX9T4R5r7lt5eRU4j1lOYmo8P/x1p2yviAMAzh5mpnvLWPwWeuRmUuza1ccDg7kZNN7aWimh8v+EoHrXx1QO+marc7Ul79dde7SrzfD7lw8LCHE3ENLWBw+DuaG2LrYZvAQvzP8FgfwnU+OWvRnv6U6Wu8mBuZvpi7KUiy8sAH6Zmpm18i7cZtMTnL53d2jbnKqK/x4ajj7jvDLx0CGDR0Qx6enzw64LHqBtGeHyH4Atf4o0//PGxx/dIVtxlEfQYBsc+r6FT6X+xdM52RJc3bouPjhavwdysriE9mJoaA3pmsLD40yNTA2p8/qLGP2jqm0FW5uv44uRmjOnYZMfflnaIDh701GY2A3F6DG6FRSGlUPnGHAvJ42iE3opDVqkIuXnaVvnVoDAlEiEh0UgTN7oPydNTLSrVOYhPzldak1eJ3ITbCAm7h8yyxnsqkJWQChEL1BQkISIiGYWKqsIWRWHP/I/gdycDcVeDcTOxqL7NytwE3A4Jw73Msib9sJLHiA69hbisUohy8zSvXdRrJHdNPhJvRyC5ruM6ZCI8ir6JGyF3kS5peu+1IisBqXKhkRSh5lxlmtMfh14AUFOYgsiQEESniVEvTTPbZcTpiLkVhqiUwtbdolX2aUUWElJFYFGDgqQIRCQXqg4GshKk3QlFWGw2qpT3oRo58ckqS13U6ojn94WsJA13QsMQm60qCVpqH7YMT5LSUcYyEKdFISw6DUoiQSZ6hOibNxByN11lX2VWAlKKGFTnPsCdlBKFnjKIHkXj5o0Q3E2XNNVdEzWFSIkMQUh0GhqnpNa2OP2i5dw62DzEXQtGUFAwbqVIwIJB7r0rCAoKwpWoJ6isO645ccKIkR5zC2FRKVApUxrQ5k+uPFKH+uNV6ypPeYMCrvhpdk1S0FxZ1PK89q7MRvzDArBgIEmPQURsVr28NQXJiAh/gNxGi0v16oQiGYoeRiEqKV9p7WklshJSUMRUI/fBHaSUNESUej010zqfN9Nu4MonLTZrjs3V5VxzcwjqZGNRFLUH8z/yw52MOFwNvonERs8JccWj+vqjHZU4bon8zcR06Epscn8d5be+w/fXG1rQe2U6dv04CxYx2/DRsrPIa07AtBRWgsfRobgVl4VSUS7yyp5TP3U+r0d5/GtdnmgcLzn3Kfct55Vho9A1666auaLmOZpWmh0jz9FHK2mHibgaJFH4zsMNawMTkJV6HivH9IfLlpuQ52oN4vd4wPtkNmTVyTg8Zzg++ClDtXgoYItCsH2eB/51PROF8XsxVegE73N5KkEBVozYU1/gHbveGLs5rL4gs3nB2LpoJfxD43H39EqMFo7F+utFKLhzDMsn2EH4ri9OHVoMl/fcMfc9ewx09Ucaw0KSK4KxZQewrBQVEglKK2UAm4fgrYuw0j8U8XdPY+VoIcauvy53YPweeHifRLasGsmH52D4Bz8hQ5NSCmqe/IIVs+bAa/E0OAycjoOP5SHLpJ/A/OEz8P2DYuRH+MJFOBqbIyvBFt3BseUTYCd8F76nDmGxy3twn/se7Ae6wj9NORVU0dQfl15gixCyfR48/nUdmYXx2DtVCCfvc02KkcZ2IUHUdx5wWxuIhKxUnF85Bv1dtuBmcx/uVPYpW4Q7x5Zjgp0Q7/qewqHFLnjPfS7esx8IV/+0+oSvTDiAuS6eOBSXg7QLPvD2f6TYx0IcewpfvGOH3mM3I6w+SDTr+Hy+qETCgblw8TyEuJw0XPDxhv+jxn5qiX0YZIfthedQG/R334uAze9gyLBJeHtEPwgnbsHtUvkx6SfmY/iM7/GgOB8Rvi4Qjt6MyEr5mv7DyybATjgJm/bvwAejR2LE0AU4XpiOE/OHY8b3D1CcHwFfFyFGb47kKPQsikK2Y57Hv3A9sxDxe6dC6OSNc3Jjcbal2S/Qem4TeJ3Q4/UC/Lx4GhYdSoYMfHTq3gWpe+Zg6ueByK1tXpxIor6Dh9taBCZkIfX8Sozp74ItNxt+cKuixZ9ceaSOlh6vAnf8tKgmPY8szcxLjfZmSxBzYiXeFvbBuE2BOLNxDmZ7fIwZI/ph+MpgxBxfgsnTF+CTmcPRb8xGRDYOCirAJe+RcBjpjNEDbdFv2veIKWdRGHUYyybYQThpE/bv+ACjR47A0AXHIWqxnm3scxU48onTZs2zucac05ZDDIdsOSXIFRnDsgMLVloBiaQUlTJwxqPG+iNqsIQm1MYx2xz5W4opRk8aiY6Uh/CbiY2289Btlj9OrnNA4bFFmLcnEdJGe5+bmnjs8fDGyWwZqpMPY87wD/BTlnmr9dPoc5Xxr5V5wjFeat6n3LdCWI1zRRZFnHO0JiqrR2uMt0EfrUV5rcrz84yOTDFqtA5OTJc/EVK/5aH164AqwldSPwMrmv1LPjHSCFo1wJ7WRClWPuYH0La9SaR2RRWTRyfd7Mjlx0xiiIhqE2nXuE7Ubf5ZKicienaEphg1WiPO5NGPzoZkPus0VRARMQV0as4EWhulWBzFZNLucQak77CBYmtl9HjXKDIwd6Jl59JJSkSSX+dQF8PRtOuxjIgYyv3BmYysPelyNRERQwWn5tCEtVGKtYEMZe4eRwb6DrQhtoIiVg0g+zVRcp2ZfArYtpeS1CpFRIX7ycXIjEasD6VChojK/kvzrYxo3LcZxJCMHn49jEwcN1NCLRHV3qF1A4zIfkMs1RKR7PEuGmVgTk7LzlG6XGia08WQRu96rHmtHmd/XHpJKe+kG9m5/EiZcgdQ4q5x1KnbfDpbrq1dIvHlT0jYbzmFNgQCrexnQFazf6F8prGAHCj7VPaYdo0yIHOnZXRObgD6dU4XMhy9ix7L5H2sHtSLFpwTKxoop4sLrUm/fo0cQ3k/OpOh+Sw6LQ8SDh2fzxcV4atpUK8F1CDKRVporV+/vrTl9pFSxKq+pG81kTYGP6VaqqDkg9PJmm9AjpseUK3sIX09zIQcNyeQXNx1NMDInjbEygORydxN4w2MaeCyq1QoTqLrwQ+oMOlrGmbiSJvlCtKddQPIyH4DKU5Rgck7SW52LvSj3FhUm7iLxnXqRvPPlpPsIUdbWvzCea46ZMm0bagR9V11WxG3Urq9qi8Zj/iG/pA1I07El+kTYT9a3mB8Cl/ZjwysZtMv6o2vxZ9ceaROCW3HK9dVomdHppBRozXi3PEjbUFNarksKjyvvZlc+sHZkEyGr6PQPBkRSen+V/ak33EErbn6VB7PsV+RvWEv8r5ZXR8jBtZTac8dEcmonBIOziRbfUNy2hJPtcRQ5u7xZGA8kJZdLSRx0nUKflBEeZx6qvJ8PtduN6580mozbTbXknPacohTNiaXfnA2ImvPy1StaJ07HtXXH5H6VGsERxxrkV89Ugpd2psEFm4UWKG8j0gatpz6CHhktfCifENtIm2b7k3XqolIlk7HPnidBMYDafk1ETFUTTc/n04b62NHRmk7R5G+wTjarbBZc5BGrKIB9mtIPiViKD9gG+1Nqm2dftp8rmb8a1mecM0JuMZSdX1rmSuStjlaM9BqwzbooxW0/xXxkgs4+Es27AY71K8DMhnmBldhMS6eDIJEYA2hTSa+nToW878+gyR9N6z/rD8ESs0AAMRBOBVsCAenrvJL+YI3sSpEhJyjrjBVPhYAeGYw69DoXmBlCM4G5+DRRT/4+vrCd0cAqlw2Ycs8RxiDjw4dTME3s4eLS08YADAV9kF3XikkJeo+PlqJkLPByHl0EX6+vvD13YGAKhds2jIPjsYCWAttkPntVIyd/zXOJOnDbf1n6K9WqTpM8MawoejMA2DUAz26ABKxGCz4EHodQ1iAN2yzQ3B4xxFEiVlIq6rBAuB36ABTvhnsXVzQUy40+nTnoVRSAnVSN6CpPy69xAg6FQxDByd0lTsAb64KgSjnKFzrHaCp3RJcOPgLsu0Gw6EhEODmKkTxxZMIktQLxo2yT/kd0MGUDzN7F7jIDQBhn+7glUpQQkB58D4cTR+I8RMsFCcYoaetFRo+cMuDmVmHRkuauHR8Hl+UI3jfUaQPHI8GUXrC1qpOktbYhwdjYyPwO4/ENGdrCGCCfh6bsciekBAaigI9IbyOhSHA2xbZIYex40gUxKwUVdXyq2s8Y2MY8Mzh5DwGnS36w9llEDq/4YVjYQHwts1GyOEdOBIlBiutguIUFcRBpxBs6AAnubEgeHMVQkQ5OOpqCr5Qc1va/MJ1bqvQEiclFw7il2w7DG4wPoa5uUJYfBEn1Rpfmz+58qhRM/W09HhltMVPS2rS88rSBvbmdYCpiR4Meg6BU1c+AAMI7WwgQHcMGWUNAQCBrQ266ZVCLG6odHyrt+A8pBP4MMWAj/3w+Wg9JITdQjHLg7GxAXjmTnAe0xkW/Z3hMsgIYS3Ss619rgpXPmm1mRaba8s5bXDJpoq2eFRffzppnZG0JI6fHyovRyXxYGZhqbwL4PfEvIMBWNX/CX7w8MSx9La5ZCqwFsIm81tMHTsfX59Jgr7benzWSgW1+1x5/GtpnnCNl1z71PStba7Y4jlaa/gz+lBFa9g/L0xBFp5WsqipabRaT2ALG2seaiRiPEMPLDx+DfvdzBC6fRaG9B2JZWezVNYYAQAjKkRxtQQljQovN3oN6wYBsGVFEFUZop/raqxbt67+39rlU9FX0GiNYd3ZfD70QGDVdceWoUhUBcN+rljdqK11a5djal8D9Fh4HNf2u8EsdDtmDemLkcvOIkudUmrhg8cHGFktAIAnqELcnkXwOpyLwR97YaIVr2GS3XhdNgDo8cHXA0it0Jpo1B+XXnalKCyuhqRErGWSX0ejdpkCZD2tBFtT02jdpgC2Ntbg1UggftbcGVZTn8r/bvQn9MCXGwAEBtkpf0ACPgQcka7X2IaMiFPHVvuCyUbKHxKAL1CfdG1lH0FvvNnHFKiVQko8CKrisGeRFw7nDsbHXhNhxWuqlcqSVZ4AVXF7sMjrMHIHfwyviVZQOqURDESFxaiWlEBtSmpsqxl+0Xhua+GOk4Ksp6hka9C0TNnAmlcDifiZ6vIUbf7kyqO+agbVlh6vjNb4QfNr0vPKArSBvZXPB/R4emiSlHo88EBq8xQAwOuMXj0toMfIIK+kSg22VM+29rkKXPnUGpu1vBZqhks2NWiNR3lGqdQfrfCaH8fPjQxpMbEoJEs4jRiovFOOxVhs/WU33qMLWPbhNtxXu3auZfB6LMTxa/vhZhaK7bOGoO/IZTjbKgWb5/Mm4598S5O/OOOaa06gZSyFUt9a54psC+doreTP6EMZDve0DfxufdDbnEFSzL2G9Z1sDaQ1PLw+2AFWlI3Ep93hsecGUpIuwGdQFvZ5b8d1NYuu+K/1gLVxAYJOX0FJ3UZWhCD/AKQ2I0555t1gZZKCwEM30PAWUAbpQZcQr2mtpCZ45uhmZYKUwEO40eiVokx6EC7FS5Gd+BTdPfbgRkoSLvgMQtY+b2xXp5RWynF5xTT4iGbih63ucOxSV9DbKSq49Ep6BT2sjVEQdBpXGhwAUZA/ArQ5gN8NfXqbg0mKwb2GQECNtAa81wfDwao9QlEPnV7tBEF1Iu7FKdmeWNXJFQDwX+PQsbT1vtDrhFc7CVCdeA+qorDPZx+iRrrUorKaRZd+A9Ct6jJWTPOBaOYP2OruiOaIW355Bab5iDDzh61wd+xSf2dK/Sl8vNbDGsYFQTjdYCywoiD4B6SiVGNb2v3SMjkAgA8BX80PUCK1P+qbwke3Pr1hziQhpsH4YGukqOG9jsEOVqqFUps/ufJIXbFp6fHKaI0fan5Nel5ZtNIKe7eKShQVV6GH/RC8pq7BlurZ1j5XgSuf0vDac9lMe85x5xCXbKmqOaY1Hrml1QzDEcdc8rccVnQF3x19AP6AhfjsPTPl3fUI7D7G4eNL0StxF9YHPOWoUc2DyU7E0+4e2HMjBUkXfDAoax+8t1+HtMX6NcfnzYArrrnmBGmvat6nZr6gda7Y2pBpQktt+OfQJqo1hQHDyAsTCwAdJ2Op10CIz+zG4VT5E7Bs/jWEZI/C0iVjYMhkI3CnP+5XAka2/4DPVzNha2III3U/lTu+iwWzuiP/+Cd4f/m/EfhbAPw+9UCgYCTs+AAYBgwILFsXYiwYluRFEgBMJ2GBe09k+Lth/Jwt+CnwDI75emJNhCl6CVgwjAzENvrlQyQPWJYFwIORkSHwLA+5JUWIDn+MUQvc0TPDH27j52DLT4E4c8wXnmsiYNpLD9mBO+EvVwr/8PkKM21NYKhWKYBlWbBqfnGxLAuWLcXj9AKUZ6XiSXk1skMvIDKPQWVpHuKiE8EyDGTENgosAilsoCnROPuDKSZp1OsVvLtgFrrnH8cn7y/HvwN/Q4Dfp/AIFGCkHV9Lux0xeakXBorPYPfhVPnT82w+roVkY9TSJRhjCFTe3Yv5kz/Elit5TRtogpJPWQaMjMASW18A5W5jwbI8dJ4yF5NfTcehFT64mFUDSDNxP7EQjDgHmfmlqATAMiyovjB11Kxjr/LW+4LXGVPmTsar6Yewwuci5KLcR2IhA3FOJvJL9bXaRxNsUSYyFK/RYnPP43z8AHgtmQiD0sdILyhHVuoTlFdnI/RCJPKYSpTmxSE6UX4CQYba+jkCi9LH6Sgoz0Lqk3JUZ4fiQmQemMpS5MVFQ3FKEzq+uwCzuufj+CfvY/m/A/FbgB8+9QiEYGQvlGts6y4KJnL5RYx8jeeqlwP8LrDuaoCcqKu4X1CIh5f24ehtEWRF2XhSXIZqzjgBOk5eCq+BYpzZfRjyMsUi/1oIskctxRJ1xtfqTz2OPFJ3dZQr7wSqdRUAI98AeSpoyy+mBTWp5bKo8Nz2ZsCyigluHSRvpL68EIHAgm00glJlKSSKOUd1wiGcePx/+GrZCBjI9wKy2kYvAtCmpxLP7XPtdtOcT3bopM1mnDZvRi3UkkOGHLLxeUaQD4+5KCmKRnh88+pZ0/oDoPIu9s6fjA+3XNHwNhKOONYiv/qvNxJqapTfzAHI8m5i+2xPHK9+G18f/Qoj6t+vV4OaSimkTcY4HjpN9MUv/3oHHaU1TSbiUqkUIBlqaxVbteoHMNmB2Ol/H5Uwgu0/fPDVTFuYGBpBr8X6NcPnKuMfWpgnXHOCThz75ItjmvStba4IbXO0StzdOx+TP9yCK5qMq9WG2vpoJ5QXjT8fVZRycQO5dOUT38aVtp9LlG+uzaDz66eSo8N4mr3on/TxXC/6NrRA/sCl9Db5jOxN9m970BebttDaxYvJ90a+fJ86KpIpwHsiCTubUUdrJ3L3uyV/MLAqhS5ucKGufD7ZuG6nc4l5lHxhI73bjU8CW1fafim1/vwT3hPJztKQDMx70KjFRymxgkgSf4Z8nLsQX19Is/0uU1LqLTq8dCRZ8EzIwfMghecwJEs7Qh8KLekVoSv5RZURUQUln/CmiXaWZGhgTj1GLaajiRXyBwB8RlJv+7fJ44tNtGXtYlrse0P9A3eSB/SfNROoC1+fhG676GJiCoUdWkajLPhk6vgJHY7KpZyzS2loVzOy7D2WPPfdpJ89bMii12Taee02nfFxlp87248uJ6XSrcNLaaQFj0wcPOlgeI5yb83oL59DL5LvC/CmicLOZNbRmpzc/ehWIdPMdmsp4/x6muroQONnL6J/fjyXvL4NpQKGiIihnCPTqavFq9Rl1JamMtdTruTTGIo/40POXfikL5xNfpeTKPXWYVo60oJ4Jg7keTCcchiGxHd+JI/hNmRpYUtOUz6jTQuHU88R7vTlkUh6nHiBNr7bjfgCW3LdfolSq0mzjsQ8ny8YMd350YOG21iSha0TTflsEy0c3pNGuH9JRyLztNhHHbUU+9VgMrAaTrM8P6UVn39KH013oy8vZMof1GVy6OzSodTVzJJ6j/WkfTd/Jg8bC+o1eSfdfnKfTq17m6z4fLJ2WU+nYoqJISIm5ywtHdqVzCx701jPfXTzZw+ysehFk3dGkqZvK1QkB5D3RCF1NutI1k7u5HersBltcfslJ5vrXPU8C99Gk3qYk7m1A83ceZMur3akPuPm06YTNynsP9rihKg24zytn+pIDuNn06J/fkxzvb6lUM3Gb4Y/ufJIHZqOV62rVSkXaYNLV+Lzbch1+zlKfEZa4qcFNYmoRbKoImlGXnLZu5ySz2+kd635JOg1g3ZcSKDMuN9o69QexBf0oum+/6UHT2IocMM/yJovoJ7TfSkoTUoVf5ynbR+No7fGTiOPT5fSoiVb6cLjKiJiSHT/FK1724r4fGtyWX+KYorrFNekpwZa7fPm2E2Opnwi4rJZc2zOnXN5DFcO3aVihks2GaUd+ZCElq+Q0NWPosqIMx4Zkab6c4Smd7WgV7uMoi0J6h6Y5Y5jbfI3oSKFrh/eTFNtBKSnb0WOUz+kBZ4LycNtMo0bOYHcVh+g8NwGGWRZt+nkv+bSm6Y2NGXjIbqWqhQnTCEFrZhD22NriWRPKeLUt7RgsCnp8czIYf4OOn77aTP0I5Le9qGRve3pbY8vaNOWtbR4sS/dUCjYIv2IiLTU2abj3wWKjmpNnmgaL7n3lSerGXs55opa52jZ2XRkeleyeLULjdqSoOhfFS4bpsdp6SNHrZGfGz0iUrp+qUPHC6QmHD5L7uHrn5Yp79GhggxxG5ww4twURNzbCgc1F/F06NCh469FDcJ9luCepz+W9Wruo6R/Jf7u+r1YasJ9sOSeJ35a1kt510tLOyxN0aGjlbAiRBy4iFc+mqe8R4cW2vGmmQ4dOnT8SbAQRRzAxVc+wry/5ST1767fi4UVReDAxVfw0by/ziQcAHRXxHW8JLAQP7iJpI6jMNr2hXxs9y9INX7/rD/+7+L/4XLyv/G2ifJ+HTp06PjrwIof4GZSR4wabftiPrnezvzd9XuhsGI8uJmEjqNG4682hdBNxHXo+EsiRdq1o/hPWAZKZQJY2I7HrAXO6CV/Kk2HDh06dOjQ8RdANxHXoUOHDh06dOjQoeMFoFsjrkOHDh06dOjQoUPHC+ClmIhX5yTgYUHLHjdjSzMQEx6JxHzVt2e+MNgypCekQdIyVXToeGGwZelISJO8BA97ViAz9gGyX2g6syhLT0Day5zAyjWmIhOxD7LVvEP4BcKI8SjhCSqUt7cH1TlIeFjwEsTvi6YaOQkP0XgYrciMxYMXkVA6n+hoNso192UYB/58XuhEnJXE4sTnzrCzG49t4Uov1Wce4QfXvhgy7xgeN/koGYMngV/Aa8cFRJ77Ei7Cgfjo+JPGB7wAGGT/7gePoT3xptsBpDTnI2o6/uKwyDwwE30Hz8aBFNUPQrz0MNn43c8DQ3u+CbcDKY0+3vBiYDMOYN6IkVh0LF95158Ck/07/DyGouebbjjwQhKYwaMfXNF3yDwca1rw6ver1hgWGQfmYcTIRTiW/zJMexhk/u6HeUN6YtDCAGS256fqWAliT3wOZzs7jN8WLv9gzP8kLCSxJ/C5sx3sxm9D/TDKZuDAvBEYuegY/rTQ0PlERwtQV3MbjwN/Vti+DLTLRJwtuoeYx9qrMM/CAe4rpkGoZpk6mx2EC49HYb3vXPRu9H5ktuAkVq5IwlurvOG9IxA/rx4OM5mazzT/qfDRfaI3Fo17BWpUeYlgUXQvBs1wjXbYItyLefxCPwv7QmHzEXQ+GU5rdmDhG3/BJyT53THRexHGvdLoS4WtpQ1igWe7GD9HRuDg/K7Ku9TS3BrTXPjdJ8J70Ti88qISmM1G0IXHGLXeF3MbF7x61NUYHmwX/4zIiIOY37WulLdhjrcYPmwmfoYFYyzlX8FsT3gWcHBfgWnCNojfvzQ8WDi4Y8U0YdOxh2eLxT9HIuLgfNSHRnuj84mOFqCu5jYeB9okbNtgbPozaBNdm1KB6O834OgjdVd1VOGZm8FUzVeWS5P5mHHiB8ywbipiTdR1hFeYwtwIAO8VOH91HPsWvNHkmBcDHxYW5lCjystDRTS+33AUzXQNJxXR32PD0Ucv/ErqC6MyCex7R+HvboO/7Ntg+RawMH/+iG2bWDCFjcNgdG/Wa6daVmOaC9/CAm1gjtZRmgz+jBP4YYY1R1FWU2NMbeAwuHvDq9DaMMdbBx+mZqYcOrQhPHOYqRs8/ufgwdzMVGXsMbVxwODmJVTbofOJjhagWnNbMg5op23GpvanbeslW4SoPfPxkd8dZMRdRfDNRBTV31+oRG7CbYSE3UNmWaObDjw9lQICAIb24/CmOAb3MssUtyikyLpzBVejHqOUKUby9SBciUhDWd0JjBjpMbcQFpWCQuV7YhVZSEgVgUUNCpIiEJFcqOoYrvO5kJUg7U4owmKzUaW8D9CsNyc1KEyJREhINNLEyr/lGIjTY3ArLAopKoJWICshFSIWqClIQkREMgoVirJFUdgz/yP43clA3NVg3EwsUthVBtGjaNy8EYK76RLVX441hUiJDEFIdBrkorAoitqD+R/54U5GHK4G30RivZO5ZFOFFSUhJDgIQUFBCLoSjYxKAKhERvQVBAUFIyRJpHwKAIDNi8O14CAEBd9CioQFmFzcuxKEoKAriHpS2XBgc/yuDk3nsXmIuxaMoKBg3Hr6Frz+OQTP7l1BUFAQrkQ9QX3PldmIf1gAFgwk6TGIiM2qXy9bU5CMiPAHyFVZA6cpTiqRlZCCIqYauQ/uIKWkwUOMOB0xt8IQlVLYotvAspI03AkNQ2y2+ohFZS4Sbocg7F4muEOWIxZkIjyKvokbIXeRLlGKqsosJKQUganOxYM7KahTSZobj2Sl++iVuQm4HRLWUAc01hgtcawRGUrS7iA0LBbqzaHJL9zUFKYgMiQE0WniJrJUZiUgpYhBde4D3EkpadhnaI9xb4oRo87mnDWmGjnxychnuXK8lfWNleBxdChuxWWhVJSLvCaLvjXnup6eoqKTDEUPoxCVlN90DbsG/0Odvznhoa6rBlobB0BFTjzCwyLxsFCKmoJ0ZJSxyIu7huCgIATfSoG81NzDlaAgBF2JQuNS05o40RgLGvNPs248VUMA1TmIT667xV+KR7fltarJv+BwpCrW58pEjxB98wZC7qajacpqrkGqqPOJlvjjjDPNaMoxrtqj0ebVeUi8HYrwuEyUqnNfm8vf2jFevS806qUpljTJzJbhSVI6ylgG4rQohEWnKcUCtMineQ7SAHfNrc5pxjhQh6axmmts0pirLCSPoxF6Kw5ZpSLkNs+RbUKbTsRZSS5ExpbowLKQVkggKa2EDACbF4yti1bCPzQed0+vxGjhWKy/LlJfaNk8BG9dhJX+oYi/exorRwsxdv11iFhCTUUpJBW1ANWiolQCybNqMCwgifoOHm5rEZiQhdTzKzGmvwu23CwCyxbhzrHlmGAnxLu+p3BosQvec5+L9+wHwtU/rT5YNZ6vJJoylQkHMNfFE4ficpB2wQfe/o+aFIQW6a2ALQrB9nke+Nf1TBTG78VUoRO8z+XJz5FE4TsPN6wNTEBW6nmsHNMfLltuoohlUXTnGJZPsIPwXV+cOrQYLu+5Y+579hjo6o80hoUkVwRjyw5gWSkqJBKUVsoAJh0n5g/HjO8foDg/Ar4uQozeHKmYULIoCtmOeR7/wvXMQsTvnQqhkzfO5ZQgV2QMyw4sWGkFJJJSVMq4ZFPWsAGecQdUXPsKsya7Y19GF3Q2AgAjvMK/jW0+F1Fh0UH5FAAAr1MPvF7wMxZPW4RDyTKA3wndu6Riz5yp+DwwF0wz/a6CtvN4ndDj9QL8vHgaFh1Khgx8dOreBal75mDq54HIrS1BzImVeFvYB+M2BeLMxjmY7fExZozoh+ErgxFzfAkmT1+AT2YOR78xGxGpGMjVx0kR8qMOY9kEOwgnbcL+HR9g9MgRGLrgOESQIOo7D7itDURCVirOrxyD/i5bcJPL2ACASiQcmAsXz0OIy0nDBR9v+D9qErHIC96KRSv9ERp/F6dXjoZw7HpcF2lol5WojQUm/QTmD5+B7x8UIz/CFy7C0dgcWQmwhYg6vAwT7ISYtGk/dnwwGiNHDMUC/1CcXvN/6NN7JL76XTFl01AHikrU1BjOOOagMgEH5rrA81AcctIuwMfbH43Nod4v3PkLtggh2+fB41/XkVkYj71ThXDyPoec/CgcXjYBdsJJ2LR/Bz4YPRIjhi7AcRG3zTXXGBbi2FP44h079B67GWHVGnK8tfWtJh57PLxxMluG6uTDmDP8A/yUoRhRm5PrVIBL3iPhMNIZowfaot+07xHzTIP/j4s0+ltT6Kml1XGQhKNe72HujitISgnDt7Md0LP/dBxIYdGpx+so+Hkxpi06BHmp6Y4uqXswZ+rnCMxVeKKFccIWtiIWWqIbK0bsqS/wjl1vjN0cJv8RVPMQx7b7IzqnBBKJBJLiGOxfNBUz1l1EIZ+QfmI+hs/4Hg+K8xHh6wLh6M2IrGRRqLEGNR/O+OOKM01oyLE8VnPt0WxzoDRyJ1ynbERUrSFKL32K4f3ewoR33sOMbTdR2Q7yt3aMV+eLt9w3YY9avThiSa3MUmSH7YXnUBv0d9+LgM3vYMiwSXh7RD8IJ27B7VKF8Bzycc9BFOdz1FxWHItTX7wDu95jsTmMexwQybSM1RrGJs25WoP4PR7wPpkNWXUyDs8Zjg9+ymjehbu2gNoYJvcHcjayJs/L1YoNBXRqzgRaGyVV/J1Ju8cZkL7DBoqtJaJnR2iKkSW5/1pFRAwVnJpDE9ZGkfxohjJ3jyMDfQfaEFtLREQVP08jIws3CqxQdCi+TJ8I+9Hy0CrFhgoKX9mPDKxm0y/5DJHsMe0aZUDmTsvoXLqUiCT065wuZDh6Fz2WNeN8TVSE0+pBvWjBObFiQzldXGhN+m+spkhpM/RWB5NHJ93syOXHTGKIiGoTade4TtRt/lkqJzFd/kRI/ZaHUr2k4Supn4EVzf4lnxiS0eNdo8jA3ImWnUsnKRFJfp1DXQxH067HMiJiKPcHZzKy9qQ618gefk3DTBxpc0ItEdXSnXUDyMheLh+Td5Lc7Fzox0y5DWoTd9G4Tt1o/tlyIiaXfnA2ImvPyyRvSptsHFSE0nKhIfVbHaFoi6H8Y3Np9v4szvNkydtoqFFfWnVbYV/pbVrV15hGfPMHyYi0+10T2s6TJdO2oUbUd9VtRYxK6faqvmQ84hv6Q0YK2xiSyfB1FJonIyIp3f/KnvQ7jqA1V59SLRHVxn5F9oa9yPtmtZY4YShz93gyMB5Iy64WkjjpOgU/EJHo8ick7LecGkI2nFb2MyCr2b8Qd8iupkG9FlBDyF6khdb69MbqSJKH7CmaM2EtNYiym8YZ6JPDhljSFLKqsSCjh18PIxPHzSQPqzu0boAR2de1wWTS7vEGZDxwGV0tFFPS9WB6IGKIiv3p/wxN6f2ACq11QLnGcMWxZioofPUg6rXgHDWYYyFZ679BqyOlWvzSuJ3GMJR30o3sXH4kedrUUuKucdSp23w6Wy6353gDYxq47CoVipPoevADKsrjsLm2GkMM5f3oTIbms+h0hfxv5RxvbX2TRqyiAfZrKKqK5DkZsI32JtU2I9fl9jewnkp77ohIRuWUcHAm2eobktOWeKpV6/9aTn9r5hkdmWJElu6/UlWr46CMfl8+gBxW36a6IUUasYreMBxA6+7UEpGMkrcNJaO+q6ih1KyivsYj6Js/ZK2Mk5bHQrUW3Z4dmUJGlu70a51TmDz60dmQzGedlutVm0gXL6Yo8riMIr50pA4WY+ib2Goi2UP6epgJOW5OkNenO+togJG9wvbqa5DmyGnqE23xpznONMGVY9y1R53NRdIE2vpWB3LamiQfN2rv05eDDKn30hB5LLa1/M81xqv3Ra0avbhiqUKjzFKKWNWX9K0m0sbgp1RLFZR8cDpZ8w3IcdMDqtUqn7Y5iJaaS0RM3o/kbGhOs05rHwe0jtXKYxNXrlZE0KoB9rRGbhRi8gNo294kzeNeG9OmV8TVUhmCs8E5eHTRD76+vvDdEYAql03YMs8RxsrHohIhZ4OR8+gi/Hx94eu7AwFVLti0ZR4cVQ8GAJRcOIhfsu0w2KFuUZEJhrm5Qlh8ESeDJAC/AzqY8mFm7wKXngYATCHs0x28UglKqBnna6A8eB+Opg/E+AkWii1G6Glr1bBeuEV6KxAH4VSwIRycFA8qCN7EqhARco66wrTkAg7+kg27wQ7160FNhrnBVViMiyeDIAEfHTqYgm9mDxeXnjAAYCrsg+68UkhK1D86wxd64VhYALxtsxFyeAeORInBSqtQzQLioFMINnSAk+JJH8GbqxAiysFRV1PlZgCtsnFgMgren41GzrFvcaaABZhMBF7Sx/SZ3Z/vdo0Wv2uktefVwesAUxM9GPQcAqeufAAGENrZQIDuGDLKGgIAAlsbdNMrhVhMWuKEB2NjA/DMneA8pjMs+jvDZRBw6eAvyLYbjIaQHQY3VyGKL56E5pAtR/C+o0gfOB4NIdsTtlYNK9wrQ84iOOcRLvr5wtfXFzsCquCyaQvmaUo+tfAh9DqGsABv2GaH4PCOI4gSs5BWVcuv+PCMYWzAg7mTM8Z0tkB/ZxcM6sQDjDvApP4ZxZbVAa441kh5MPYdTcfA8RPQYA5b1JuD0y+aECPoVDAMHZwUD8gJ8OaqEIhyjsLVFOAZG8OAZw4n5zHobNEfzi6DYBSm2eZaawx4MDProHZpXx2trW8CayFsMr/F1LHz8fWZJOi7rcdn/QXNznW+1VtwHtIJfJhiwMd++Hy0HhLCbqEY6vxf3SJ/a6JVcVB6CftPlGHYO44wUWzid+yIDs0tPq2Kk5bHQot145nBrEOjyBC8iffe6wsBWIiC12DBv55iws4jWGVvCPCF8DoWhgBvW2SHHMaOI1EQs1JUVbOA2hrUqdm1WVv8aYwzjXDlGHftUWfzTmwG0rNrGpb2CHqiZ3cgNyMDVe0h/3ON8ep9IVCjF1csaZaZB2NjI/A7j8Q0Z2sIYIJ+HpuxyJ6QEBqKgmJt8mmZg2iruQB4ZmZoCFst40BLx2quXBVYQ2iTiW+njsX8r88gSd8N6z/rDw5PtinNzadWw5YVQVRliH6uq7Fu3br6f2uXT0VfZS3ZMhSJqmDYzxWrGx27bu1yTFU5GAAYFGQ9RSVbg5pGixAFtjaw5tVAIn4GFnpKa9b0wOfrAcSCmnW+Ohhkp/wBCfgQaLBgi/RWwIgKUVwtQYlYNYqYgiw8rWRR01RQ2FjzUCMR4xnbaG2mAj0+H3ogsKrNyeEJUBW3B4u8DiN38MfwmmgFHgEAA1FhMaolJVAjigrNkU0zfPSatwIzjS7h2/0JqE46gZuvzcbkTsrHtRQuv3PR2vPqUD4f0OPpNX2LhB4PPMjfLKA9TpQaYwqQ9bQSbE1No3W3AtjaWINXI4FYk7GZbKT8IQH4Ag1Jz6KsSIQqw35wXd0o99atxfKpfVtUkHiCKsTtWQSvw7kY/LEXJlrxmtpO7cyxkd1aWgc0xrFmmOwUyM2hwRpa/aIGRoTC4mpISsQaY6Wp6lw2t0OelhoDxXpsteYEmlkf1cPrsRDHr+2Hm1kots8agr4jl+FsFtO6XOd1Rq+eFtBjZKiFihFa7m9NtCYOch8jo1wAA31loZpHq+JEQfNjoS8ELdZNT2U8AAA2JxDeiw9BOutH+C/srfhRx4OgKg57FnnhcO5gfOw1EVZNGldtp3lojz9oiDONaMkxbbVHRRODYZj8zmtIvXEFTxgA0odIybSE85Rx6NAO8j/vGK9GA0BlK3csGbREZkFvvNnHFKiVojJfu3zKMdd4DqKt5gIA9FoyDiiPtdxjNWeuGvTAwuPXsN/NDKHbZ2FI35FYdjZL8zLWNobDIm0Dz7wbrExSEHjoBsT1WxmkB11CvPICHJ45ulmZICXwEG40HAwmPQiXVA4GAD669ekNcyYJMfcaVsuxNVLU8F7HYAcrLQq29nw9dHq1EwTVibgXp/TqRGLlv75borcC/ms9YG1cgKDTV1BSt5EVIcg/AGmv9UFvcwZJMfca1gWyNZDW8PD6YAdYqReUk/LLKzDNR4SZP2yFu2OX+skWgY/XeljDuCAIp6/USwJWFAT/gFSV4OR3e07ZOrpg+SeD8PDgN9jy4328+dGE+qtTGuELwFfzI4NIWbq2hg8BHyDVjlXs0hxaHCf8bujT2xxMUgwaQpZFjbQGvNcHw0GTsfU64dVOAlQn3oNqyMqvfJl3s4JJSiAONU0+BF2Kb8FauXJcXjENPqKZ+GGrOxy7NERVs2lhHdAcx5rR6/QqOgmqkXgvDk3NQWDZVvgFAPivoYe1MQqCTqMhbViIgvwRkKouOrhsngBzLTVGO62tbwCTnYin3T2w50YKki74YFDWPnhvvw5Zq3K9EkXFVehhPwSvqdvfQn9rolVxYGGJjniKmKgnGvOXL094pXYIxLQyTtTCFQvxkLRCNxVkqfBftBT/Nf8nfvpuBqx4ACsuhEhyGSum+UA08wdsdXdEa1JWPdrjjzTEmcYXEnPmWGnLaw+vM1x374OH4Q18t3U3/L4+C+MvgnDc0xb8dpD/zxnjuWNJqk1mokb1pRaV1Sy69BuA7t2fTz5tNVeFNqoLdXDmqjQbiU+7w2PPDaQkXYDPoCzs896O65oc2cZoMV3L4RkZwRDPkJdbgqLocMTrTcIC957I8HfD+Dlb8FPgGRzz9cSaCFP0EgBgGDAgsCwLwBSTFrijZ4Y/3MbPwZafAnHmmC8810TAtJc8qWpqakE1NZAqHNdx8lJ4DRTjzO7DSK0BABb510KQPWoplowxBFgGjIzANiqkRPLJB8s243y18NB5ylxMfjUdh1b44GJWDSDNxP3EQjDiHGTml6LSVIve6uj4LhbM6o7845/g/eX/RuBvAfD71AOBgpGw6zQZS70GQnxmNw7LBQWbfw0h2aOwdMkYGIIFw8hAbKPJqVxRhW15MDIyBJ7lIbekCNHhcch/nI6C8iykPilHdXYoLkTmgaksRV5cNLLHLMCs7vk4/sn7WP7vQPwW4IdPPQIhGGkHPs8I8qZyUVIUjfDMiVpk04YA/Rctx+Ta/+C7pBH4yFGTgRrgd7FGV4McRF29j4LCh7i07yhui2Qoyn6C4rJqrX7XiLbz+F1g3dUAOVFXcb+gEA8v7cPR2yLIirLxpLgM1WDAsnWT27oG5I3UDwdEILBgGQBa44QAWW2jiXBHTF7qhYHiM9h9OFX+thQ2H9dCsjFq6RJoDtnOmDJ3Ml5NP4QVPhchD9n7SCxkIM7JRH5pJUwnLYB7zwz4u43HnC0/IfDMMfh6rkGEaS/NV8SVYyEuH4/TC1CelYon5dXIDr2AyDwGlaV5iItOlJ9DgKyWq5By14GmNSYMkQ81x3FiuXLbcnidp2Du5FeRfmgFfC5moQZSZN5PRCEjRk5mPkq11S21dMS7C2ahe/5xfPL+cvw78DcE+H0Kj0ABRtrJrz0SZGisumab28FKW40BwDIsqH5irpzj8dBvVX0DmOxA7PS/j0oYwfYfPvhqpi1MDI2g11FbHZJDlaWQKAax6oRDOPH4//DVshEwgDr/c/tbMwwYRpGbYFHKUc80xkGX/8P7440R/c0cLNl3BXfu/Y6jR35HXv2snI8u1l1hkBOFq/cLUPjwEvYdvQ2RrAjZT4pRxm9NnMhpfizYokKLbozcEI1qGwuGpUZ1qBIx33yMdbd7Y+2R7XC2lG8VB53DtbzHSC8oR1bqE5RXZyP0QiTymEqU5sUhOrFcTQ3iorFPtI+vGuNMudl6OHKsV7nW2qNsc0CMy+s2Inv6d9i+1hsrNu/E5rn29Usn2lz+5xrjodEXynppjqVe0NMiM1uUiQxFvrC553E+fgC8lkyEkdbc556DaK258oIGluom5lrqgraxWnlsejxKc67qZSNwpz/uVwJGtv+Az1czYWtiCCM9gBVdw2a3D7HtZqNfA22N8qLx50aWRkc+FJLlK0Jy9YuiMiKiimQ64T2R7CwNycC8B41afJQSK4ioKoUubnChrnw+2bhup3OJz4iogpJPeNNEO0syNDCnHqMW09HECiKqpfQb/6alo18hHq8LTVjtT/+JfEoyIqrNOE/rpzqSw/jZtOifH9Ncr28ptIAhIgnFn/Eh5y580hfOJr/LSZR66zAtHWlBPBMH8jwYTjkM1/lcMCS+8yN5DLchSwtbcpryGW1aOJx6jnCnL49EUh7DoTcXFckU4D2RhJ3NqKO1E7n73aLCOlFqM+j8+qnk6DCeZi/6J30814u+DS0ghogk8WfIx7kL8fWFNNvvMiWl3qLDS0eSBc+EHDwPUngOQ7K0I/Sh0JJeEbqSX1QZMTlnaenQrmRm2ZvGeu6jmz97kI1FL5q8M5IkRFSRHEDeE4XU2awjWTu5k9+tQsVDOjJKO/IhCS1fIaGrH0WVccvWPKopdLkjTTmQ08xznlH4tknUw9ycrB1m0s6bl2m1Yx8aN38Tnbib3iy/q9K8eHkWvo0m9TAnc2sHmrnzJl1e7Uh9xs2nTSfCKOK/G+ldaz4Jes2gHRcSKDPuN9o6tQfxBb1ouu9/6cGTGArc8A+y5guo53RfCkqTaogThkT3T9G6t62Iz7cml/WnKKa4PhAo4/x6muroQONnL6J/fjyXvL4NJe0hK6Y7P3rQcBtLsrB1oimfbaKFw3vSCPcv6UhkHhERVSSfIO+JdmRpaEDmPUbR4qOJ9Q+xqUc5FhjKObuUhnY1I8veY8lz30362cOGLHpNpp23n9D9U+vobSs+8a1daP2pGKpXqeIkzejQQfGwJnHUAdUaU6oljjXBiO/Qjx7DycbSgmydptBnmxbS8J4jyP3LIxSZx2jwi3IrylRQcoA3TRR2JrOO1uTk7ke3ChliRPfp1Lq3yYrPJ2uX9XQqprg+zjXbnLvGPE68QBvf7UZ8gS25br9EqdWkkuPEWR81I73tQyN729PbHl/Qpi1rafFiX7pR93Cnllyv+OM8bftoHL01dhp5fLqUFi3ZShceVxExIs3+5/K3Wqoo5eIGcunKJ76NK20/l6i1nmlClnuVNk7pR507mJPthBUUGLSRnIzrHtYkomfhtG1SDzI3tyaHmTvp5uXV5NhnHM3fdILuFrc8TloTC1y65adcpA0uXYnPtyHX7eco8Vk5JV/YSO9245PA1pW2X0ql6oh1NMiIRxaO7rRqzRpas2YNfbF8Po1940M6VZZDZ5cOpa5mltR7rCftu/kzedhYUK/J31BwqKYapA5Vn5CW+OOMM42ozzEizbXnm+BQ9TZncujkRzZkqAcC9EiPp09G5l2ozzgvOv5Q/lBfm8vfqjFe/XjQmljSLHMtxX41mAyshtMsz09pxeef0kfT3ejLC5nyB1k55WveHISz5j5OpAsb36VufAHZum6nS6nVHHWhOWO18tjEMSeT3iafkb3J/m0P+mLTFlq7eDH53pC/aEKW9iO9+1pXmrw/vc4KbY4e0Yv6lJwOHY1gs7DfYzs6f++PGYqrNTr+h6g8hQ+6esP42FMcn95GX3PQoaMVMMnbMNzpNCaFxuLrt7Rc1tbx14bNwfkt/ih73wMObDHEpeWoLBcj98FpHMtbhKC9k5pxR/fvggxxG5ww4twURNzbCgdd6P9ptPnSFB06WgJTXgJxNYvyiH24ZvUR3tNNwv83YWsh4/XFgDf1lffo0KFDRzvAIue4N5Y/6IX/G9QL/e2HYtS4iZj03gzMdHHCW29yLMn7m8O1elNH26ObiOt4ccjisX28Fbp06Yo3lpZg3opRDZ/q1vH3R5aEXeNfx4A5e3Dxv9GombUK8xVrqXXoeFHIiotRKiuH5JnySlwdfzcEFl1h/PsyDJv4EZat34Lt2zbii0/m4p+/9cJiz7q3yvyvIENJyTMwpSKIlT+YqaNd0S1N0fECkSHzyn4EJL6Kd+bNglNn3e/C/y1kyPr9JxwLKYT5wPfg/r4jOv9vjXw6XjKYnNs4fvIKUkW10LfshYluH2O8rS4o/85Ic6Jx8XwIEnIrwbe0wZBJ0/B/A1/5H5uES5F27Sj+E5aBUpkAFrbjMWuBM3oZKB+noz3QTcR16NChQ4cOHTp06HgB6C5B6tChQ4cOHTp06NDxAngJJ+IsytITkCb5az0uwJalIyFN8td6yKEiE7EPsht9obG5sCjNiEF4ZCLyW37yn05FZiweZP+5gj5vPFTnJOBhQWvPfg6qc5DwsKBB7lbHiI62oT3rYTVyEh6iLcNMNdfavo8/DeVc0NFC2jN2taMai+0JA4m4VHlju/C8Y4sKbCnEEk2fs3pOWpNDL2TMebGx2v4T8Zq7+Pe3lxt9yUgzTPbv8PMYip5vuuFASjs+KFMTgY1j+mL08ovIf167M9n43c8DQ3u+CbcDKSov2n95YZFxYB5GjFyEYy0xAvMEgV94YceFSJz70gXCgR/h+JN2SuK2gM3AgXkjMHLRMRVfS2+tx8i+Y7EquLBlhYKL54wHVhKLE587w85uPLaF/4lPzLASxJ74HM52dhi/LVz+oaDWxoiONqH96iELSewJfO5sB7vx29BmYdYk19qpjz8DtbmgoyW0X+w2kz+z7kvTcPbbXbjwRzvrqWFsKf3vPzG437vYHlWmdEJzqUbCyQ3Yfuaxxi+CtphW59CfP+a88FhFe3zQRwnxmbnUzdyZ9j6pfyU8J9Lwz0lo+AatjpS/TL89kEatobeGraWQEuU9rUQaTp8LDemN1ZHUflKrwhTG0N205tlVLeUZdD8ui6qUt2uEofyfp1O3fxwgERExxddpy0dedPjhc8jwJ1CecZ/ispS1lNLtVU40Yn0Y58c+WsVzxgOT9T1NMLQk91+VZW5nmCz6foIhWbr/2hATLY4Rbp47Zv/HaL96yFDW9xPI0NKd2jLMmuZa+/Txp6AuF3S0iPaL3ebxp9R92RMK8HSnb2KV+2knVMaWMjo7/01y+S7+OeNUTL+vmUYLf2n08Z7npZk5pDImtPGY0xxedKy27xVxNhOnjl5FaWUYDh2Jb9bVQb6FBcw1fh+2LWDw9Ek3rDy1DePa6p3VfAtYtK/QaqhA9PcbcPRRc6yqAVMbOAzu3oJXBtYg6no4KkzNYQSA94ozvjq+DwveeLmfLze1ccDg7kpaMlnIfP0LnNw8Bh2b7nl+njMeeOZmMG396a2HZw4z5Y5bHCNctEHM/o/RfvWQB3MzU82f4m4lTXOtffr4U1CXCzpaRPvFbvNo/7rPIP2gN3bhQ3jZt02F1Iry2FKTDNGQ73Hce+Bz1mgLTPjiI0i3foZDbXWHu1k5pGZMaNMxp3m86Fht14m47MFhXHh1M7a+Y4LEn/1xs0L5iDpkKEm7g9CwWGRXKe8DgErkJtxGSNg9ZJY1vl1Riex4+fpDRpKOmIhYZNX1UVOA5IhwPMhVWmkkk0DWcyBezbyPdOV1UawEj6NDcSsuC6WiXORplFeOrCQNd0LDEKteaFTmJuB2SBjuZZY14xaYJh0BVvIY0aG3EJdVClFuHirYIkTtmY+P/O4gI+4qgm8mokhxikz0CNE3byDkbjqU1VOlGjnxyY1u3VUgKyEVIhaoKUhCREQyCuvyQ5qFO1euIupxKZjiZFwPuoKItIZbYYw4HTG3whCVUqhyG6oyKwEpRQyqcx/gTkoJGACozEb8wwKwYCBJj0FEbBYaXJeMiPAHUHGdFt1qClMQGRKC6DSxvI86qnMQn5yv5INXMGxUV2TdTUGhssAVWUhIFYFFDQqSIhCRXNisH5FtFg88PbWTFy4bq8SI0n5l1NuKBz2VjpVjRI4mXSqyEpAqDyAkRUQguS6AOGIWlblIuB2CsHuZaBL6LczHxrBlT5CUXgaWESMtKgzRaZKmMQEZRI+icfNGCO6mK+2rzEJCShGY6lw8uJOCEsVObfGnSg0KUyIREhKNNLFS75xtcddD7nOV0awnT9XZcipyEB8ehsiHhZDWFCA9owxsXhyuBQchKPgWUiQswOTi3pUgBAVdQdSTyoZzlXJNfR+aa53aWqECC8njaITeikNWqQi5SoGhKTbVodmWanKhzWuW5vgAhx4ac6wOmQiPom/iRshd1TFOBVVbNtvXalEXuyzy4q4hOCgIwbdSIG/yHq4EBSHoShTqm2xl3qmvZaqxKKcN6375dezcFQdH14mqk3pNNa2lfSjQOLYYDMXCxW8gP7XxOmzNOa/O3/V0ehczhsRg566bWsePpmjKZzU51BiNY4LymMOi7EkS0stYMOI0RIVFI01NIHCNj+pRF6uN0aRX29OOE/FyXD0QiYGeHljgORWdn/6K/WfVrMmqTMCBuS7wPBSHnLQL8PH2x6NGNmbzgrF10Ur4h8bj7umVGC0ci/XXi1AccwIr3xaiz7hNCDyzEXNme+DjGSPQb/hKBMccx5LJ07Hgk5kY3m8MNkbKM51JP4H5w2fg+wfFyI/whYtwNDYr9qEmHns8vHEyW4bq5MOYM/wD/JShKUUqkXBgLlw8DyEuJw0XfLzh31RoBG9dhJX+oYi/exorRwsxdv11iFSUl6NeRxFYADXxe+DhfRLZsmokH56D4R/8hPTiXIiMLdGBZSGtkEBSWgkZGKSfmI/hM77Hg+J8RPi6QDh6M+rUawoLcewpfPGOHXqP3YywahZFd45h+QQ7CN/1xalDi+HynjvmvmePga7+SGMAUA0qSiWoqAWotgKlEgmeVTNgIUHUdx5wWxuIhKxUnF85Bv1dtuBmEQu2MAqHl02AnXASNu3fgQ9Gj8SIt+Zgy76VeFvYB+M2BeLMxjmY7fExZozoh+ErgxFzfAkmT1+AT2YOR78xGxXya9GNLULI9nnw+Nd1ZBbGY+9UIZy8zyFPJkbsqS/wjl1vjN0cVv/whyTqO3i4rUVgQhZSz6/EmP4u2HKzCCxbhDvHlmOCnRDv+p7CocUueM99Lt6zHwhX/zQNkwK0eTyootnG0BAjGkNXk61UZFGOkbrN6nUpKriDY8snwE74LnxPHcJil/fgPvc92A90hX8aA1aiLmZZ5AVvxaKV/giNv4vTK0dDOHY9rovYFuZjI5hshO31xFCb/nDfG4DN7wzBsElvY0Q/ISZuuY1SAGDScWL+cMz4/gGK8yPg6yLE6M2RqGQLEXV4GSbYCTFp037s+GA0Ro4YigXHC7njTw1sUQi2z/PAv65nojB+L6YKneB9Lg+stljmrIdazlVGk57Kx9VTiaSjXnhv7g5cSUpB2Lez4dCzP6YfSAHbqQdeL/gZi6ctwqFkGcDvhO5dUrFnzlR8HpgLhlWfa8poqnUydbVi6AIcFym3UIP4PR7wPpkNWXUyDs8Zjg9+ypBPZjTEpvo8a4Et2RLEnGjbmqU5PjTroS3HoG2MU0G9LbX6WrmZOjTGLg+deryOgp8XY9qiQ5A32R1dUvdgztTPEfg0r3V5p6mW/Ul1v+xaAP6b9ybeeqvxtVsNNa2ooFV9cI4tjXJuXN06bM6cV+/vhqpqDEfHN5BzNgA3mjkT15TPalNOCdUxoRzFSmMOkx2GvZ5DYdPfHXsDNuOdIcMw6e0R6CeciC236x6O5R4f1aIxVuU8j16tQnmtSlvB5B6mWZN3UYqMiKrDaIVQQCZj/eiPJguQKih89SDqteAciRVbyi8uJGt9xVodpoBOzZlAa6MU63aYTNo9zoD0HTZQbC1DuT84k6HJcFoXmkcyIpLe/4rs9TvSiDVX6WktEdXG0lf2htTL+yZVk4wefj2MTBw3U0ItEdXeoXUDjMh+QyzVEpE0YhUNsF9DUVUkXwsdsI32JtU2krWBivDVNKjXAjrXIDQttNZXrNtiqODUHJqwNkqxhouhzN3jyEDfgTbEqmmPU0cpRawaQPZrouTrpZh8Cti2l5JqiZjcH8jZyJo8L1fLz5M9pK+HmZDj5gSSq7eOBhjZq++TiIgYyvvRmQzNZ9HpCiIiGT3eNYoMzJ1o2bl0khKR5Nc51MVwNO16XOe0Cvp5mhFZuAVShWKL+PInJOy3nELrFnRVhNPKfgZkNfsXymeImMzdNN7AmAYuu0qF4iS6HvyARLW59IOzIZkMX0eheTIiktL9r+xJv+MIWnP1qVz+2K/I3rAXed+s1qIbQ3kn3cjO5UfKZIiIailx1zjq1G0+nS0nIiaPfnQ2JPNZp+Uyiy/TJ8J+tLxBYApf2Y8MrGbTL/kMkewx7RplQOZOy+hcupSIJPTrnC5kOHoX1ZtBiTaNByKiZ0doilHDGnFuG2uOEVW02Iqe0ZEpRo3W9CnHCLcusse7aJSBOTktO0dy0/1Kc7oY0uhdj0lGqjHLFJyiORPWUkPo76ZxBvrksCGWKlqQjypII2hVX32ymriRgp/WElUk08Hp1sQ3cKRND2pJ9vBrGmbiSJvlhYDurBtARvYbSB5OmbR7vAEZD1xGVwvFlHQ9mB4UJnHEnxqYPDrpZkcuP2aS3MyJtGtcJ+o2/yyVc8aylnrIea4qnHoS0bMjU8io0frtst+X0wCH1XS7LrmlEbTqDUMasO4O1RKRLHkbDTXqS6tuKxwmvU2r+hrTiG/+kK8rVc415T44a52GWsEoGqpDGkGrBtjTGnlgEJMfQNv2JlGtlthUQastlXKBacOaxRUfWvTgzjHuMU4FjbZshq9V0BK7JKPkbUPJqO8qamhyFfU1HkHf/CFrRd5pqWXKsdjmdV9Kt1f2Jf3XF1OwYggmLTWttsV9aBtbGvSsi1POnOfwdx1VZ+fSq/pv0OoIhQJcaMlnlRxSg/KYoDrmyOdmffWtaOLGYJKX84M03ZpPBo6b6EGttvGxrqfGaIlVrXq1Pe10RZzBw6OB0Js5F334AAxHYOG8IWAiD+OnmEY3DcqDse9oOgaOnwALxSajnrawqltyXBmCs8E5eHTRD76+vvDdEYAql03YMs8RxuChg6kJ9Ax6YohTV/ABGAjtYCMAug8ZBWsBAIEtbLrpoVQsBoEPodcxhAV4wzY7BId3HEGUmIW0qhosAIG1EDaZ32Lq2Pn4+kwS9N3W47P+ggZZ6ylH8L6jSB84HhMahIZtg9AIORuMnEcX4efrC1/fHQiocsGmLfPgaNyomTo4dRTAWmiDzG+nYuz8r3EmSR9u6z+DWrH4QngdC0OAty2yQw5jx5EoiFkpqqo1/YbjwcysQ6MlEHx06GAKvpk9XFx6wgCAqbAPuvNKISnR9M2nElw4+Auy7QbDoe6igMkwuLkKUXzxJIIkAM/YGAY8czg5j0Fni/5wdhmEToIOMDXRg0HPIXDqygdgAKGdDQTojiGjrCF3nQ266ZVCLCYtuokRdCoYhg5O6MoDAAHeXBUCUc5RuJoC4JnBrEODliUXDuKXbDsMbhAYw9xcISy+iJNBEoDfAR1M+TCzd4FLTwMAphD26Q5eqQTqzdDG8aCCNhu3IEa02UoF5Rjh1oXfoQNM+Wawd3GB3HRC9OnOQ6mkBOpMVxlyFsE5j3DRzxe+vr7YEVAFl01bMM/RuAX5qAaeMYyN+Og8chqcrQWAST94bF4Ee0pAaGgB9IReOBYWAG/bbIQc3oEjUWKw0ipUs4pzDXgwd3LGmM4W6O/sgkGd3+CIPzWIg3Aq2BAOTl3ltxwFb2JViAg5R11hyhXL2uoh17lq4HPpqUIpLu0/gbJh78DRRLGJ3xEdO7RgiFDKNRU4a52GWqHcvcAaQptMfDt1LOZ/fQZJ+m5Y/1l/CLTEpgottCV4bVizuOJDix7cOcY9xqmg0ZatQFvsaqPFeaellrV73ZchOzsP6NARHRuFPFdNa3kf2saWOj0bkoQz55vhbz2LjjCjXGRkNePuo5Z8bh3KY468LhjxO2PkNGfIy7kHNi+yByWEIrSgWMv42KihOrTFarvoxY1ymWsbKm/h4MUy8G5vxBIvL3h5fYa9mV3QWz8VJw5cQd3KYiY7BX9IAL5AvRhsWRFEVYbo57oa69atq/+3dvlU9BUAesoLkPR40Gsy5OuBxwPqvh3KE1Qhbs8ieB3OxeCPvTDRild/NK/HQhy/th9uZqHYPmsI+o5chrNZam4YMdlIkQut3nhsGYpEVTDs54rVjWRet3Y5pvZVLXHcOvLQY+FxXNvvBrPQ7Zg1pC9GLjsLdWIBPAiq4rBnkRcO5w7Gx14TYcVTm9316Ok1XYusbE89Ph96ILCammEKkPW0EmxNTaNb0QLY2liDVyOB+Jm8/KsOzXoqa8f0eHpo6joeeCDFJg7dGBEKi6shKRGrnezJ+6rrjEFB1lNUsjWoaXTvXGBrA2teDSTiZ2BVZNMDn68HEKu+/TaOBxW02hjNjxGttlKlSYxo00UpnqDHh9x06npjUVYkQpVhP7iubtTWurVYPrUvDJqbj81E0PtN9DEFaqVSEE+Aqrg9WOR1GLmDP4bXRCs0SRWVgOWIPzUwokIUV0tQIlZ3jOa2tNVDrnPVok3PxjC5eJxRDoGBvqr6zaZxrqnCXevkx2g+WwGvBxYev4b9bmYI3T4LQ/qOxLKzWWC0xaYKLbSlSl1ofc3ijA9temjJMa4xTgVNtlQ+rhloj91moOJ8zTbUXsvaue6DUFtbC0LjEOCuaYKW9qFtbAFU45Ir55vhbz19A+iDBav2l1tTmpPPrUF5XqKKAL3f7ANT1EJama9lfFRVRFustpdeXKiX5LlgUXTuJzx0+RE/++/H/v2KfweOY9uMzij47SD+o1iQqtfpVXQSVCPxXpzS+ysJLAvwzLvByiQFgYduNHoPOYP0oEuIb8YPtqaU4/KKafARzcQPW93h2KXOoorimJ2Ip909sOdGCpIu+GBQ1j54b7+u+l5NvU54tZMA1Yn3EKe0k+RCo5uVCVICD+FGo5enM+lBuKRGaG4dGWQnPkV3jz24kZKECz6DkLXPG9uvq0gFlF/Gimk+EM38AVvdHaGkXvvA74Y+vc3BJMXgXv0yRBY10hrwXh8MB6s2Ci8u3fivoYe1MQqCTuNKSd0JLERB/ghIVR5S+OjWpzfMmSTENAgMtkaKGt7rGOxg1fKEaON4UEGrjan5MdIiW6nheXVpAg/m3axgkhKIQ00bQ9CleEibm48cEDUqwrWVqGa7oN+Abqi6vALTfESY+cNWuDt2qb8ipDFVuOJPDfzXesDauABBp6+gwcwiBPkHILVUc1va6mFL5ShviZ56FrDsCDyNiYLGlybwBeCr+WFOpOmEpnDXuiaHaobJRuLT7vDYcwMpSRfgMygL+7y343ptC2OzhbZsMRztc8YHtVCPJnCPcSposqW05b7WGrsA+AK+mkknQUOTnDZsWS1rh7oPAbq+9ir0KspQUa8Qd03T5j0VtI0tauDMeS5/1x1XWYFKvVfwWhfttzLaJJ+bDaFpOa8G26UfBnTvrmV8VPWstlj9c/WSoyrl8yJLwoGDzzBtwUClW1wW+MeCGehRfhX/9o9HDQBe5ymYO/lVpB9aAZ+LWaiBFJn3E1HIiJGTmY9SvUlY4N4TGf5uGD9nC34KPINjvp5YE2GKXgKAYVmA2Ea33UjusPrEkP+fZRmALcXj9AKUZ6XiSXk1skMvIDKPQWVpHuKiE8FkB2Kn/31Uwgi2//DBVzNtYWJopPrLjNcZU+ZOxqvph7DC5yKyagBp5n0kFjIQ52Qiv1QPkxa4o2eGP9zGz8GWnwJx5pgvPNdEwLSXmp9Tplw6MsgO3An/+5WAkS3+4fMVZtqawNBIDzwjIxjiGfJyS1AUHY64/MdILyhHVuoTlFdnI/RCJPKYSpTmxSE6sVy5VwAAy7CgevuxYBgZiG1UfInk9q1P+hrU1BJqaqSKczpi8lIvDBSfwe7DqfKHRdh8XAvJxqilSzDGUNEMZKhtEsAM5K5rlFkk76/BdQQCC7nruHTj490Fs9A9/zg+eX85/h34GwL8PoVHoAAj7fhyvViq76vj5KXwGijGmd2HkSoXGPnXQpA9aimWjDEEWAaMjMA2GjDkZtBwlaCt4wEAGAYMSGF3bTbWHCOqdNRiKwYMo9BVcUbTGDHl1IVlGMiIbXQFnEAKPVhAJWYfj1oA954Z8HcbjzlbfkLgmWPw9VyDCNNe0NOYj5W4u3c+Jn+4BVdUnzBtBIuizAzII59F7vnziB/ghSUTDVD6OB0F5VlIfVKO6uxQXIjMA1NZiry4aCSWy2NR1ihgueNPTW51fBcLZnVH/vFP8P7yfyPwtwD4feqBQMFI9CrX3Nbdgomc9VDcohxnterJyJ0tj2teF/zf++NhHP0N5izZhyt37uH3o0fwe17DpIbfxRpdDXIQdfU+Cgof4tK+o7gtkqEo+wmKy6pVcg1Q6oOz1smPV60VSjDZCNzpD3m4/wM+X82ErYkhjPS4Y1MZ7T5VzoU2rFnZYzTGhx2fWw/OHNMyxqmg0ZbN8XVTtI7llXx0se4Kg5woXL1fgMKHl7Dv6G2IZEXIflKMsuqW5t0LrvvQx+C37GFUnN3wpjYAppM01zRBS/vQOrZUKvSEfNzWlvOlmv1dR2VOLsRGg+A0SB+ovIu98yfjwy1X1DzM35x8Vs4hVZTHhPhK5TFHAVuEzAxFjWNzcf58PAZ4LcFEI23jY+NG5GiNVS3zznZBedH488Dk3aJ/L3SkjsZv0pydZym+0RvzmZJYOu0ziaz4IL0OA+jDry9QqpSIEd+hHz2Gk42lBdk6TaHPNi2k4T1HkPuXRygyjyGqSKYT3hPJztKQDMx70KjFRymxgqg8+TxtfNea+IJeNGPHBUrIjKPftk6lHnwB9ZruS/998IRiAjfQP6z5JOg5nXyDHtGTs0tpaFczsuw9ljz33aSfPWzIotdk2hkpIeltHxrZ257e9viCNm1ZS4sX+9IN9Sv9iRgx3fnRg4bbWJKFrRNN+WwTLRzek0a4f0lHIvOIqIKST3jTRDtLMjQwpx6jFtPRxLrHl9SgQUciKd32GUm97d8mjy820Za1i2mx7w35AwiyNDryoZAsXxGSq18UlTE5dHbpUOpqZkm9x3rSvps/k4eNBfWavJMi1Xy5oDz5Am18txvxBbbkuv0SxcScIR/nLsTXF9Jsv8uUlHqLDi8dSRY8E3LwPEjhmWl0499LafQrPOJ1mUCr/f9DkU9lRFRLGefX01RHBxo/exH98+O55PVtKBUwRIzoPp1a9zZZ8flk7bKeTsUUE0PllHx+I71rzSdBrxm040ICZcb9Rlun9iC+oBdN9/0vPXgSQ4Eb/kHWfAH1nO5LQY+eaNGtgpIDvGmisDOZdbQmJ3c/ulXIEFE5JV/YSO9245PA1pW2X0olIqLajPO0fqojOYyfTYv++THN9fqWQgsYIpJQ/Bkfcu7CJ33hbPK7nESptw7T0pEWxDNxIM+D4ZSjLiTaMh6qUujiBhfqyueTjet2Opf4jNPGnDGiFk22qqKUixvIpSuf+DautP1cokqMpFYrzleniySezvg4Uxe+Pgln+9HlpFS6dXgpjbTgkYmDJx0Mz1GNWSKqSD5B3hPtyNLQgMx7jKLFRxOpgkhzPjI5dGR6V7J4tQuN2pKgrJyc2lj6arABWQ2fRZ6frqDPP/2Iprt9SRcy5U9EMTlnaenQrmRm2ZvGeu6jmz97kI1FL5r8TTCFnlpHb1vxiW/tQutPxVAxQ0QtzC0ieU4HeE8kYWcz6mjtRO5+t6iwGW1x1sOcbM5zldGo585Iyk+5SBtcuhKfb0Ou289R4jMikuXS1Y1TqF/nDmRuO4FWBAbRRifj+oc1iZ5R+LZJ1MPcnKwdZtLOm5dptWMfGjd/E524m6mSa1Xq+tBQ69TXCjVIb5PPyN5k/7YHfbFpC61dvJh8b+QrjtUQm+rg9INyLtxp+5qlKT6INOuhNceyKYdjjFOB05Zcvi5WbomItMRuHkP0LJy2TepB5ubW5DBzJ928vJoc+4yj+Rv20/EDa1uRd5pq2Z9T95m8IzTtVSEtD2v6YKP6mta6PrjHlscNevacTl9fTuXMeQmnv4mIpBT+uZBemXaE8hgiJucITe9qQa92GUVbEjQ8paghn9WNJ2pRGhPy1Yw5tbFf0WADKxo+y5M+XfE5ffrRdHL78gIpyrmW8VE9WmNVo17tgx5Rw/VjHTp06PgrUBPugyX3PPHTsl7KuwBZHDY4jcC5KRG4t9WhdQ+f6QCYZGwb7oTTk0IR+/VbOjvq0NGEStxaNQIrjA4hapvTXz8/ZHHYMGI+qnZHYtfouie2axDuswT3PP2xrJf25SrtgSxuA5xGnMOUiHvY6vCXt7Ja2n5pig4dOnS0I6woAgcuvoKP5qmZhDdB0w1RHTp06HheTDDmqz145/5e/JL9V681LArP7cP9t/fgy/pJOAtRxAFcfOUjzHtBk/Am/NVNzIFuIq5Dh46/DqwYCXEsJm9aifGWyjsVyEpQ8oxBqUjczC+s6VCLrBjFpTKUS561/EEzHTr+F+g4Dlv3f4CMH/6N2+q/HPUXgIX4ziHsSX0PP24bV/+VUFacgDh2MjatHA9NpfbPQFZSgmdMKUTiv2811y1N0aFDx98HaRquHf0PwjJKIRNYwHb8LCxw7gUD5eN0cMPk4Pbxk7iSKkKtviV6TXTDovG2ykfp0KEDAKRZuJMADHXqobzn5YfJQkwMYcAwGzT+RujLgDTtGo7+JwwZpTIILGwxftYCOPf6+1Vz3URchw4dOnTo0KFDh44XgG5pig4dOnTo0KFDhw4dLwDdRFyHDh06dOjQoUOHjheAbiL+PwRblo6ENMnL8fBxdQ4SHha8HLIAqMiMxYNs1Q9VvExU5yTgYcHLYjEdOnTo0KFDx/Oim4j/L8Bk43c/Dwzt+SbcDqS82DcgsBLEnvgcznZ2GL8t/OV4qwWbgQPzRmDkomPIfwnnuawkFic+d4ad3XhsC38pLKZDhw4dOnToaAN0E/E/DRZF92LwuOGL0S2HLcK9mMdocRP87pjovQjjXmn0OeYXBc8CDu4rME34EshSB88Wi3+ORMTB+eja2oxohW/YonuIaUZA8Cwc4L5iGoS656p16NChQ4eOvxWtnXboaCkV0fh+w1E8eo7L0RXR32PD0Uetu6LNt4CFuZ7y1hcDzxxmpi+JLApMbRwwuHvrX97Uct9UIPr7DTjazIDgmZvhJTOZDh06dOjQoeM5aZeJOCt5jOjQW4jLKoUoNw8VjXdW5iLhdgjC7mWiTHkZQHUeEm+HIjwuE6V1+9g8xF0LRlBQMG6lSMCCQe69KwgKCsKVqCeorDu3MgsJKUVgqnPx4E4KSuovNDIQp8fgVlgUUgqbc1u/BoUpkQgJiUaaWPlqJVdbFchKSIWIBWoKkhARkYxCxRyLLYrCnvkfwe9OBuKuBuNmYhFYAJVZCUgpYlCd+wB3UkoUV1NlED2Kxs0bIbibLlFsY1EUtQfzP/LDnYw4XA2+icQihYFkIjyKvokbIXeRLlGWF5CVpOFOaBhis6uUdwEAGHE6Ym6FISqlUOMyEVaUhJDgIAQFBSHoSjQyKgGgEhnRVxAUFIyQJJHyKfVU5ibgdkgY7mWWNVoPzoOetkklW4YnSekoYxmI06IQFp2GpupVIishBUVMNXIf3EFKg8M19CmnpjAFkSEhiE4TN716XZ2D+OT8psczYqTH3EJYVApU3F0Ph2802ZctQtSe+fjI7w4y4q4i+GYi5Keo870Cnh60mUyHDh06dOjQ8deizSfiNfF74OF9EtmyaiQfnoPhH/yEDBkAsMgL3opFK/0RGn8Xp1eOhnDselxXfI2qNHInXKdsRFStIUovfYrh/d7ChHfew4yv4/Hq6wX4efE0LDqUDBn46NS9C1L3zMHUzwORW1uIqMPLMMFOiEmb9mPHB6MxcsRQLDguAiRR+M7DDWsDE5CVeh4rx/SHy5abikmPKmxRCLbP88C/rmeiMH4vpgqd4H0uTz4509gWi6I7x7B8gh2E7/ri1KHFcHnPHXPfs8dAV3+kMSwkuSIYW3YAy0pRIZFA/DQah5dNgJ1wEjbt34EPRo/EiKELcLwwHSfmD8eM7x+gOD8Cvi5CjN4ciUpWglyRMSw7sGClFZBISlEpA5j0E5g/fAa+f1CM/AhfuAhHY3Nk3U+TSiQcmAsXz0OIy0nDBR9v+D9qPLWTIOo7D7itDURCVirOrxyD/i5bcFONcXjGHVBx7SvMmuyOfRld0NkIAIzwCv82tvlcRIVFB+VTADYPwVsXYaV/KOLvnsbK0UKMXX8d2j8+xiA7bC88h9qgv/teBGx+B0OGTcLbI/pBOHELbpeyKIw6jGUT7CCctAn7d3yA0SNHYOiC4xBx9ckWIWT7PHj86zoyC+Oxd6oQTt7nkCcTI/bUF3jHrjfGbg5D3eOakqjv4OG2FoEJWUg9vxJj+rtgy035D6gmaPANl31ZSS5ExpbowLKQVkggKa2EjNHge+X+dOjQoUOHDh1/H6hNkVLEqgFkvyaKqoiImHwK2LaXkmqJmIJTNGfCWoqSyo9kMnfTOAN9ctgQS7W1CbT1rQ7ktDWJZEREtffpy0GG1HtpCEmJiGTJtG2oEfVddVv+N0np9qq+ZDziG/pDRkRMJu0eb0DGA5fR1UIxJV0PpgciEV3+REj9lofKZSGiivCV1M/Aimb/kk+MYls9TB6ddLMjlx8z5ftqE2nXuE7Ubf5ZKiexlrZk9HjXKDIwd6Jl59JJSkSSX+dQF8PRtOuxjIgYyv3BmYysPelytaK7zN003sCYBi67SoXiJLoe/IAKk76mYSaOtDmhlohq6c66AWRkv4Fia4mIyaUfnI3I2vMyyZuQ0cOvh5GJ42aSH36H1g0wIvsNsVRLRBXhq2lQrwV0TqwQuPwiLbTWpzdWR5KUiMSXPyFhv+UU2qAQrexnQFazf6F8FeMQUUUoLRcaUr/VEYr+Gco/Npdm789StSUxVHBqDk1YG6XwF0OZu8eRgb4DbYitJaJndGSKEVm6/1pvz6ZIKWJVX9K3mkgbg59SLVVQ8sHpZM03IMdND6iWGMrcPZ4MjAfSsquFJE66TsEPiihPY59SyjvpRnYuP1Km3LmUuGscdeo2n86Wy33/o7Mhmc86TRVEROLL9ImwHy1vMA6Fr+xHBlaz6Rd1xlHxjXb7Mrk/kLORNXkqAkL2kMP3RETPjtAUI0ty/1W9xXTo0KFDhw4dfz3a+Iq4ANZCG2R+OxVj53+NM0n6cFv/GfoLgMqQswjOeYSLfr7w9fXFjoAquGzagnmOxoAsA+nZNeDVrVcQ9ETP7kBuRgbUL6hQgmcMYwMezJ2cMaazBfo7u2AQLuHgL9mwG+xQ/9lWk2FucBUW4+LJIEiUmoA4CKeCDeHg1FV+m0DwJlaFiJBz1BWmJRe0tMVHhw6m4JvZw8WlJwwAmAr7oDuvFJIS9Q/Y8YyNYcAzh5PzGHS26A9nl0Ho/IYXjoUFwNs2GyGHd+BIlBistArVKpdhAYAPodcxhAV4wzY7BId3HEGUmIW0qhosyhG87yjSB47HBAvF4UY9YWvFV/xRggsHf0G23WA4NCgEN1chii+eRJCKcQCYjIL3Z6ORc+xbnClgASYTgZf0MX1mdzW3VSoRcjYYOY8uws/XF76+OxBQ5YJNW+bB0Vj5WHXwYGxsBH7nkZjmbA0BTNDPYzMW2RMSQkNRwPJgbGwAnrkTnMd0hkV/Z7gMMkKYxj7FCDoVDEMHJ8XDmAK8uSoEopyjcDUFwDODWYeGhR8lFw7il2w7DG4wDoa5uUJYfBEn1RpHmZbbly9sie916NChQ4cOHX8HVOdQzwUPPRYex7X9bjAL3Y5ZQ/pi5LKzyGJYlBWJUGXYD66r12Hdurp/a7F8al8IDIZh8juvIfXGFTxhAEgfIiXTEs5TxkHNogf1KC2gZQqy8LSSRU1No3dDC2xhY81DjUSMZ0oTHEZUiOJqCUrEqhPn5rSlp7ToWY/Phx4IrGpz9ais+eUJUBW3B4u8DiN38MfwmmgFHsf5PEEV4vYsgtfhXAz+2AsTrXjyN5Ew2Uj5QwLwBeodzBQg62kl2Jqa+qUYgAC2Ntbg1UggVjYOAICPXvNWYKbRJXy7PwHVSSdw87XZmNxJ+Tj5+u4iURUM+7lidb2v12Hd2uWY2legfHTzEPTGm31MgVoppARV63H1aVeKwuJqSErEGt7UotfIfwwKsp6ikq1BU3fbwJpXA4n4meryFGVaY98W+l6HDh06dOjQ8ddH7Tyt9TDITnyK7h57cCMlCRd8BiFrnze2X6+FeTcrmKQE4tANcaPD0xF0KR4yXme47t4HD8Mb+G7rbvh9fRbGXwThuKct5Ndw+RDwAVKe1RJpfF0cv1sf9DZnkBRzr2GdLVsDaQ0Prw92gJWS5vzXesDauABBp6+gpP54EYL8A5D2Wsvaai3ll1dgmo8IM3/YCnfHLqibsqqfj5Xj8opp8BHNxA9b3eHYpdHRep3waicBqhPvIU7a9CxiWYDfDX16m4NJisG9BoVQI60B7/XBcNCkUEcXLP9kEB4e/AZbfryPNz+aABPlYwCAZ45uViZICTyEpu4OwqX45r0lBJD7t2HKWovKahZd+g1At7oL+43h6jPpFfSwNkZB0GlcaXAuREH+CEhVjiA+uvXpDXMmCTENxgFbI0UN73UMdrDSnjStsG/LfK9Dhw4dOnTo+DugOiN4LhhkB+6E//1KwMgW//D5CjNtTWBopAfTSQvg3jMD/m7jMWfLTwg8cwy+nmsQYdoLAohxed1GZE//DtvXemPF5p3YPNcedasqwO8C664GyIm6ivsFhXh4aR+O3hZBVpSNJ8Vl8quOBMhqG03yOk7GUq+BEJ/ZjcOp8vdVsPnXEJI9CkuXjIFhw5GK49/FglndkX/8E7y//N8I/C0Afp96IFAwEnadtLXFgmFkILbRFXAigFiwLAuAByMjQ+BZHnJLihAdHo9KAAQZGkRmUfo4HQXlWUh9Uo7q7FBciMwDU1mKvLhoJFYaQd5ELkqKohEel4/H6QUoz0rFk/JqZIdeQGQeg8rSPMTdLcCUuZPxavohrPC5iKwaQJp5H4mFDMQ5mcgv1cfkpV4YKD6D3YdT5W/zYPNxLSQbo5YuwRgV49QhQP9FyzG59j/4LmkEPnLUdHXbFJMWuKNnhj/cxs/Blp8CceaYLzzXRMC0lwAAA4aR/yhQc224HrYoExnliv/nnsf5+AHwWjJRsTyIAFlto9cFcvX5Ct5dMAvd84/jk/eX49+BvyHA71N4BAow0o4PgAXDkvxHCoCOk5fCa6AYZ3YfhtzdLPKvhSB71FIsUWccnpJv4rXbl2dkBEM8Q15uCYqiwxD5kMP35QAYBgxIEU8AK7qGzW4fYtvNRr86dOjQoUOHDh1/LZQXjT8fUrrtM5J6279NHl9soi1rF9Ni3xv1D/9VJJ8g74l2ZGloQOY9RtHio4nyh+OYHDr5kQ0Z6uH/27vzuCir/Q/gH2ZGVkHQKxdEARXHNE0IruKOonEtF6wUw1QsQbNwSc2tFE0l7ao3q59bbimadL3mCm4JiAiKoWxCV5FF9mUGWWSZ5/n+/hiWYZgFEkLyvF8vX6+ambN/z3nOzJyHIUCHdAQdSN/EnPqMXkBHH8hvvXsavonGW5uQiZUDTdt2nS6ucKQ+o+eQ349X6deA1TTOUkhCKzdaeyKaCmrvp6tOpbNrJ5OjgwvN8P6IPpi1gHaE5qq4ubBGWSIF+I4lcVdj6mTlRJ7bb1BeE/KSxp6iNa7mJOwgphnbL1JC8g06uGgYmQoMyWHefgrP5Ej28BC9JzajLmJ3+vpSOJ1YPY4shUKycltLJ6ILiCMiLvM0LRpsQcZmvWnUvN10/UcvsjHtRRO33SIpyejhofdIbNaFxO7bKbKEo8zTi2iwhTGZ9R5F83Zfpx+9bMi010TadktKxEno9vde5GxjRqa2TjTpEz/60LknDfX8nA7dyiaiako9u5YmOzqQywxv+uiDWbRgRyjlqu2cWhUUusSRJu3LVN+PRERURonHfGmsnRnp6ZqQ9XAfOhxfRkTPKOn8OnKzEJLQxp02n4lXTkhE1RTzxSDStXSm6fM+pqWffkzvT/Wgz8+lkYw4KvztBK0eZ0lCoRW5rT1B0XUDrq7MmucCfGmsuCsZd7IiJ8/tdCOPI6JSSjy3niZ0E5LI1p02X0iW1yD1LK2d7EgOLjPI+6MPaNaCHRSqtnOUx4a096/sIR16T0xmXcTkvj2SijWN/bMkOr/OjSyEQrJx30xn4p+S7OH3NOHvFjRxT0rDqjAMwzAM027oEL0AP9fHZ+Lsxr0oedsLDnwBJMWlKC+VIOv+SRzJ9kbQt+Mbf4LNtA0+HXu8NqPrN3vxjpnyky1FhnvrnDD0zCRE3P0SDuo+eGcYhmEYhmnHWvhoyh/BI/OoL5bc74V/vtYL/e0HY/josRj/1juY5uaEf7zaq+68LNN2uNIiSCp4lEbsxhXL9/FWq23CG9J0dIVhGIZhGKY9ewE24oDI1AIGvy7GkLHvY/Hajdi8aT0+mz8LH/23F3zm9a65YZNpM7JYbHaxhLm5BV5ZVITZS4fX/RnH1iFDUdFTcMWFkKj9RUuGYRiGYZj27cU4mgKgMjMK58+GIC6rHEIzG7w+fgr+ObAL24S/EGRIu7QHAfF/wxuzp8Opa2u+f6vEwyuH8XNYKoplIpjaumD6XFf00lV+HcMwDMMwTPv2wmzEGYZhGIZhGOZl0pofbTIMwzAMwzAMowbbiDPMi6wiE3EPchVuWi1DWsx9ZCj86udLgS9BStxDSFv87t0KZMY9QG6L5atqfFq6DFVx8YIrS0NsUn77qW+7oirmGK3aa0y22lrYeioy4/CgBRfAsrQY3FcK+Ocpgy9JQdxDaZvFQstuxMuTEbz7c8x6YwSGj3DFeyu/w5k4CXhwSAs7iC0+kzByxAiMeWcxdpy8o5yaYZhavBQxxz6Fq50dXDaFy38UCACfug+zhw6D95GcNls0/lwcMn7dDq/BPfGqxz4kNeOHWTXjIY05hk9d7WDnsgnhLXRTcMPxaYUy1MTFC4vPQ+QBX4y264s3tkW++PVth16+NeE5tduYbK21sPXw0hgc+9QVdnYu2NQiCyAAPhX7Zg/FMO8jyOGfswwuA79u98Lgnq/CY1+Swg8E/rladiNu2Bf//OhzTO/+EFH3O+Gtzz/BlIFmEEAIm1EfYPncfiiIugN++FIs8fiHcur2hc/H3ehHUP6BdOaP4/PvIvoR61EAgMAUDp5LMUVMDX7mXmDrgx9vRWD/HIsWmbwvfp8L0WOsL7xHd0HL3s0igKmDJ5ZOEbdovg3HpxXKUBMXLyyBOZy9lmBib+UnmJaick1g1yf12m1MttZa2HoEpg7wXDoF4passMAWPj/eQsT+ObAQPGcZwh4Y6+uN0V3adj1tiWu5Eh0YGRhAR9cQRh0aPiPoaAQjHR0YGBm1RsF/qrKob7Du8O9t9g7qr6cMUd+sw+HfWY/WEZjA2EhH6UEj2DgMQo8W+fuR7aXPhTA1NYFyTzw/AUyMjVo4X+XxaYUyVMbFC0xo3L7q2+4oxxy7PmnVbmOytdbC1iMwMUZLd7WRjQMGKQT8c5UhNIWpyR9N3DJeiP2wrPB3RF2/hpA7KZByAMCjMCEEwUFBCAoKwqWoVJQDQHkqoi4FISg4BAmF6r6EK0NmbDjCbj1AXmUVclNSUcJn496VYAQFBeNGkhQ8OGTdvSTPO/KxPO9a5VmIuxmCsLtpKFFZBI/8yF2Y8/523E69h8vB1xGfX/vCcmTF3URI2F2kKSUuS49DciEPVOUiISICiXmNl8jyrDjcDAnD3bSSBl8xlqfHISmfQ0XWfdxOKlL7KYe69E0pW1lVXhJuhYQg6qEEHAA++x6uBAchKPgGkqQ8wGXh7qUgBAVdQuTjBj3Y/Hrw+YjcNQfvb7+N1HuXEXw9HvIulaHw9yhcvxaCOylSte2u18pj39S8ytIRl1wIHlXITYhARGKe1guicn/LCaCjYn2oyIxFYk7DCrZcn0NjHCviSx4jIaUEPCfBw8gwRD2sGaOm9hO09LmsCA9vhyIsJgPPlJ4CtKRtQH0cCVR1MICyzFiEh93Cg7xKVOWmILWER/a9KwgOCkLwjSTIp8BdXAoKQtClSChOAeXxUVVG4zWvVjnS45KQz1Ug6/5tJBWpinrVcQFOgpToGwiLTEKe8je0vBSPokJx4146iguzkF2m9Lyiqjwk3QpBSNRDSJSL11QG1KXVUahvFXLib6qeE+rGszl1f86xa2rsN2mOq2sP1PVTDbXpeEgfRSH0xj2kFxciS6Ej6mPuj12fVGvudbip/VyG9LhkyJelBEREJELrJUlTf7VFTCppL2shL32EqNAbuJdejMKsbDSYSuryKE9HXFI+uIos3L+dBJVLkqY1TaCj+o1DWSZiw8Nw60EeKqtykZJa0vR9RkUmYhMVjmKpKkNWiN+jruNayB2kNFxk5U8XPcTt0DDEZKjsUXCSFETfCENkUl6rH19q4404h5Rjc+D8zje4X5CDCH83iEdswK1yAQw6luHKF9Mx0XM3Us27yn9ARr8LhDc3Yc35Mph2bFz18oTDWPDWLGy9lICksB2Y4dAT/afuQxLfGdbdc/GjzxR4H0iEDEJ07mGO5F0zMfnTQGTJZwyyg7+E97K9CI29g5PLRkA8ai2uKm/4eSmyCg1g1pEHX1kGqbQY5TKAzw7Gl97LsDc0FndOLsMI8SisvVoIWf5tHFkyBnbiCfA/cQA+bm/Bc9ZbsB/ojr0Pa4KDz0bwl95YtjcUsXdOYtkIMUatvYr8nEgcXDwGduLx8NuzFe+OGIahg+fiaGHDKqlNn9uEspXx+QjZPBte/7qKtLxYfDtZDCffM8g1tUb33B/hM8UbBxJlgLAzepgnY9fMyfg0MKtu0fkj9eClWSg0MENHnkdlmRTS4nLIuBQcm+OMd765j4KcCPi7iTFiw62GC5eCP2XsBVryqs7H7SNLMMZOjAn+J3DAxw1vec7CW/YD4b73oeo3Emr6O1vFYspLYnDiszdg13sUNoTV3KjSkn0O9XHcoDpcBsK+nYfBNv3h+W0ANrzxOoaMH4eh/cQYu/EmirX1UxP6vDxuH2a5zcOBe5l4eG4NfPf+rtB/mtM20Mw4QnkCDi94C7O2XkJCUhh2zHBAz/5TsS+JR2fr7sj90QdTvA9APgV6wDx5F2ZO/hSBWZzq8WlE3ZrHIy/yIBaPsYN4vB/2bH0XI4YNxeC5R6E83VWRRv4bXh6rEBiXjuSzyzCyvxs2Xq+5Ea0qFru8fHE8Q4aKxIOY6fwufkhttOUAwCM/ZDNme/0LV9PyEPvtZIidfHGmJhg1lqElLQCg6jF+WjodMxf4YIrDQEzdX3t0QsN4Nrnuzzd2aGrs802Z4xrao7GfNKWrQuwuL/gez4CsIhEHZzrj3R9SUaUcc828PqmYMQqaex0WaOnnauTfPoIlY+wgnuCPEwd84PaWJ2a9ZY+B7nuh+pKkqb/aKCYVtaO1sCp2F7x8jyNDVoHEgzPh/O4PkE8lNXnk5yDy4GKMsRNjvN8ebH13BIYNHYy5jTYg6tY0pZfVKUfC4QV4a9ZWXEpIQtiOGXDo2R9T9yWB76xln8FLEHPiM7xh1xujNoRB7SqbcgxznN/BN/cLkBPhDzfxCGyoq1A54vbNgtu8A7iX+RDn1vhi7++KwSdF5L+94LEqEHHpyTi7bCT6u23E9fpPqloetbgKurbQlkT6felN7/k0f379P58ZQ8hcqEdue/LkL5U9oC1DDMlxQxxVE1H17dU0QN+e1sVUExFRWegSEuv1oxURFfLXczl0ZNYM2pPOKZRXo+RXWjLAgVbcLKt5oJIilr9CegNW0+1qIpIl0qbB+tR3+U2qrHn+5vK+ZDD0K/qfjIjLPUEzx6yiSPmTxKXtpNG6HchhXQzJa6OAy6LvXPXJat5FqiAi4nLpxMwxtKo+Me0crUsdHNZRTDWR7NHXNFzXhJwWn6GUSiKS/odmmuvRiK8fkYw4yj0xk8asiqypF0dpO0eTbgcHWhdTTVzaTnLRNaCBiy9TniSBrgbfp8IGzdecXnPZyjjKPu5Bdm7fUxpHRFRN8V+Pps7d5tDpUiJZ4iYarN+Xlt+saWflTVre14CGfvU/re3QVg8u6zty1beieRflYy17sIWGGDrShrhqIqqm26sHkL69vD8b+TPHXkteJHtEXw/XJROnxXRG3lD6z0xz0hvxNT1q1OGa+5voKR2apE9mnv+hZ7Upsr8nVz0Tmn6y7LnHXrnPtcVxA5URtLxvB7Icu56Cn1QTlSXS/qlWJNR1JL/71Vr7SWOfl4XTitd60dwzkprCSun8h1bU4ZUVdKtSS9qaFLW0xdHTQ5NI38yT/vOMiKiEfl0ygBxW3KS6SIpYTq/oDaDV8kCixE2DSb/vcqqfAsupr8FQ+up/8sFtOD4qytC45nGUttOFdA0G0uLLeSRJuErB9wup8WqnFBeSizRf3I+WhNZGSRmFL+tHupYz6KccjiojltMA+5UU+YyIiKOcgE30bYJyTxFx2cfJw86NvpcHI1XHf02jO3ejOadLtZahMS3l0R43fTIeupZC8zgiKqFf5liS/ugdlMppHs+yJtb9uceuObGvZY5rak+lhn7SlK66MoKWD7CnlfKOIC4ngDZ9m0DVqmKumdcnbZp1HdbWzySjR18PJ10TJ1p8JoXky9JMMtcbQV83XiA1x1UbxWSjLmsXa2ElRSwfQPYrI+VrBpdDAZu+pYRqLXlwabTTRZcMBi6my3kSSrgaTPcbbkC0rGlE9PQQTdI3I0/5Ikslvy6hAQ4rqP5yHUHLX9GjAatvUzVp22cQEZdN37vqkcn0k3VzvWEZMnqwZQgZOm4g+bJ/m1YP0Cf7mj4pC19Br/WaS/Vdep4+tOpAr6y4RZVEJLk4n8T9llB9WIXTsn66ZDnjJ8pRFfItoPHHyi3F0Anzdu3Bnj31/75fMwE9FEsUirHgSBgCfG2REXIQWw9FQsJX4lmF/J2H4XBffDIiE0d2nEIuD3BpgbjQYSqmNchErvjCHhwrGYI3HA1rHhGiU6eOTf7IvzzkNIIzf8f57f7w9/fH1oBncPPbiNmOBsovbaw8BKeDM/H7+e3w9/eH/9YAPHPzw8bZjjAAIOzYEUZCY9i7uaGnLgAjMfr0EKBYWgRCOUJOByPz9/PY7u8Pf/+tCHjmBr+Ns+FoAAgMDKArMIGT60h0Ne0PV7fX0LlBozSn11y2MgmCTgRDz8EJFgIAEOHV5SEozDwMdyPl1ypryXoAQvECHAkLgK9tBkIObsWhSAn4ymeoCY0G2nTslQk7oqOREMb2bnCTNxTiPj0gKJaiqFFDm9/fAmNjdKz7Dq5l+1xbHDcgMICBvhBdh02Bq5UIMOwHrw3esKc4hIZq/7N6mvq8NHg3DqcMhMsY05pX66OnrWXdr+xqSqusOXGE4gvYc6wEQ95wRF0kdeoEFV++qdVwfFTQuOYJYGCgC4GJE1xHdoVpf1e4vdZZaxwXnduPnzLsMMih9sykIYZ4uENccB7Hg6QQWYlhk7YDk0fNwZZTCejgsRaf9Bcp5QJIgk4gWM8BTvJghOjV5QgpzMRhdyOtZWhKW8vwlSEY3FUAQB/W1uaAVAIJr3k8m1r35x675sS+ljmuqT2a+klTOoisILZJw47JozBnyykkdPDA2k/6Q9SUmGtO21RoznVYOyE6djSC0Ngebm49IV+W+qCHoBjSxgukxv5qq5hspF2shSJYiW2QtmMyRs3ZglMJHeCx9hP0F2nJQ2AAA10BTJxcMbKrKfq7uuG1hhsQLWuasmJc2HMMJUPeQP3luhM6NXmiAhAYw1hjwAshXnAEYQG+sM0IwcGthxAp4VH5rAI8ShG8+zBSBrqgvkt7wtaytkeLcG7/T8iwG4T6sBoCD3cxCs4fR5C05rEWpmJF+zMJIHp2D7u8d6Lz20uxcEEWfjkUUP+0sBdmL52Gf03bgT1xb2Pq2ev4+4xj6KyYBQCAQ9ajVJSKLNBB0/ioxaMkvxDP9JzhvmI1HJvZK3xJPgqf6cHZfQVWq0qso3R+SUcIoQ5APAF8CfILn0HP2R0rVjs2HpB8ND77pEhreg1lK+MKkVdQAWmRRPVGTZOWrAcACER4dm8XvHd2xttLF2JB1i9QDI16bTv2jSmePZT/v1De0MZ9+kf6W0ch/xbuc61xrIWo96voYwQ8qazU0h5Nfc7hwZb/QYruEKlcmzWlVaHJcQRwWY+QWiqCxR8LJDnF8VFJy5qnebarwCE3/QnK+c6oqgBgLH9UZGsDK0EVpJKngPWHOHpFiPWfbcTm6cex02kh9v28A1Otay8+8nwK8wpQIS2CpNHgaStDgvwqdWlVEwqEACdDtdbx7NOEuj//2DUv9pXHWHGOa2oPh9+3qusnTenkPjx6BcL1n2Hj5uk4vtMJC/f9jB1TrSHUEnPNa5sKTb4ON42OUmV1hELogNB4WXpRY1K7F28tFMD6w6O4IlyPzzZuxvTjO+G0cB9+3jEFHTTmoW0DgiasaQq4LDxKLYXIooP2bNXSaRRDygSiZ7i3yxs7O7+NpQsXIOuXQwgAAC4DSf+TAt1Fqj/g4HKR/qQcfOcq1IeVCLY2VhBUSSF5ykPpk9AW0fI5NkfpRSydsgaF077Dl56OMK8NAoXI7eS2BPNfe4D9X23E97+9ivfH1L6NUqQDU7NOwJNoRD5WedAMgBAioYpNCBE4CGDSzRKGSYE4cE1S/xyXgqALsY1v4FAiMOkGS8MkBB64hvrUHFKCLiBWe2J0szREUuABNCw6CBe0Jm6B9IqEf4e1lQFyg07iUlHtgzwKg/YiIJkDhCIIVSyYRFzL1gNA6cWlmLKmENO++xKejuZ1m8zGi9qfPfaa8mombf2tTQv3+R+JYyKFTz2qy1HBm6PfgG4QauwnTX0eB5O/dYaoIh5371UqpgSIB68xbePxanocATqmZuiEJ4iOfKx2LIXyRimlJ5C6BMqasOY1jxDd+vSGCZeA6Lv1hzL5qkpUCbpjkIMlKCMeT3p4Yde1JCScW4PX0nfDd/NVNOxdIf5ubQWD3CCcrA9G8IVB2BvwEH/XWEZ3WKpNm6y2L+U0j2dlk+r+/GP3R2JfNU3tSUAXtf30PxipTRcLGZeB+Cc94LXrGpISzmHNa+nY7bsZV5U7QoWWaFvTrsNymvq5eV7MmFTXZS/2WsghI/4JenjtwrWkBJxb8xrSd/ti89XqZuShRnPWNB1TyC/XkVB/udawz2iSUlxcOgVrCqfhuy894ahYIZ3O+FtnESri76Jxl/KAsBv69DYBlxCN+rDiUVVZBUH3QXCwbJ0tc6vkWllVDZJVo0r5m4nKKlSCIJPJwAPgix8hJbcU6cmPUVqRgdBzt5DNlaM4+x6i4kvlaUT94b1kIqp//jcShr6v4h0bAAhg/s+34WIQha9mLsTuS7dx99fDOPRrdv2EE5rDykIXmZGX8VtuHh5c2I3DNwshy8/A44ISCMfPhWfPVOz1cMHMjT8g8NQR+M9biQijXo0/aRToQ18PeJqdhaL8KIQ/Go65nj2RutcDLjM34ofAUzjiPw8rI4zQSwTwHAcZ8QoTkUAg8DwPHkYYP9cTPVP3wsNlJjb+EIhTR/wxb2UEjHrJSybIUK12RmhOr7lsZZ0wYe509Mg5ivlvL8H/Bf4XAds/hlegCMPshBCaW8FCNxORl39Dbt4DXNh9GDcLZcjPeIyCEuFz1UOgrw89PEV2VhHyo8Jw60EKckvTkfy4FBUZoTh3KxtceTGy70WhNjTk/uSx15JXBc+BkxF4hQsRkXyS8406XHN/Axw4riZtbRKeA09Uk9fzjX3DPg9HrM54jXHcGI/8tFTIh4NH1tmziB2wAAvH6mvtJ/V9bgfLSbMw8W8pOLB0Dc6nVwGVafgtPg+cJBNpOcXQUZtWebx4FD/SHEecvIPB84DA/J9428UAUV/NxMLdl3D77q84fOhXZNcHEsytLKCbGYnLv+Ui78EF7D58E4WyfGQ8LkBJhfL4yCmWoX3NI0BWreUC2DAuOk1chAUDJTi18yCSqwCAR86VEGQMX4SFI/XAZQRi297fUA592L65Bl9Ms4Whnn6jT6Q6TZiL6T1ycHT+21jyf4H4b8B2fOwVCNEwO3TWUoamtMKa2G+0Eal53EjDeOo0se7PPXbCZsS+ljmuqT1dNPSTiYZ0Ii4Dgdv24rdyQN/2Taz5YhpsDfWgr6Mi5pp5fSq/8y3mTHwPGy9lKzRSSZOuw9DezxU8OE4G4hU2WvLOA994gdQYV20Vk6qb/qKvhRwyArdhrzyA8OaaLzDN1hB6+jra20qATP0GRPuaxnHgaq47EJjjn2+7wCDqK8xcuBuXbt/Fr4cP4df6iapln1EBgAfHk3zjXEuxDL4Yj1JyUZqejMelFcgIPYdb2RzKi7Nx704uJs2aiL+lHMDSNech79LfEJ/HQZKZhpziDpi4aAEGSk5h58Fk+V9L4XNwJSQDwxctxEi9+iJblPKh8edSlkRXD/rRJBshQWhJY5Z+S7/EFhFHMkq9cZS2vfcK6eoIyGyIN20/eZuIy6TTiwaThbEZ9R41j3Zf/5G8bEyp18RtdEuqkG9FKC1xnET7MjWdlJdR1uX1NKlfV+poYktjlgZS0HonMqi9YY+InoZvovHWJmRi5UDTtl2niyscqc/oOeR37A4VcERlicfId6wdmenpkon1cPI5HF9/M0ADMnp46D0Sm3Uhsft2iiwhorJEOuY7luzM9EjXxJqG+xym+DIiksbSqTWuZC7sQOIZ2+liQjLdOLiIhpkKyNBhHu0PzySiMko85ktj7cxIT9eErIf70OH4MuIKf6MTq8eRpVBIVm5r6UR0gYobt0ht+qaVrayMEgN8aay4Kxl3siInz+10I6+21KcUvmk8WZuYkJXDNNp2/SKtcOxDo+f40bE7Bc9XD9lDOvSemMy6iMl9eyQVZ56mRYMtyNisN42at5uu/+hFNqa9aOK2W6QYGnJ/5thryus6hf28hlzNhdRBPIO2X0yg5BsHadEwUxIYOtC8/eHUOITV9fczSjq/jtwshCS0cafNZ+KJShPp3PoJ1E0oIlv3zXQhuaJF+7yENMSxsuoY+mKQLlk6T6d5Hy+lTz9+n6Z6fE7n0upvuFLfT9r6nCPJ7e/Jy9mGzExtyWnSJ+T3oTP1HOpJnx+6Rdka0zbEaYijnKTztM7NgoRCG3LffIbinxLJsi7T+kn9qGtHE7Ids5QCg9aTk0HtDX9E9DScNo23JhMTK3KYto2uX1xBjn1G0xy/Y3QnLb7R+DxTLkOqbs37ioJDT9DqcZYkFFqR29oTFF3QKFhUxwURVaeepbWTHcnBZQZ5f/QBzVqwg0Jz5ekrb66hYb3taZzXZ+S3cRX5+PjTNTV3HZUlBpDvWDF1Ne5EVk6etP1GXt2ao6kM9WmldP/nlTTGXEgdxB709fl4Sgo7QIuHm5LQyJHmH4ykHA3j2Zy6P9fYyQOyCbEvpdhT2ue4uvaQ2n6qfU5NusqbtGZYb7If50Wf+W2kVT4+5H8thziVa0Izrk/EUeahqWRh+jcyH76xrpUqNek6rLmfr4f9TGtczUnYQUwztl+khOQbdHDRMDIVGJLDvP0UriJvTf3VFjHZSLtYCyvp5pph1Nt+HHl95kcbV/mQj/+1upsPVebBFdJvJ1bTOEshCa3caO2JaFK5JGnax+Uk0fl1bmQhFJKN+2Y6I19k6fL6SdSva0cysR1DSwODaL2TQd3Nmpr3GWmUeG49TegmJJGtO22+kEz0TLkMKWWeXkSDLYzJrPcomrf7Ov3oZUOmvSbStltSIk5Ct7/3ImcbMzK1daJJn/jRh849aajn53ToVjYRVVPq2bU02dGBXGZ400cfzKIFO0JJIaxanA7RH/k5oj8Xn74HXpu74pu978BM+Um1OCRucobTyfEIjdmCf6h+G8v8JbGxb3Wye1jnNBRnJkXg7pcOaj4lav+4xE1wdjqJ8aEx2MICqV1hY9cMVeFYs/AutvywWPmZOn/sOvwSeEnWwlbDJWKTsxNOjg9FzJZ/vJT91ypHU1oGh9IiCSr4UkTsvgLL999ik59hXjiNv05mGKYd4QsRse88urw/W/kZdh1uFrYWMn/MC7sRl8VuhoulOcwtXsGiotlYOry5v+ktQ0FBMWSlUjxVf7yJ+UtiY9/qZEUoesqhuFDS6r861pZkBQUolpVCygKp3WFj1xQ8JHH3wE/0wzKXxlvs578OvwRekrWw1cgKUFAsQ6n0qZZ7Y/66hH5+fn7KD74IBF1sYdOlC/q/sxb/WjkWf2/WWwYOmTcDEPzEHPb9jSHJ0EF3e1uYNisPpn1iY9/qKh/iypHLyOv+Ol7tWIR06obXepnV/W3bvwou8yYCgp/A3L4/jCUZ0OluD1sWSO0CG7um0oGBRS9Ym6o+EPB81+GXwEuyFrYaLhM3A4LxxNwe/Y0lyNDpDkfb2j/w/fJoF2fEGYZhGIZhGOavhr2/ZRiGYRiGYZg2wDbiDMMwDMMwDNMG2Ea8icrSYpGU38Z3RVdkIu5BrsK92WVIi7mPjIoGr2IYJRXIjHuA3FYK34rMODxo0cxf8LguS0PM/Qy8qNVjGIZh2g+2EdeCz4vEAd/RsOv7BrZFttE90bwUMcc+haudHVw2hdfdmc2n7sPsocPgfSSH/eEkRgUe0phj+NTVDnYumxDewuHLS2Nw7FNX2Nm5YFMLZv5ixzWP1H2zMXSYN47kvHi1YxiGYdoXthHXQmDuDK8lE9Fb+Yk/k8AUDp5LMUVMdT+pDAACWx/8eCsC++dYtMhA8vl3Ef2o/qdmmfZOAFMHTyydIkZr3JItMHWA59IpELdw5i0d18+HR/7daNRPCwFsfX7ErYj9mGPR9rVjGIZh2jd2JWkCobExjHSUH/2TCUxg3KgSRrBxGIQeLfKnXcsQ9c06HP79Zf1Lnn9VApgYG0E5clqKwKQ15kZLxvVzKovCN+sOo8G0MLKBw6AeeBGqxzAMw7RvrbAR51HyOAEpJTw4yUNEhkXhobTxp6ycJAXRN8IQmZTX6I/gl6fHISmfQ0XWfdxOKkLj1ADKMxD7IBc8OEhTohERk46ymqeqchMREX4fWTWHOPnse7gSHISg4BtIkvIAl4W7l4IQFHQJkY/LFXNFVV4SboWEIOqhpL5cHZ36jUxVDuJvRiAxr/GGVVObeOkjRIXewL30YhRmZdfVVRWVdYAAOio2PBWZsUhU+oq8PCsON0PCcDetpMFX+2XpcUgu5IGqXCREKLSBz0fkrjl4f/ttpN67jODr8ag/Dl+OrLibCAm7i7QSxdx4SB9FIfTGPaQXFyIrW1OLGpIV/o6o69cQcicFtaHR1DFS2wZFZZmIDQ/DrQd5qKzKRUpqSZPzh4b+q9XUvJpSV00xo0xjDHESpETfQFhkEvKUMhKoChxwkKRE40ZYJJKUE6igaswAAAKFuaFGeUas/Aw5J0VKdARi0utmKnITIxB+P6vReWvluFbb9masA/Wa1nY+PxK75ryP7bdTce9yMK7H59fEQwUyYxPRcNqpmyflyIiVn8/npCmIjohBffNzkRgRjvsNKvj86yfDMAzTfrToRpzLCMO38wbDpr8nvg3YgDdeH4Lx44ain3gsNt4srnmVFJH/9oLHqkDEpSfj7LKR6O+2EdfzefB5kTi4eAzsxOPht2cr3h0xDEMHz8XRQoVC+CJEH1uGceI+GO0XiFPrZ2KG1wd4Z2g/OC8LRvTRhZg4dS7mT3NGv5HrcascEHS2RvfcH+EzxRsHEmWAsDN6mCdj18zJ+DQwS77Z5fMRsnk2vP51FWl5sfh2shhOvmeQrXBNrXr8E5ZOn4kFPlPgMHAq9td9X62+TQBQFbsLXr7HkSGrQOLBmXB+9wekNt6TNakOdS+VxODEZ2/ArvcobAire8eB4C+9sWxvKGLvnMSyEWKMWnsV+bm3cWTJGNiJJ8D/xAH4uL0Fz1lvwX6gO/Y+5MBLs1BoYIaOPI/KMimkxeWQAeCzg/Gl9zLsDY3FnZPLMEI8CmuvFoJHFWJ3ecH3eAZkFYk4ONMZ7/6Q2oRfxeKQcmwOnN/5BvcLchDh7wbxiA1NGqPqfM1tkCtHwuEFeGvWVlxKSELYjhlw6NkfU/clgdeSvzwGVPdfoVL/t0xdNceMMk0xJI38N7w8ViEwLh3JZ5dhZH83bLxeu2lUQRqJf3t5YFVgHNKTz2LZyP5w23hd4c2XIvVjpg1fFI1jy8ZB3Gc0/AJPYf3MGfD64B0M7eeMZcHROLpwIqbOnY9pzv0wcv0tlKuJa5Vtr2r+OgA0p+08pFmFMDDrCJ6vRJlUiuLyKkhiTuCzN+zQe9QG1E87VfMkHwXRx7BsnBh9Rvsh8NR6zJzhhQ/eGYp+zssQHH0UCydOxdz50+DcbyTW3yp/7vWTYRiGaYeohVVGLKe+HSxp7PpgelJNVJa4n6ZaCUnX0Y/uVxNJLs4ncb8lFPqsJkFZOC3rp0uWM36iHI6IS9tJLroGNHDxZcqTJNDV4PtUyCkVwmXRd656ZOi8mkKzZURUSb99YU8dOg2llZefUDURVcd8QfZ6vcj3egUREckSN9Fg/b60/GalPI/Km7S8rwEN/ep/JCOOso97kJ3b95TGERFVU/zXo6lztzl0upSI8vaQm74xDV0bSnkcEZX8QnMs9Wn0jlTiSFubKili+QCyXxlJz4iIuBwK2PQtJVTXNqaWljrQUzo0SZ/MPP8jz4eIuOzvyVXPhKafLCMijnJPzKQxqyJJ3kKO0naOJt0ODrQupppkj76m4bom5LT4DKVUEpH0PzTTXI9GfP2IZETEZX1HrvpWNO+ivL+Iy6UTM8fQqsia/uLSaOdoXergsI5iyiJo+QB7WhkprwmXE0Cbvk2gRk1SJntAW4YYkuOGOPkY3V5NA/TtaV2MPKXmMSKtbSj5dQkNcFhBN8tqyquMoOWv6NGA1bepWmv+mvtPmea8tNdVc8wolkREpCGGJBdpvrgfLanPiMKX9SNdyxn0U01GTw9NIn0zT/rPMyIiCV2cL6Z+S0Lr4qgsfBn107WkGT/lUKOitYwZPT1Ek/TNyFOeeSNc1nfkqmdIzqtDST5Vf6Mv7DtQp6Er6fKTaiKqppgv7Emvly/VTFWluNbQ9mavA81sO3GU9Z0r6VvNo9ppQcRR9veupGcyneTTTsM8qZan1zN0ptWh2SRv/hdk36ETDV15meTNj6Ev7PWol+91qmiB9ZNhGIZpX1r0E3EAEBgYQF/YFcOmuMJKBBj288IGb3tQXChCcwtwbv9PyLAbBIfaA5aGQ+DhLkbB+eMIksrT6wpM4OQ6El1N+8PV7TV0Vq6loCOMDHWg2/N1OFkIAehCbGcDEXrg9eFWEAEQ2dqgm04xJJKm3EgmQdCJYOg5OEF+/5UIry4PQWHmYbgb1b7GEK8MGYyuAgD61rA2B6QSCXgUaWmTCFZiG6TtmIxRc7bgVEIHeKz9BP0b/aJwU+rQkMDYGB3rzgWUI+R0MDJ/P4/t/v7w99+KgGdu8Ns4G44GgLBjRxgJjWHv5oaeugCMxOjTQ4BiaVGDG0DrlIfgdHAmfj+/Hf7+/vDfGoBnbn7YONsRBiIriG3SsGPyKMzZcgoJHTyw9pP+aNQkZUIxFhwJQ4CvLTJCDmLroUhI+Eo8q2jap3ma21CMC3uOoWTIG3A0rE3QCZ06KgePOpr7r7k011VbzChlBvUxVHRuP37KsMOg+owwxMMd4oLzON44I6DoHPb/lAG7QQ51Z5wNh3jAXVyA88eD0CjFc46ZoKMRDHV00fN1J8inqhh2NiKgx+sYbiUCIIKtTTfoFEtQO1UbxrX6tjd7HWhu21USwNi4Y/1xHE3zBAJ0NDKEjm5PvO5kAXnz7SBv/nDIm28Lm246KJZIQC2wfjIMwzDtS1N3Kc9BhN6v9oERqlFZnoP0J+Xgq6oUzoSKYGtjBUGVFJKn8ou7tjOngE6j89I6Ah002FHqCCBAw78yohZXiLyCCkiL5BdD7YQQCAFOVg1wuVraBFh/eBRX9njAOHQzpr/eF8MWn0a68rHPZteh5ux6bT/wJcgvfAa9fu5YsXo1Vtf+W7UEk/uKGp5zBwAdIYQ6APGqS+NL8lH4TA/93FfU57V6NVYtmYy+utb48OgV7PEwRujm6Xi97zAsPp2u+ix/AwKInt3DLu8FOJg1CB8sGAtLgeryVdLUBi4Lj1JLIdLt0IT4UUFb/zWXxrpqixnlTa5ATQxxyE1/gnK+ClUKx4xFtjawElRBKnna6HgKl5uOJ+U8qhomgI2VAFVSCRoV3dJjBh00nqoCNPizLopxrbbtaPY60Py2q6aj0CaN80Qkf23DxALoNKwglJvfUPPXT4ZhGKb9aKWNOIEUrgnV5RXgzfthQI8e6NPbBFxCNO7WnTHlUVVZBUH3QXCwbKXqAIBQBCEIyvtOIg4Q/h3WVgbIDTqJS0W1z/AoDNqLgGQt20thNy1tImTEP0EPr124lpSAc2teQ/puX2y+WqmUz3PUAQAEJuhmaYikwAO4Jql/mEsJwoVY7ae3lQlMusHSMAmBB66hPjsOKUEXEFuZgfgnPeC16xqSEs5hzWvp2O27GcpNaqT0IpZOWYPCad/hS09HmNfub2vHRNMYaaNjCrNOwJPoSDxW93JN+Te3/zTlpY3WmFGeB5yaGJKhW5/eMOESEF2fEfiqSlQJumOQg2WjCS7s1ge9TTgkRN9FfdFVqKwSoPsgBzQqWtuYtTp1bdcWbI01u+1NoHGeqAibpnkB10+GYRimVbTOys3nIy21tOa/s3D2bCwGLFiIsfqdMHHRAgyUnMLOg8nyu/35HFwJycDwRQsxUk+ehCBDtcaLGAeeB4hXuFoRAFL4BJwIBB58zb5IaG4FC91MRF7+Dbl5D3Bh92HcLJQhP+MxCkr0MGHudPTIOYr5by/B/wX+FwHbP4ZXoAjD7ITgeR68ik2X/HFtbeKQEbgNe38rB/Rt8eaaLzDN1hB6+sqf23bSWAeAA8fJ21zXap4DTwR5Nxhh/FxP9EzdCw+Xmdj4QyBOHfHHvJURMOolAs9xkBGv8Ak4gUA1bQAE+vrQw1NkZxUhPyocsTrjMdezJ1L3esBl5kb8EHgKR/znYWWEEXrpZCBw217Im/Qm1nwxDbaGetDXAcrvfIs5E9/DxkvZdS2rxRc/QkpuKdKTH6O0IgOh524hmytHcfY9RMWXahmjCs1tEJjjn2+7wCDqK8xcuBuXbt/Fr4cP4dfs+o2x5vyFGvtPmea8tNRVa8w0LAtQH0OdJi7CgoESnNp5EMnyjJBzJQQZwxdhYU1GnDxw5HHSaSIWLRgIyamdOChPAD7nCkIyhmPRwpFQLlrbmIHjwNW0SyWuZu40mqr1k4mIAJ6v/0alQVyrb3uz14Fmth0QQF9fD3iajayifESFx8pvKOV4ENXMQyMN80QEcPIKKnwzQfJYqK8g5M1XeAP3HOsnX3gFGzzew6brCu8mGYZhmBeX8qHx51Ud8wUN0rUk5+nz6OOln9LH708lj8/PUZqs7hWUenYtTXZ0IJcZ3vTRB7NowY5QyuWIuMLf6MTqcWQpFJKV21o6EV2g4gaqUko8u54mWAlJ1Osd2noujtLu/Ze+nGxNQlEvmur/C91/HE2B694kK6GIek71p6CHlUT0lMI3jSdrExOycphG265fpBWOfWj0HD86dqeAiMooMcCXxoq7knEnK3Ly3E438jgi6X36eeUYMhd2ILHH13Q+PonCDiym4aZCMnKcTwcjczS2iaiSbq4ZRr3tx5HXZ360cZUP+fhfU3NjlZo60DNKOr+O3CyEJLRxp81n4olKE+nc+gnUTSgiW/fNdCG5Qp7+mC+NtTMjPV0Tsh7uQ4fjy4iksXRqjau8DTO208WEZLpxcBENMxWQocM82h+eSSR7SIfeE5NZFzG5b4+kEiKiskQ65juW7Mz0SNfEmob7HKb4MvmNiWuG9Sb7cV70md9GWuXjQ/7XcogjjjIPTSUL07+R+fCNyo0j4jLp9KLBZGFsRr1HzaPd138kLxtT6jVxG92SkuYxuh7WhDZk0eX1k6hf145kYjuGlgYG0Xong7qbNTXmXxsDqvpPJQ15NaWuGmNGmeYYqk49S2snO5KDywzy/ugDmrVgB4XWZPQs6Tytc7MgodCG3DefofinRFSdSmfXTiZHBxea4f0RfTBrAe0IzVUx17SMWU4SnV/nRhZCIdm4b6Yz8U8bpi1NpLPrJ5CVUES93tlK5+LS6N5/v6TJ1kIS9ZpK/r/cp8fRgbTuTSsSinrSVP8gelikHNdP1bT9D64DzWk7EckeHqL3xGbURexO2yNLqDTxHK2f0I2EIlty33yB5NNO9TwpTTxL6ydYkVDUi97Zeo7i0u7Rf7+cTNZCEfWa6k+/3H9M0YHr6E0rIYl6TiX/oIdU9hzrp7y+39OEv1vQxD0pCq1gGIZhXlQ6pPjRVAuQ3VsHp6FnMCniLr50aPxJIvMSqArHmoV3seWHxcrP/Lm4RGxydsLJ8aGI2fIP7TeTMkwbY+snwzDMy6V1jqYAaHSXGPNy4AsRse88urw/W/kZhmGaiq2fDMMwL4UW34jLiorwlCtGoYT93tvLh4ck7h74iX5Y5mKm/OSfT1aAgmIZSqVPm/BjQwzT9tj6yTAM83IR+vn5+Sk/+EdVPryCI5fz0P31V9GxKB3U7TX0MhMqv4z5y9KBgUUvWJu+AF+pc5m4GRCMJ+b26G8sQYZOdzjamiq/imFeGGz9ZBiGefm0+BlxhmEYhmEYhmG0a/GjKQzDMAzDMAzDaMc24gzDMAzDMAzTBthGnGEYhmEYhmHaANuIMwzDMAzDMEwbYBtxhmEYhmEYhmkDbCPOMAzDMAzDMG2AbcQZhmEYhmEYpg2wjTjDMAzDMAzDtAG2EWcYhmEYhmGYNsA24gzDMAzDMAzTBthGnGEYhmEYhmHaANuIMwzDMAzDMEwbYBtxhmEYhmEYhmkDbCPOMAzDMAzDMG2AbcQZhmEYhmEYpg2wjTjDMAzDMAzDtAG2EWcYhmEYhmGYNsA24gzDMAzDMAzTBthGnGEYhmEYhmHaANuIMwzDMAzDMEwb+H+iY3W0LyPmZgAAAABJRU5ErkJggg==;" parent="1" vertex="1">
          <mxGeometry x="1680" y="-280" width="738" height="341" as="geometry" />
        </mxCell>
        <mxCell id="vLlzIB-tp__e5FBe9is8-33" value="Oficina" style="whiteSpace=wrap;html=1;align=center;fillColor=#f0a30a;strokeColor=#BD7000;fontColor=#000000;" parent="1" vertex="1">
          <mxGeometry x="1400" y="240" width="100" height="40" as="geometry" />
        </mxCell>
        <mxCell id="vLlzIB-tp__e5FBe9is8-34" value="Coche" style="whiteSpace=wrap;html=1;align=center;fillColor=#f0a30a;strokeColor=#BD7000;fontColor=#000000;" parent="1" vertex="1">
          <mxGeometry x="1720" y="240" width="100" height="40" as="geometry" />
        </mxCell>
        <mxCell id="vLlzIB-tp__e5FBe9is8-35" value="Hay" style="shape=rhombus;perimeter=rhombusPerimeter;whiteSpace=wrap;html=1;align=center;fillColor=#76608a;fontColor=#ffffff;strokeColor=#432D57;" parent="1" vertex="1">
          <mxGeometry x="1570" y="240" width="90" height="40" as="geometry" />
        </mxCell>
        <mxCell id="vLlzIB-tp__e5FBe9is8-36" value="" style="endArrow=none;html=1;rounded=0;exitX=0;exitY=0.5;exitDx=0;exitDy=0;" parent="1" source="vLlzIB-tp__e5FBe9is8-35" edge="1">
          <mxGeometry relative="1" as="geometry">
            <mxPoint x="1547" y="230" as="sourcePoint" />
            <mxPoint x="1500" y="260" as="targetPoint" />
          </mxGeometry>
        </mxCell>
        <mxCell id="vLlzIB-tp__e5FBe9is8-37" value="(1,1)" style="resizable=0;html=1;whiteSpace=wrap;align=right;verticalAlign=bottom;" parent="vLlzIB-tp__e5FBe9is8-36" connectable="0" vertex="1">
          <mxGeometry x="1" relative="1" as="geometry">
            <mxPoint x="34" as="offset" />
          </mxGeometry>
        </mxCell>
        <mxCell id="vLlzIB-tp__e5FBe9is8-38" value="" style="endArrow=none;html=1;rounded=0;exitX=1;exitY=0.5;exitDx=0;exitDy=0;" parent="1" source="vLlzIB-tp__e5FBe9is8-35" edge="1">
          <mxGeometry relative="1" as="geometry">
            <mxPoint x="1547" y="230" as="sourcePoint" />
            <mxPoint x="1720" y="260" as="targetPoint" />
          </mxGeometry>
        </mxCell>
        <mxCell id="vLlzIB-tp__e5FBe9is8-39" value="(1,N)" style="resizable=0;html=1;whiteSpace=wrap;align=right;verticalAlign=bottom;" parent="vLlzIB-tp__e5FBe9is8-38" connectable="0" vertex="1">
          <mxGeometry x="1" relative="1" as="geometry">
            <mxPoint as="offset" />
          </mxGeometry>
        </mxCell>
        <mxCell id="vLlzIB-tp__e5FBe9is8-41" value="Alquila" style="shape=rhombus;perimeter=rhombusPerimeter;whiteSpace=wrap;html=1;align=center;fillColor=#76608a;fontColor=#ffffff;strokeColor=#432D57;" parent="1" vertex="1">
          <mxGeometry x="1890" y="240" width="90" height="40" as="geometry" />
        </mxCell>
        <mxCell id="vLlzIB-tp__e5FBe9is8-42" value="" style="endArrow=none;html=1;rounded=0;exitX=0;exitY=0.5;exitDx=0;exitDy=0;" parent="1" source="vLlzIB-tp__e5FBe9is8-41" edge="1">
          <mxGeometry relative="1" as="geometry">
            <mxPoint x="1867" y="230" as="sourcePoint" />
            <mxPoint x="1820" y="260" as="targetPoint" />
          </mxGeometry>
        </mxCell>
        <mxCell id="vLlzIB-tp__e5FBe9is8-43" value="(1,N)" style="resizable=0;html=1;whiteSpace=wrap;align=right;verticalAlign=bottom;" parent="vLlzIB-tp__e5FBe9is8-42" connectable="0" vertex="1">
          <mxGeometry x="1" relative="1" as="geometry">
            <mxPoint x="34" as="offset" />
          </mxGeometry>
        </mxCell>
        <mxCell id="vLlzIB-tp__e5FBe9is8-44" value="" style="endArrow=none;html=1;rounded=0;exitX=1;exitY=0.5;exitDx=0;exitDy=0;" parent="1" source="vLlzIB-tp__e5FBe9is8-41" edge="1">
          <mxGeometry relative="1" as="geometry">
            <mxPoint x="1867" y="230" as="sourcePoint" />
            <mxPoint x="2040" y="260" as="targetPoint" />
          </mxGeometry>
        </mxCell>
        <mxCell id="vLlzIB-tp__e5FBe9is8-45" value="(1,M)" style="resizable=0;html=1;whiteSpace=wrap;align=right;verticalAlign=bottom;" parent="vLlzIB-tp__e5FBe9is8-44" connectable="0" vertex="1">
          <mxGeometry x="1" relative="1" as="geometry">
            <mxPoint as="offset" />
          </mxGeometry>
        </mxCell>
        <mxCell id="vLlzIB-tp__e5FBe9is8-46" value="Cliente" style="whiteSpace=wrap;html=1;align=center;fillColor=#f0a30a;strokeColor=#BD7000;fontColor=#000000;" parent="1" vertex="1">
          <mxGeometry x="2040" y="240" width="100" height="40" as="geometry" />
        </mxCell>
        <mxCell id="vLlzIB-tp__e5FBe9is8-47" value="" style="endArrow=none;html=1;rounded=0;exitX=1;exitY=0;exitDx=0;exitDy=0;" parent="1" source="vLlzIB-tp__e5FBe9is8-41" target="vLlzIB-tp__e5FBe9is8-48" edge="1">
          <mxGeometry relative="1" as="geometry">
            <mxPoint x="1937" y="166" as="sourcePoint" />
            <mxPoint x="1997" y="166" as="targetPoint" />
          </mxGeometry>
        </mxCell>
        <mxCell id="vLlzIB-tp__e5FBe9is8-48" value="DuraciÃ³" style="ellipse;whiteSpace=wrap;html=1;align=center;" parent="1" vertex="1">
          <mxGeometry x="1980" y="180" width="50" height="30" as="geometry" />
        </mxCell>
        <mxCell id="vLlzIB-tp__e5FBe9is8-49" value="" style="endArrow=none;html=1;rounded=0;exitX=0.5;exitY=0;exitDx=0;exitDy=0;" parent="1" source="vLlzIB-tp__e5FBe9is8-41" target="vLlzIB-tp__e5FBe9is8-50" edge="1">
          <mxGeometry relative="1" as="geometry">
            <mxPoint x="1893" y="195" as="sourcePoint" />
            <mxPoint x="1953" y="195" as="targetPoint" />
          </mxGeometry>
        </mxCell>
        <mxCell id="vLlzIB-tp__e5FBe9is8-50" value="Tipo_Seguro" style="ellipse;whiteSpace=wrap;html=1;align=center;" parent="1" vertex="1">
          <mxGeometry x="1900" y="150" width="88" height="30" as="geometry" />
        </mxCell>
        <mxCell id="vLlzIB-tp__e5FBe9is8-51" value="" style="endArrow=none;html=1;rounded=0;exitX=0;exitY=0;exitDx=0;exitDy=0;" parent="1" source="vLlzIB-tp__e5FBe9is8-41" target="vLlzIB-tp__e5FBe9is8-52" edge="1">
          <mxGeometry relative="1" as="geometry">
            <mxPoint x="1825" y="166" as="sourcePoint" />
            <mxPoint x="1885" y="166" as="targetPoint" />
          </mxGeometry>
        </mxCell>
        <mxCell id="vLlzIB-tp__e5FBe9is8-52" value="Precio_Total" style="ellipse;whiteSpace=wrap;html=1;align=center;" parent="1" vertex="1">
          <mxGeometry x="1820" y="180" width="90" height="30" as="geometry" />
        </mxCell>
        <mxCell id="ixubTMQ6r5XC_kmO0G5D-1" value="" style="endArrow=none;html=1;rounded=0;exitX=0.5;exitY=0;exitDx=0;exitDy=0;" edge="1" target="ixubTMQ6r5XC_kmO0G5D-2" parent="1" source="vLlzIB-tp__e5FBe9is8-33">
          <mxGeometry relative="1" as="geometry">
            <mxPoint x="1390" y="55" as="sourcePoint" />
            <mxPoint x="1450" y="55" as="targetPoint" />
          </mxGeometry>
        </mxCell>
        <mxCell id="ixubTMQ6r5XC_kmO0G5D-2" value="&lt;u&gt;CÃ³digo_Oficina&lt;/u&gt;" style="ellipse;whiteSpace=wrap;html=1;align=center;" vertex="1" parent="1">
          <mxGeometry x="1390" y="100" width="110" height="30" as="geometry" />
        </mxCell>
        <mxCell id="ixubTMQ6r5XC_kmO0G5D-3" value="" style="endArrow=none;html=1;rounded=0;exitX=0.75;exitY=0;exitDx=0;exitDy=0;" edge="1" target="ixubTMQ6r5XC_kmO0G5D-4" parent="1" source="vLlzIB-tp__e5FBe9is8-33">
          <mxGeometry relative="1" as="geometry">
            <mxPoint x="1510" y="125" as="sourcePoint" />
            <mxPoint x="1570" y="125" as="targetPoint" />
          </mxGeometry>
        </mxCell>
        <mxCell id="ixubTMQ6r5XC_kmO0G5D-4" value="Ciudad" style="ellipse;whiteSpace=wrap;html=1;align=center;" vertex="1" parent="1">
          <mxGeometry x="1500" y="100" width="50" height="30" as="geometry" />
        </mxCell>
        <mxCell id="ixubTMQ6r5XC_kmO0G5D-5" value="" style="endArrow=none;html=1;rounded=0;exitX=0.5;exitY=0;exitDx=0;exitDy=0;" edge="1" target="ixubTMQ6r5XC_kmO0G5D-6" parent="1" source="vLlzIB-tp__e5FBe9is8-33">
          <mxGeometry relative="1" as="geometry">
            <mxPoint x="1305" y="115" as="sourcePoint" />
            <mxPoint x="1365" y="115" as="targetPoint" />
          </mxGeometry>
        </mxCell>
        <mxCell id="ixubTMQ6r5XC_kmO0G5D-6" value="Calle" style="ellipse;whiteSpace=wrap;html=1;align=center;" vertex="1" parent="1">
          <mxGeometry x="1340" y="100" width="50" height="30" as="geometry" />
        </mxCell>
        <mxCell id="ixubTMQ6r5XC_kmO0G5D-7" value="" style="endArrow=none;html=1;rounded=0;exitX=0.25;exitY=0;exitDx=0;exitDy=0;" edge="1" target="ixubTMQ6r5XC_kmO0G5D-8" parent="1" source="vLlzIB-tp__e5FBe9is8-33">
          <mxGeometry relative="1" as="geometry">
            <mxPoint x="1260" y="135" as="sourcePoint" />
            <mxPoint x="1320" y="135" as="targetPoint" />
          </mxGeometry>
        </mxCell>
        <mxCell id="ixubTMQ6r5XC_kmO0G5D-8" value="NÃºmero" style="ellipse;whiteSpace=wrap;html=1;align=center;" vertex="1" parent="1">
          <mxGeometry x="1295" y="120" width="50" height="30" as="geometry" />
        </mxCell>
        <mxCell id="ixubTMQ6r5XC_kmO0G5D-9" value="" style="endArrow=none;html=1;rounded=0;exitX=0;exitY=0;exitDx=0;exitDy=0;" edge="1" target="ixubTMQ6r5XC_kmO0G5D-10" parent="1" source="vLlzIB-tp__e5FBe9is8-33">
          <mxGeometry relative="1" as="geometry">
            <mxPoint x="1241" y="165" as="sourcePoint" />
            <mxPoint x="1301" y="165" as="targetPoint" />
          </mxGeometry>
        </mxCell>
        <mxCell id="ixubTMQ6r5XC_kmO0G5D-10" value="CÃ³digo_Postal" style="ellipse;whiteSpace=wrap;html=1;align=center;" vertex="1" parent="1">
          <mxGeometry x="1240" y="150" width="86" height="30" as="geometry" />
        </mxCell>
        <mxCell id="ixubTMQ6r5XC_kmO0G5D-11" value="" style="endArrow=none;html=1;rounded=0;exitX=0;exitY=0.25;exitDx=0;exitDy=0;" edge="1" target="ixubTMQ6r5XC_kmO0G5D-12" parent="1" source="vLlzIB-tp__e5FBe9is8-33">
          <mxGeometry relative="1" as="geometry">
            <mxPoint x="1190" y="195" as="sourcePoint" />
            <mxPoint x="1250" y="195" as="targetPoint" />
          </mxGeometry>
        </mxCell>
        <mxCell id="ixubTMQ6r5XC_kmO0G5D-12" value="TelÃ©fono" style="ellipse;whiteSpace=wrap;html=1;align=center;" vertex="1" parent="1">
          <mxGeometry x="1210" y="180" width="65" height="30" as="geometry" />
        </mxCell>
        <mxCell id="ixubTMQ6r5XC_kmO0G5D-14" value="" style="endArrow=none;html=1;rounded=0;exitX=1;exitY=0;exitDx=0;exitDy=0;" edge="1" target="ixubTMQ6r5XC_kmO0G5D-15" parent="1" source="vLlzIB-tp__e5FBe9is8-34">
          <mxGeometry relative="1" as="geometry">
            <mxPoint x="1728" y="135" as="sourcePoint" />
            <mxPoint x="1788" y="135" as="targetPoint" />
          </mxGeometry>
        </mxCell>
        <mxCell id="ixubTMQ6r5XC_kmO0G5D-15" value="&lt;u&gt;MatrÃ­cula&lt;/u&gt;" style="ellipse;whiteSpace=wrap;html=1;align=center;" vertex="1" parent="1">
          <mxGeometry x="1790" y="120" width="60" height="30" as="geometry" />
        </mxCell>
        <mxCell id="ixubTMQ6r5XC_kmO0G5D-16" value="" style="endArrow=none;html=1;rounded=0;exitX=0.75;exitY=0;exitDx=0;exitDy=0;" edge="1" target="ixubTMQ6r5XC_kmO0G5D-17" parent="1" source="vLlzIB-tp__e5FBe9is8-34">
          <mxGeometry relative="1" as="geometry">
            <mxPoint x="1670" y="135" as="sourcePoint" />
            <mxPoint x="1730" y="135" as="targetPoint" />
          </mxGeometry>
        </mxCell>
        <mxCell id="ixubTMQ6r5XC_kmO0G5D-17" value="Grupo" style="ellipse;whiteSpace=wrap;html=1;align=center;" vertex="1" parent="1">
          <mxGeometry x="1730" y="120" width="50" height="30" as="geometry" />
        </mxCell>
        <mxCell id="ixubTMQ6r5XC_kmO0G5D-18" value="" style="endArrow=none;html=1;rounded=0;exitX=0.5;exitY=0;exitDx=0;exitDy=0;" edge="1" target="ixubTMQ6r5XC_kmO0G5D-19" parent="1" source="vLlzIB-tp__e5FBe9is8-34">
          <mxGeometry relative="1" as="geometry">
            <mxPoint x="1645" y="135" as="sourcePoint" />
            <mxPoint x="1705" y="135" as="targetPoint" />
          </mxGeometry>
        </mxCell>
        <mxCell id="ixubTMQ6r5XC_kmO0G5D-19" value="Marca" style="ellipse;whiteSpace=wrap;html=1;align=center;" vertex="1" parent="1">
          <mxGeometry x="1680" y="130" width="50" height="30" as="geometry" />
        </mxCell>
        <mxCell id="ixubTMQ6r5XC_kmO0G5D-20" value="" style="endArrow=none;html=1;rounded=0;exitX=0.25;exitY=0;exitDx=0;exitDy=0;" edge="1" target="ixubTMQ6r5XC_kmO0G5D-21" parent="1" source="vLlzIB-tp__e5FBe9is8-34">
          <mxGeometry relative="1" as="geometry">
            <mxPoint x="1600" y="165" as="sourcePoint" />
            <mxPoint x="1660" y="165" as="targetPoint" />
          </mxGeometry>
        </mxCell>
        <mxCell id="ixubTMQ6r5XC_kmO0G5D-21" value="Modelo" style="ellipse;whiteSpace=wrap;html=1;align=center;" vertex="1" parent="1">
          <mxGeometry x="1635" y="150" width="50" height="30" as="geometry" />
        </mxCell>
        <mxCell id="ixubTMQ6r5XC_kmO0G5D-22" value="" style="endArrow=none;html=1;rounded=0;exitX=0;exitY=1;exitDx=0;exitDy=0;" edge="1" target="ixubTMQ6r5XC_kmO0G5D-23" parent="1" source="vLlzIB-tp__e5FBe9is8-34">
          <mxGeometry relative="1" as="geometry">
            <mxPoint x="1645" y="325" as="sourcePoint" />
            <mxPoint x="1705" y="325" as="targetPoint" />
          </mxGeometry>
        </mxCell>
        <mxCell id="ixubTMQ6r5XC_kmO0G5D-23" value="NÃºmero_Puertas" style="ellipse;whiteSpace=wrap;html=1;align=center;" vertex="1" parent="1">
          <mxGeometry x="1590" y="310" width="110" height="30" as="geometry" />
        </mxCell>
        <mxCell id="ixubTMQ6r5XC_kmO0G5D-24" value="" style="endArrow=none;html=1;rounded=0;exitX=0.25;exitY=1;exitDx=0;exitDy=0;" edge="1" target="ixubTMQ6r5XC_kmO0G5D-25" parent="1" source="vLlzIB-tp__e5FBe9is8-34">
          <mxGeometry relative="1" as="geometry">
            <mxPoint x="1750" y="325" as="sourcePoint" />
            <mxPoint x="1810" y="325" as="targetPoint" />
          </mxGeometry>
        </mxCell>
        <mxCell id="ixubTMQ6r5XC_kmO0G5D-25" value="NÃºmero_Plazas" style="ellipse;whiteSpace=wrap;html=1;align=center;" vertex="1" parent="1">
          <mxGeometry x="1620" y="340" width="100" height="30" as="geometry" />
        </mxCell>
        <mxCell id="ixubTMQ6r5XC_kmO0G5D-26" value="" style="endArrow=none;html=1;rounded=0;exitX=0.25;exitY=1;exitDx=0;exitDy=0;" edge="1" target="ixubTMQ6r5XC_kmO0G5D-27" parent="1" source="vLlzIB-tp__e5FBe9is8-34">
          <mxGeometry relative="1" as="geometry">
            <mxPoint x="1730" y="355" as="sourcePoint" />
            <mxPoint x="1790" y="355" as="targetPoint" />
          </mxGeometry>
        </mxCell>
        <mxCell id="ixubTMQ6r5XC_kmO0G5D-27" value="Capacidad_Maletero" style="ellipse;whiteSpace=wrap;html=1;align=center;" vertex="1" parent="1">
          <mxGeometry x="1650" y="380" width="121.5" height="30" as="geometry" />
        </mxCell>
        <mxCell id="ixubTMQ6r5XC_kmO0G5D-29" value="Edad_MÃ­nima" style="ellipse;whiteSpace=wrap;html=1;align=center;" vertex="1" parent="1">
          <mxGeometry x="1700" y="410" width="93" height="30" as="geometry" />
        </mxCell>
        <mxCell id="ixubTMQ6r5XC_kmO0G5D-30" value="" style="endArrow=none;html=1;rounded=0;exitX=0.25;exitY=0;exitDx=0;exitDy=0;" edge="1" target="ixubTMQ6r5XC_kmO0G5D-31" parent="1" source="vLlzIB-tp__e5FBe9is8-46">
          <mxGeometry relative="1" as="geometry">
            <mxPoint x="2040" y="135" as="sourcePoint" />
            <mxPoint x="2100" y="135" as="targetPoint" />
          </mxGeometry>
        </mxCell>
        <mxCell id="ixubTMQ6r5XC_kmO0G5D-31" value="&lt;u&gt;DNI&lt;/u&gt;" style="ellipse;whiteSpace=wrap;html=1;align=center;" vertex="1" parent="1">
          <mxGeometry x="2024" y="130" width="50" height="30" as="geometry" />
        </mxCell>
        <mxCell id="ixubTMQ6r5XC_kmO0G5D-32" value="" style="endArrow=none;html=1;rounded=0;exitX=0.5;exitY=0;exitDx=0;exitDy=0;" edge="1" target="ixubTMQ6r5XC_kmO0G5D-33" parent="1" source="vLlzIB-tp__e5FBe9is8-46">
          <mxGeometry relative="1" as="geometry">
            <mxPoint x="2110" y="125" as="sourcePoint" />
            <mxPoint x="2170" y="125" as="targetPoint" />
          </mxGeometry>
        </mxCell>
        <mxCell id="ixubTMQ6r5XC_kmO0G5D-33" value="Nombre" style="ellipse;whiteSpace=wrap;html=1;align=center;" vertex="1" parent="1">
          <mxGeometry x="2065" y="110" width="50" height="30" as="geometry" />
        </mxCell>
        <mxCell id="ixubTMQ6r5XC_kmO0G5D-34" value="" style="endArrow=none;html=1;rounded=0;exitX=0.62;exitY=0.075;exitDx=0;exitDy=0;exitPerimeter=0;" edge="1" target="ixubTMQ6r5XC_kmO0G5D-35" parent="1" source="vLlzIB-tp__e5FBe9is8-46">
          <mxGeometry relative="1" as="geometry">
            <mxPoint x="2120" y="175" as="sourcePoint" />
            <mxPoint x="2180" y="175" as="targetPoint" />
          </mxGeometry>
        </mxCell>
        <mxCell id="ixubTMQ6r5XC_kmO0G5D-35" value="DirecciÃ³n" style="ellipse;whiteSpace=wrap;html=1;align=center;" vertex="1" parent="1">
          <mxGeometry x="2115" y="110" width="65" height="30" as="geometry" />
        </mxCell>
        <mxCell id="ixubTMQ6r5XC_kmO0G5D-36" value="" style="endArrow=none;html=1;rounded=0;exitX=0.75;exitY=0;exitDx=0;exitDy=0;" edge="1" target="ixubTMQ6r5XC_kmO0G5D-37" parent="1" source="vLlzIB-tp__e5FBe9is8-46">
          <mxGeometry relative="1" as="geometry">
            <mxPoint x="2160" y="165" as="sourcePoint" />
            <mxPoint x="2220" y="165" as="targetPoint" />
          </mxGeometry>
        </mxCell>
        <mxCell id="ixubTMQ6r5XC_kmO0G5D-37" value="TelÃ©fono" style="ellipse;whiteSpace=wrap;html=1;align=center;" vertex="1" parent="1">
          <mxGeometry x="2180" y="120" width="50" height="30" as="geometry" />
        </mxCell>
        <mxCell id="ixubTMQ6r5XC_kmO0G5D-38" value="" style="endArrow=none;html=1;rounded=0;exitX=1;exitY=0;exitDx=0;exitDy=0;" edge="1" target="ixubTMQ6r5XC_kmO0G5D-39" parent="1" source="vLlzIB-tp__e5FBe9is8-46">
          <mxGeometry relative="1" as="geometry">
            <mxPoint x="2180" y="155" as="sourcePoint" />
            <mxPoint x="2240" y="155" as="targetPoint" />
          </mxGeometry>
        </mxCell>
        <mxCell id="ixubTMQ6r5XC_kmO0G5D-39" value="Tarjeta_Credito" style="ellipse;whiteSpace=wrap;html=1;align=center;" vertex="1" parent="1">
          <mxGeometry x="2215" y="140" width="95" height="30" as="geometry" />
        </mxCell>
      </root>
    </mxGraphModel>
  </diagram>
</mxfile>
